<mxfile host="app.diagrams.net" modified="2023-11-20T02:54:43.325Z" agent="Mozilla/5.0 (Macintosh; Intel Mac OS X 10_15_7) AppleWebKit/537.36 (KHTML, like Gecko) Chrome/119.0.0.0 Safari/537.36" etag="bK8ujsHmk8fbNVQakOmL" version="22.1.3" type="github">
  <diagram name="Trang-1" id="Mm5-sb6qKyHO4NIbRu92">
    <mxGraphModel dx="2021" dy="500" grid="1" gridSize="10" guides="1" tooltips="1" connect="1" arrows="1" fold="1" page="1" pageScale="1" pageWidth="827" pageHeight="1169" math="0" shadow="0">
      <root>
        <mxCell id="0" />
        <mxCell id="1" parent="0" />
        <mxCell id="N-A8A7CQzxQLr3MDPCDJ-10" value="" style="group" vertex="1" connectable="0" parent="1">
          <mxGeometry x="1160" y="144.5" width="197.5" height="108" as="geometry" />
        </mxCell>
        <mxCell id="N-A8A7CQzxQLr3MDPCDJ-11" value="" style="sketch=0;outlineConnect=0;fontColor=#232F3E;gradientColor=none;fillColor=#232F3D;strokeColor=none;dashed=0;verticalLabelPosition=bottom;verticalAlign=top;align=center;html=1;fontSize=12;fontStyle=0;aspect=fixed;pointerEvents=1;shape=mxgraph.aws4.traditional_server;" vertex="1" parent="N-A8A7CQzxQLr3MDPCDJ-10">
          <mxGeometry x="76.25" width="45" height="78" as="geometry" />
        </mxCell>
        <mxCell id="N-A8A7CQzxQLr3MDPCDJ-12" value="Grafana Server" style="text;html=1;strokeColor=none;fillColor=none;align=center;verticalAlign=middle;whiteSpace=wrap;rounded=0;" vertex="1" parent="N-A8A7CQzxQLr3MDPCDJ-10">
          <mxGeometry y="78" width="197.5" height="30" as="geometry" />
        </mxCell>
        <mxCell id="N-A8A7CQzxQLr3MDPCDJ-13" value="Example flow and example config of gatling real time monitor with prometheus&lt;br&gt;" style="text;html=1;strokeColor=none;fillColor=none;align=left;verticalAlign=middle;whiteSpace=wrap;rounded=0;" vertex="1" parent="1">
          <mxGeometry x="40" width="280" height="120" as="geometry" />
        </mxCell>
        <mxCell id="N-A8A7CQzxQLr3MDPCDJ-16" value="" style="group" vertex="1" connectable="0" parent="1">
          <mxGeometry x="280" y="144.5" width="390" height="133.5" as="geometry" />
        </mxCell>
        <mxCell id="N-A8A7CQzxQLr3MDPCDJ-18" value="Graphite Exporter Server" style="text;html=1;strokeColor=none;fillColor=none;align=center;verticalAlign=middle;whiteSpace=wrap;rounded=0;" vertex="1" parent="N-A8A7CQzxQLr3MDPCDJ-16">
          <mxGeometry y="78" width="197.5" height="30" as="geometry" />
        </mxCell>
        <mxCell id="N-A8A7CQzxQLr3MDPCDJ-17" value="" style="sketch=0;outlineConnect=0;fontColor=#232F3E;gradientColor=none;fillColor=#232F3D;strokeColor=none;dashed=0;verticalLabelPosition=bottom;verticalAlign=top;align=center;html=1;fontSize=12;fontStyle=0;aspect=fixed;pointerEvents=1;shape=mxgraph.aws4.traditional_server;" vertex="1" parent="N-A8A7CQzxQLr3MDPCDJ-16">
          <mxGeometry x="76.25" width="45" height="78" as="geometry" />
        </mxCell>
        <mxCell id="N-A8A7CQzxQLr3MDPCDJ-29" value="10.0.0.2" style="text;html=1;strokeColor=none;fillColor=none;align=center;verticalAlign=middle;whiteSpace=wrap;rounded=0;" vertex="1" parent="N-A8A7CQzxQLr3MDPCDJ-16">
          <mxGeometry x="67" y="103.5" width="60" height="30" as="geometry" />
        </mxCell>
        <mxCell id="N-A8A7CQzxQLr3MDPCDJ-30" value="10.0.0.3" style="text;html=1;strokeColor=none;fillColor=none;align=center;verticalAlign=middle;whiteSpace=wrap;rounded=0;" vertex="1" parent="N-A8A7CQzxQLr3MDPCDJ-16">
          <mxGeometry x="500" y="108" width="60" height="30" as="geometry" />
        </mxCell>
        <mxCell id="N-A8A7CQzxQLr3MDPCDJ-40" value="Pull" style="text;html=1;strokeColor=none;fillColor=none;align=center;verticalAlign=middle;whiteSpace=wrap;rounded=0;" vertex="1" parent="N-A8A7CQzxQLr3MDPCDJ-16">
          <mxGeometry x="380" y="10" width="60" height="30" as="geometry" />
        </mxCell>
        <mxCell id="N-A8A7CQzxQLr3MDPCDJ-23" style="edgeStyle=orthogonalEdgeStyle;rounded=0;orthogonalLoop=1;jettySize=auto;html=1;" edge="1" parent="1" source="N-A8A7CQzxQLr3MDPCDJ-11" target="N-A8A7CQzxQLr3MDPCDJ-2">
          <mxGeometry relative="1" as="geometry">
            <Array as="points">
              <mxPoint x="800" y="179" />
              <mxPoint x="800" y="179" />
            </Array>
          </mxGeometry>
        </mxCell>
        <mxCell id="N-A8A7CQzxQLr3MDPCDJ-26" value="" style="group" vertex="1" connectable="0" parent="1">
          <mxGeometry x="280" y="273" width="194" height="50" as="geometry" />
        </mxCell>
        <mxCell id="N-A8A7CQzxQLr3MDPCDJ-19" value="Listen at port 9109" style="text;html=1;strokeColor=none;fillColor=none;align=center;verticalAlign=middle;whiteSpace=wrap;rounded=0;" vertex="1" parent="N-A8A7CQzxQLr3MDPCDJ-26">
          <mxGeometry width="194" height="30" as="geometry" />
        </mxCell>
        <mxCell id="N-A8A7CQzxQLr3MDPCDJ-20" value="Expose metrics at port 9108" style="text;html=1;strokeColor=none;fillColor=none;align=center;verticalAlign=middle;whiteSpace=wrap;rounded=0;" vertex="1" parent="N-A8A7CQzxQLr3MDPCDJ-26">
          <mxGeometry y="20" width="194" height="30" as="geometry" />
        </mxCell>
        <mxCell id="N-A8A7CQzxQLr3MDPCDJ-9" value="" style="group" vertex="1" connectable="0" parent="1">
          <mxGeometry x="710" y="144.5" width="197.5" height="108" as="geometry" />
        </mxCell>
        <mxCell id="N-A8A7CQzxQLr3MDPCDJ-2" value="" style="sketch=0;outlineConnect=0;fontColor=#232F3E;gradientColor=none;fillColor=#232F3D;strokeColor=none;dashed=0;verticalLabelPosition=bottom;verticalAlign=top;align=center;html=1;fontSize=12;fontStyle=0;aspect=fixed;pointerEvents=1;shape=mxgraph.aws4.traditional_server;" vertex="1" parent="N-A8A7CQzxQLr3MDPCDJ-9">
          <mxGeometry x="76.25" width="45" height="78" as="geometry" />
        </mxCell>
        <mxCell id="N-A8A7CQzxQLr3MDPCDJ-3" value="Promtheus Server" style="text;html=1;strokeColor=none;fillColor=none;align=center;verticalAlign=middle;whiteSpace=wrap;rounded=0;" vertex="1" parent="N-A8A7CQzxQLr3MDPCDJ-9">
          <mxGeometry y="78" width="197.5" height="30" as="geometry" />
        </mxCell>
        <mxCell id="N-A8A7CQzxQLr3MDPCDJ-22" style="edgeStyle=orthogonalEdgeStyle;rounded=0;orthogonalLoop=1;jettySize=auto;html=1;" edge="1" parent="1" source="N-A8A7CQzxQLr3MDPCDJ-2" target="N-A8A7CQzxQLr3MDPCDJ-17">
          <mxGeometry relative="1" as="geometry">
            <mxPoint x="490" y="179" as="targetPoint" />
            <Array as="points">
              <mxPoint x="500" y="180" />
              <mxPoint x="500" y="180" />
            </Array>
          </mxGeometry>
        </mxCell>
        <mxCell id="N-A8A7CQzxQLr3MDPCDJ-31" value="10.0.0.4" style="text;html=1;strokeColor=none;fillColor=none;align=center;verticalAlign=middle;whiteSpace=wrap;rounded=0;" vertex="1" parent="1">
          <mxGeometry x="1228.75" y="248" width="60" height="30" as="geometry" />
        </mxCell>
        <mxCell id="N-A8A7CQzxQLr3MDPCDJ-37" value="https://github.com/prometheus/graphite_exporter" style="text;html=1;strokeColor=none;fillColor=none;align=center;verticalAlign=middle;whiteSpace=wrap;rounded=0;" vertex="1" parent="1">
          <mxGeometry x="354" y="460" width="60" height="30" as="geometry" />
        </mxCell>
        <mxCell id="N-A8A7CQzxQLr3MDPCDJ-15" value="" style="group" vertex="1" connectable="0" parent="1">
          <mxGeometry x="-31.5" y="165" width="130" height="83" as="geometry" />
        </mxCell>
        <mxCell id="N-A8A7CQzxQLr3MDPCDJ-14" value="Gatiling User" style="text;html=1;strokeColor=none;fillColor=none;align=center;verticalAlign=middle;whiteSpace=wrap;rounded=0;" vertex="1" parent="N-A8A7CQzxQLr3MDPCDJ-15">
          <mxGeometry y="53" width="130" height="30" as="geometry" />
        </mxCell>
        <mxCell id="N-A8A7CQzxQLr3MDPCDJ-8" value="" style="sketch=0;pointerEvents=1;shadow=0;dashed=0;html=1;strokeColor=none;fillColor=#505050;labelPosition=center;verticalLabelPosition=bottom;verticalAlign=top;outlineConnect=0;align=center;shape=mxgraph.office.devices.laptop;" vertex="1" parent="1">
          <mxGeometry x="4.5" y="160" width="58" height="34" as="geometry" />
        </mxCell>
        <mxCell id="N-A8A7CQzxQLr3MDPCDJ-21" style="edgeStyle=orthogonalEdgeStyle;rounded=0;orthogonalLoop=1;jettySize=auto;html=1;" edge="1" parent="1" source="N-A8A7CQzxQLr3MDPCDJ-8" target="N-A8A7CQzxQLr3MDPCDJ-17">
          <mxGeometry relative="1" as="geometry">
            <mxPoint x="210" y="186.5" as="targetPoint" />
            <Array as="points">
              <mxPoint x="300" y="177" />
              <mxPoint x="300" y="177" />
            </Array>
          </mxGeometry>
        </mxCell>
        <mxCell id="N-A8A7CQzxQLr3MDPCDJ-27" value="&amp;nbsp;At&amp;nbsp;gatling.conf" style="text;html=1;strokeColor=none;fillColor=none;align=center;verticalAlign=middle;whiteSpace=wrap;rounded=0;" vertex="1" parent="1">
          <mxGeometry x="-1.5" y="273" width="60" height="30" as="geometry" />
        </mxCell>
        <mxCell id="N-A8A7CQzxQLr3MDPCDJ-32" value="&lt;span style=&quot;color: rgb(0, 0, 0); font-family: Helvetica; font-size: 12px; font-style: normal; font-variant-ligatures: normal; font-variant-caps: normal; font-weight: 400; letter-spacing: normal; orphans: 2; text-align: center; text-indent: 0px; text-transform: none; widows: 2; word-spacing: 0px; -webkit-text-stroke-width: 0px; background-color: rgb(251, 251, 251); text-decoration-thickness: initial; text-decoration-style: initial; text-decoration-color: initial; float: none; display: inline !important;&quot;&gt;10.0.0.1&lt;/span&gt;" style="text;whiteSpace=wrap;html=1;" vertex="1" parent="1">
          <mxGeometry x="8.5" y="248" width="80" height="40" as="geometry" />
        </mxCell>
        <mxCell id="N-A8A7CQzxQLr3MDPCDJ-33" value="" style="shape=image;verticalLabelPosition=bottom;labelBackgroundColor=default;verticalAlign=top;aspect=fixed;imageAspect=0;image=data:image/png,iVBORw0KGgoAAAANSUhEUgAAAloAAAFYCAYAAACLe1J8AAAMP2lDQ1BJQ0MgUHJvZmlsZQAASImVVwdYU8kWnluSkEBoAQSkhN4EkRpASggt9N5EJSQBQokxEFTs6KKCaxcL2NBVEQUrzYIidhbF3hcLKsq6WLArb1JA133le/N9c+e//5z5z5lzZ+69A4DacY5IlIeqA5AvLBTHBvvTk1NS6aSngAIIgAzcgSmHWyBiRkeHA1iG2r+Xd9cBIm2v2Eu1/tn/X4sGj1/ABQCJhjiDV8DNh/ggAHgVVyQuBIAo5c2mFIqkGFagJYYBQrxQirPkuEqKM+R4r8wmPpYFcTsASiocjjgLANVLkKcXcbOghmo/xI5CnkAIgBodYp/8/Ek8iNMhtoY2Ioil+oyMH3Sy/qaZMazJ4WQNY/lcZEUpQFAgyuNM+z/T8b9Lfp5kyIclrCrZ4pBY6Zxh3m7mTgqTYhWI+4QZkVEQa0L8QcCT2UOMUrIlIQlye9SAW8CCOQM6EDvyOAFhEBtAHCTMiwxX8BmZgiA2xHCFoFMFhex4iHUhXsgvCIxT2GwWT4pV+EIbMsUspoI/yxHL/Ep93ZfkJjAV+q+z+WyFPqZanB2fBDEFYvMiQWIkxKoQOxTkxoUpbMYWZ7Mih2zEklhp/OYQx/KFwf5yfawoUxwUq7Avyy8Ymi+2OVvAjlTg/YXZ8SHy/GDtXI4sfjgX7BJfyEwY0uEXJIcPzYXHDwiUzx17xhcmxCl0PogK/WPlY3GKKC9aYY+b8vOCpbwpxC4FRXGKsXhiIVyQcn08U1QYHS+PEy/O4YRGy+PBl4FwwAIBgA4ksGaASSAHCDr7GvvgnbwnCHCAGGQBPrBXMEMjkmQ9QniNA8XgT4j4oGB4nL+slw+KIP91mJVf7UGmrLdINiIXPIE4H4SBPHgvkY0SDntLBI8hI/iHdw6sXBhvHqzS/n/PD7HfGSZkwhWMZMgjXW3IkhhIDCCGEIOINrg+7oN74eHw6gerE87APYbm8d2e8ITQRXhIuEboJtyaKCgR/xRlBOiG+kGKXGT8mAvcEmq64v64N1SHyrgOrg/scRfoh4n7Qs+ukGUp4pZmhf6T9t9m8MPTUNiRHckoeQTZj2z980hVW1XXYRVprn/MjzzWjOF8s4Z7fvbP+iH7PNiG/WyJLcQOYGewE9g57AjWCOhYK9aEdWBHpXh4dT2Wra4hb7GyeHKhjuAf/oaerDSTBY61jr2OX+R9hfyp0nc0YE0STRMLsrIL6Uz4ReDT2UKuwyi6k6OTMwDS74v89fUmRvbdQHQ6vnPz/gDAu3VwcPDwdy60FYB97nD7N3/nrBnw06EMwNlmrkRcJOdw6YUA3xJqcKfpASNgBqzhfJyAG/ACfiAQhIIoEA9SwAQYfTZc52IwBcwAc0EpKAfLwGqwHmwCW8FOsAfsB43gCDgBToML4BK4Bu7A1dMDXoB+8A58RhCEhFARGqKHGCMWiB3ihDAQHyQQCUdikRQkHclChIgEmYHMQ8qRFch6ZAtSg+xDmpETyDmkC7mFPEB6kdfIJxRDVVAt1BC1REejDJSJhqHx6Hg0C52MFqPz0SXoWrQa3Y02oCfQC+g1tBt9gQ5gAFPGdDATzB5jYCwsCkvFMjExNgsrwyqwaqwOa4HP+QrWjfVhH3EiTsPpuD1cwSF4As7FJ+Oz8MX4enwn3oC341fwB3g//o1AJRgQ7AieBDYhmZBFmEIoJVQQthMOEU7BvdRDeEckEnWIVkR3uBdTiDnE6cTFxA3EeuJxYhfxEXGARCLpkexI3qQoEodUSColrSPtJrWSLpN6SB+UlJWMlZyUgpRSlYRKJUoVSruUjildVnqq9JmsTrYge5KjyDzyNPJS8jZyC/kiuYf8maJBsaJ4U+IpOZS5lLWUOsopyl3KG2VlZVNlD+UYZYHyHOW1ynuVzyo/UP6ooqliq8JSSVORqCxR2aFyXOWWyhsqlWpJ9aOmUgupS6g11JPU+9QPqjRVB1W2Kk91tmqlaoPqZdWXamQ1CzWm2gS1YrUKtQNqF9X61MnqluosdY76LPVK9Wb1G+oDGjSNMRpRGvkaizV2aZzTeKZJ0rTUDNTkac7X3Kp5UvMRDaOZ0Vg0Lm0ebRvtFK1Hi6hlpcXWytEq19qj1anVr62p7aKdqD1Vu1L7qHa3DqZjqcPWydNZqrNf57rOpxGGI5gj+CMWjagbcXnEe92Run66fN0y3Xrda7qf9Oh6gXq5esv1GvXu6eP6tvox+lP0N+qf0u8bqTXSayR3ZNnI/SNvG6AGtgaxBtMNthp0GAwYGhkGG4oM1xmeNOwz0jHyM8oxWmV0zKjXmGbsYywwXmXcavycrk1n0vPoa+nt9H4TA5MQE4nJFpNOk8+mVqYJpiWm9ab3zChmDLNMs1VmbWb95sbmEeYzzGvNb1uQLRgW2RZrLM5YvLe0skyyXGDZaPnMSteKbVVsVWt115pq7Ws92bra+qoN0YZhk2uzweaSLWrrapttW2l70Q61c7MT2G2w6xpFGOUxSjiqetQNexV7pn2Rfa39Awcdh3CHEodGh5ejzUenjl4++szob46ujnmO2xzvjNEcEzqmZEzLmNdOtk5cp0qnq85U5yDn2c5Nzq9c7Fz4LhtdbrrSXCNcF7i2uX51c3cTu9W59bqbu6e7V7nfYGgxohmLGWc9CB7+HrM9jnh89HTzLPTc7/mXl71Xrtcur2djrcbyx24b+8jb1JvjvcW724fuk+6z2afb18SX41vt+9DPzI/nt93vKdOGmcPczXzp7+gv9j/k/57lyZrJOh6ABQQHlAV0BmoGJgSuD7wfZBqUFVQb1B/sGjw9+HgIISQsZHnIDbYhm8uuYfeHuofODG0PUwmLC1sf9jDcNlwc3hKBRoRGrIy4G2kRKYxsjAJR7KiVUfeiraInRx+OIcZEx1TGPIkdEzsj9kwcLW5i3K64d/H+8Uvj7yRYJ0gS2hLVEtMSaxLfJwUkrUjqTh6dPDP5Qop+iiClKZWUmpi6PXVgXOC41eN60lzTStOuj7caP3X8uQn6E/ImHJ2oNpEz8UA6IT0pfVf6F04Up5ozkMHOqMro57K4a7gveH68Vbxevjd/Bf9ppnfmisxnWd5ZK7N6s32zK7L7BCzBesGrnJCcTTnvc6Nyd+QO5iXl1ecr5afnNws1hbnC9klGk6ZO6hLZiUpF3ZM9J6+e3C8OE28vQArGFzQVasEf+Q6JteQXyYMin6LKog9TEqccmKoxVTi1Y5rttEXTnhYHFf82HZ/Ond42w2TG3BkPZjJnbpmFzMqY1TbbbPb82T1zgufsnEuZmzv39xLHkhUlb+clzWuZbzh/zvxHvwT/UluqWiouvbHAa8GmhfhCwcLORc6L1i36VsYrO1/uWF5R/mUxd/H5X8f8uvbXwSWZSzqXui3duIy4TLjs+nLf5TtXaKwoXvFoZcTKhlX0VWWr3q6euPpchUvFpjWUNZI13WvD1zatM1+3bN2X9dnrr1X6V9ZXGVQtqnq/gbfh8ka/jXWbDDeVb/q0WbD55pbgLQ3VltUVW4lbi7Y+2Za47cxvjN9qtutvL9/+dYdwR/fO2J3tNe41NbsMdi2tRWsltb2703Zf2hOwp6nOvm5LvU59+V6wV7L3+b70fdf3h+1vO8A4UHfQ4mDVIdqhsgakYVpDf2N2Y3dTSlNXc2hzW4tXy6HDDod3HDE5UnlU++jSY5Rj848Ntha3DhwXHe87kXXiUdvEtjsnk09ebY9p7zwVdurs6aDTJ88wz7Se9T575JznuebzjPONF9wuNHS4dhz63fX3Q51unQ0X3S82XfK41NI1tuvYZd/LJ64EXDl9lX31wrXIa13XE67fvJF2o/sm7+azW3m3Xt0uuv35zpy7hLtl99TvVdw3uF/9h80f9d1u3UcfBDzoeBj38M4j7qMXjwsef+mZ/4T6pOKp8dOaZ07PjvQG9V56Pu55zwvRi899pX9q/Fn10vrlwb/8/uroT+7veSV+Nfh68Ru9NzveurxtG4geuP8u/93n92Uf9D7s/Mj4eOZT0qenn6d8IX1Z+9Xma8u3sG93B/MHB0UcMUf2K4DBimZmAvB6BwDUFABo8HxGGSc//8kKIj+zyhD4T1h+RpQVNwDq4P97TB/8u7kBwN5t8PgF9dXSAIimAhDvAVBn5+E6dFaTnSulhQjPAZuDv2bkZ4B/U+Rnzh/i/rkFUlUX8HP7L1aLfHJt9l+lAAAAlmVYSWZNTQAqAAAACAAFARIAAwAAAAEAAQAAARoABQAAAAEAAABKARsABQAAAAEAAABSASgAAwAAAAEAAgAAh2kABAAAAAEAAABaAAAAAAAAAJAAAAABAAAAkAAAAAEAA5KGAAcAAAASAAAAhKACAAQAAAABAAACWqADAAQAAAABAAABWAAAAABBU0NJSQAAAFNjcmVlbnNob3Q6h80WAAAACXBIWXMAABYlAAAWJQFJUiTwAAAC22lUWHRYTUw6Y29tLmFkb2JlLnhtcAAAAAAAPHg6eG1wbWV0YSB4bWxuczp4PSJhZG9iZTpuczptZXRhLyIgeDp4bXB0az0iWE1QIENvcmUgNi4wLjAiPgogICA8cmRmOlJERiB4bWxuczpyZGY9Imh0dHA6Ly93d3cudzMub3JnLzE5OTkvMDIvMjItcmRmLXN5bnRheC1ucyMiPgogICAgICA8cmRmOkRlc2NyaXB0aW9uIHJkZjphYm91dD0iIgogICAgICAgICAgICB4bWxuczpleGlmPSJodHRwOi8vbnMuYWRvYmUuY29tL2V4aWYvMS4wLyIKICAgICAgICAgICAgeG1sbnM6dGlmZj0iaHR0cDovL25zLmFkb2JlLmNvbS90aWZmLzEuMC8iPgogICAgICAgICA8ZXhpZjpVc2VyQ29tbWVudD5TY3JlZW5zaG90PC9leGlmOlVzZXJDb21tZW50PgogICAgICAgICA8ZXhpZjpQaXhlbFhEaW1lbnNpb24+NjAyPC9leGlmOlBpeGVsWERpbWVuc2lvbj4KICAgICAgICAgPGV4aWY6UGl4ZWxZRGltZW5zaW9uPjM0NDwvZXhpZjpQaXhlbFlEaW1lbnNpb24+CiAgICAgICAgIDx0aWZmOlJlc29sdXRpb25Vbml0PjI8L3RpZmY6UmVzb2x1dGlvblVuaXQ+CiAgICAgICAgIDx0aWZmOlhSZXNvbHV0aW9uPjE0NC8xPC90aWZmOlhSZXNvbHV0aW9uPgogICAgICAgICA8dGlmZjpZUmVzb2x1dGlvbj4xNDQvMTwvdGlmZjpZUmVzb2x1dGlvbj4KICAgICAgICAgPHRpZmY6T3JpZW50YXRpb24+MTwvdGlmZjpPcmllbnRhdGlvbj4KICAgICAgPC9yZGY6RGVzY3JpcHRpb24+CiAgIDwvcmRmOlJERj4KPC94OnhtcG1ldGE+CiBD2ykAAEAASURBVHgB7b0HfFRV+v//ICWQUAKBhBJ67yBSpIggVRDWhiK7r+8qC+zvK7irIrqoyOqyuwoW1L+riH6xgAiCumIFRVCQFkrokNBCCzVAAgES+fM5eG7uTGaSqXdm7nye12tyzz331Pe9mfvMOc95Tol2XXpdEQoJkAAJkAAJkAAJkEDACVwX8BJZIAmQAAmQAAmQAAmQgCJARYsPAgmQAAmQAAmQAAkEiQAVrSCBZbEkQAIkQAIkQAIkQEWLzwAJkAAJkAAJkAAJBIkAFa0ggWWxJEACJEACJEACJEBFi88ACZAACZAACZAACQSJABWtIIFlsSRAAiRAAiRAAiRARYvPAAmQAAmQAAmQAAkEiQAVrSCBZbEkQAIkQAIkQAIkQEWLzwAJkAAJkAAJkAAJBIkAFa0ggWWxJEACJEACJEACJEBFi88ACZAACZAACZAACQSJABWtIIFlsSRAAiRAAiRAAiRARYvPAAmQAAmQAAmQAAkEiUCpIJXLYqOMQMmSJaVixYpSqVIlKVu2rOzft18u5F6IMgrsLgmQAAmQAAk4EqCi5ciDZ14SKFGihNx7z73Sp08fiYuNM3LPeHuG/LD0B+OcARIgARIgARKIRgJUtNzc9Vt63yJ333V3oasbNm6Qt2a8VSjeXURSUpI8+L8PqsuLFy+Wn37+yV3SiIzv0b2HDB0ytFDbL126VCiOESRAAiRAAiQQbQSiRtEqX7683NzzZnV/U1NT5UDGgSLvNabA4uPjC6VJqJJQKK6oiPhK8dKkcROVZNu2bUUljchrHTp0MNq99Mel8vl/P5esrCy5ePGiEc8ACZAACZAACUQrgahRtOrWrSu/H/F7dZ/nx8wvVtFauXKlnDp1SqUvXbq0jHxgZLQ+I0X2u2pCVeP6h7M/lJycHOOcARIgARIgARKIdgJRo2h5e6OPZh4VfCD+KFpHjh6RLxZ9ocrZuGmjOtrpT1zcNbssjGBRybLTnWVfSIAESIAEAkEg5IoWlJjLly973Rescrty5Yr8+uuvXue1MsPZs2dl9pzZPlfpLR9v0/vcMKeMefl5TjE8JQESIAESIAESCImilZiYKMPvHS5NmzSVKlWqyPHjx2XHjh3y7eJvZchtQ9RdWbZsmaSsTzHuUL269aRTp07Spk0bSUpMkgoVKkh+fr4cOnxIMjIy5Otvvpa0tDQjPQLD7h4mjRo2UnFVqxZMcfXr20/VbU688LOFqg3mOF/DMBDv2LFjoezLly+XdSnrCsVj5d4jDz8iMWViZOeunbJ9+3bp27evtGjeQrlLOHHihGKBqTlXSqkvPAs1ghEkQAIkQAIkQAIBJ2C5otWwYUN5/LHHlc8l3Ztq1aoJPj169NBRcvDgQQdFa+TIkdK4UWPjOgIY1apTu476dO7UWd7/4H35bvF3RpoWLVpIs6bNjHMdgKE7FDazrFq9KmCKVtOmTaVTx07m4lX48OHDbhWtjjdcU8yaNWumlM2YmBgjP5TE/v36C45Tp0014hHwladDIT6egH+l+Eo+5mY2EiABEiABErA/AUsVLYzcjBk1xlCyMK228peVSmG6qcdNYlYu3KHHirbNmzdL5rFMNXXYulVrgXJSqlQpeeD+BwQr+w4eOqiyL1261BjlSq6VLO3atVPxBw4ckNTNqQ5V7E7b7XDuz8nGjQW2WNWTqkurVq08Lq5MmTIqbXp6uuzcuVPq1asnUBghHa7voJRKvWIyEDxVwT7+wWrKcmXLqdzZ57J9LIXZSIAESIAESMC+BCxVtNq3ay916tRRNKFkPf3M05KZmanOV6xcIZOemiTXXed6VyAoTV99/ZWsWbNGTRnqW7Jg4QIZ9adRAr9XEIyKfTT3IxVetnyZOuJPy5YtDUVr9ZrVgnzBEkwP6ilCTI96o2ihTT+v+Fne+M8byv4MytT4R8aLdqMApUsrWv7w9Lfv8P5+68BbjWIwWkchARIgARIgARJwJGCpoqVHlNAETPFpJQvnsNHalLpJoDy4kqK8jMMRqFa0EqslusoeMXGwO5vz0RzDyB8G//BPpRUt2LRp8YenLsObI0bnxo4dq7bYgZ0cDO8hUJrnfzLfm6KYlgRIgARIgASigoClihbssLSsX79eB40jvK67U7SQCPn79+0vtZJrSUJCgrHli55uQxpzGOeRJidPnjT8d+m2wxheS5nS16YWce4vT12mp0c4cNWLC3QeeIB/7fXXZM/ePTqKRxIgARIgARIggd8IWKpomZ1bnjp9zRmo+U5cOO9+E2JMU424b4Sy5zLncQ7n5UW2mwHtJNXcr4uXCrysx5Q1GcmbnIV6y9Ncvqdh2L7Nmz9PYsvFKru4Ro0aKcX2yYlPysuvvCyYkqWQAAmQAAmQAAkUELBU0YK9UVHizj4Ldk7w6q6v69V7p0+fVu4OKlasqFw5oOwyMQUjPkXVFa7XMHXoqfjK09PyndNlZ2fLwk8XqmjU/ecxf5aeN/VU5wMHDKSi5QyM5yRAAiRAAlFPwFJFC1NgycnJCjr2AMQKQrO4m/aDfZJWspZ8v0RmvjPTnE3tJQifWVYIXBqEi/jKMxDth+3YkiVLDEULvrwoJEACJEACJEACjgRcL/FzTBOws+MnjhtlmQ25daSzbysdX7t2bR1UL3fj5LeAdn/gHO9wfqXgTLskKIgpOoTpSD3SVKduHSluJKno0gJ31VeegWpBWnqaMoRHeeYpzUCVz3JIgARIgARIINIJWKpobdmyxeAF7+wwrtYCz+/Xt79enzoc8y4X2F3BZ5ZZ4Hx08KDB5iiX4dNZp434Bg0bGGFPAhi9gZE6pEL5ClLvqm+rcBBfeQaq7eBy/vz5QBXHckiABEiABEjAdgQsnTpcs3aNwL6qZs2aauud5/7+nHJdgOk4eD53Ny0Hv1F6S5uhQ4YqA2y4g0hKSpL7ht8n5cuXL/bGQFHCqBTqwNY248aOU45PtaKwY+cOY3TGVWHbd2wXPT02edJkwRZB2jHq2nVrBfZiECiP2lcYzs2r9BBvHrXLOp1l+MRCWm/FV57e1uNJ+lIlLX2UPGkS05AACZAACZBAyAlY+nbECMiMmTNkwvgJEhsbq9wTeGJbtXjJYqWIQaGqXLmyUq7M5DC1B8/wRcnFixeV7y4YbUO6de2mPjrPjLdnSFG+uuDgtEvnLsp7PTzY9+vXT2eVnPM5smLFCnWOkbo7br/DuGYOYMTOPGoHlwgTn5xoTuJV2FeeXlVSTGKtqIIJ7qk+LyYbL5MACZAACZBAVBCwdOoQRDESNemZSbJp0yaloCAODi+x1+C7s97FqZLc3FwdVEbzz7/wvNo82oj8LYBRpcnPTjY2W4ZC5U5mz5mt9kPcu3evnMs+55CsqHxIeOzYMXli4hOyfsP6Qkb8F3ML6jS326ECFye6TihMOpx7saDfOgs2kkYaiE6nr/nCU+cNxPHEyQIfX9goHA5V3Y1MBqI+lkECJEACJEACkUSgRLsuvUxm4tY2HUblFSpUMKbsYGsFNw6Ql6df9cu02tEvE1YeVq9eXWrUqCGw20rfky5wOUC5RsBbnoHg1uvmXjJm9JhCRcGJKbZVopAACZAACZBANBMoer4tCGSgLMHvFVw7YJQGo1kQjIL07t3bqPHIkSNGWAd+/fVXZePFffU0EVFuL3zlWVCK76Efl/0odevUlV69ejlsCu7JBuG+18qcJEACJEACJBAZBCxXtODgcvSo0YIVc/AknnksU8rHlZdBgwZJzRo1FbWt27bKgQMHIoNgiFsZap5Qlme9P0s++vgjZT8H/2hw9ZCWlhZiMqyeBEiABEiABEJPwHJFC9Nb+LRu3Vp9nBHAsPyDDz5wjua5GwLhwhO2Y0ePHlUfN01lNAmQAAmQAAlEHYGS1ZPrT7ay11gdiM2QMfJhXil47tw5wabSU6dN5cvaixtCnl7AYlISIAESIAESsJhAyIzhMRKDKcO48nGSk5MjULQovhMgT9/ZMScJkAAJkAAJBIuA5VOHuiOw7YGLBWc3C/o6j94RCDbP1ROSvGvQb6k7v5DpUz5mIgESIAESIAE7ELDcj5YdoLEPJEACJEACJEACJOAJgZBNHXrSOKYhARIgARIgARIggUgmELKpw0iGZue2w58Z/HJhs+6yZcvK/n375ULuBTt3mX0jARIgARIggaARsETRgid3iCsnpEHrGQv2igCM6e+9517p06ePxMXGGXmL2wPSSMgACZAACZAACZBAIQKWKFqFag2TiFq1asnDf31YtWbRokUCL+fRKj2695ChQ4YW6v6lS5cKxTGCBEiABEiABEjAMwKWKFrhOpJVsUJFSa6VrEglJiZ6RszDVOXLl5ebe96sUqempsqBjPD2dN+hQwejZ0t/XCqf//dztU2S8ybWRiIGSIAESIAESIAEiiVgiaJVbCtsmKBu3brGBtnzY+aHvaJVNaGqcRc+nP2h8m1mRDBAAiRAAiRAAiTgEwFL3DvARkvbafnUSmYKOoG4uGt2WRjBggNZCgmQAAmQAAmQgP8ELFG0/G9m4EooXbq0T4VhNd5111mHy+r6NJS8/Dwd5JEESIAESIAESMBPApZMHYbaRgv2V8PvGS6NGzeWqlWrysmTJ2Xb9m2yceNGt/jq1a0nnTp1kjZt2khSYpJUqFBB8vPz5dDhQ5KRkSFff/O1pKWlOeQfdvcwadSwkYpDPVr69e0nTZs01afquPCzhbJjxw4jzpf6jMwMkAAJkAAJkAAJhCUBSxStUPa8caPGMuGxCUpR0u1ISEgQrLLDx52MHDlSkNcsGGWqU7uO+nTu1Fne/+B9+W7xd0aSFi1aSLOmzYxzHYBPKihsZlm1epWDouVLfeby/AmjX5XiK/lTBPOSAAmQAAmQAAm4IGCJoqXts6we2YJvqNGjRhtK1qlTp2T1mtXKEWf3bt3Fk2nErKws2bx5s2QeyxTsJ9i6VWtp1qyZlCpVSh64/wHZtm2bHDx0UKFdunSpMcqF1Yzt2rVT8QcOHJDUzakO+Hen7XY41yfe1Kfz+Hts0riJlCtbThWTfS7b3+KYnwRIgARIgARI4DcClihaoaJ9ffvrpXbt2qp6KDCTJk+SEydOqPNVq1bJE48/IVDGXAmUpq++/krWrFmjpgx1mgULF8ioP42SW3rfoqJ69OghH839SIWXLV+mk0nLli0NRQvKHfIVJb7UV1R5nl6D9/dbB95qJD98+LARZoAESIAESIAESMA/ApYoWlaPZGkkbdu21UFZ8v0SQ8lC5KbUTWo0CgqRK/lh6Q+uolXc4sWLDUUrsVpg/G9ZWV/1pOoyduxYNbIH+zM9snf27FmZ/8l8t/3mBRIgARIgARIgAe8IWKJoedekwKU2G6SvX7++UMHrUtapkadCF36LqFatmvTv219qJdcS2HXprWnKlCljZDGHjUgfA1bVFx8fbxjt66bCA/xrr78me/bu0VE8kgAJkAAJkAAJ+EnAEkUrVDZaZiecp7NOF0J1+nThOJ0I02kj7hshMBQvSvLyAuMOwcr6YFM2b/48iS0Xq+zNGjVqJFAYn5z4pLz8ysvKjq2oPvMaCZAACZAACZCAZwQsUbQ8a0rgU5mVJLhmcBZXcUgDVwy/H/F7w28W7JYw+gXF7PLly1KxYkWBKwdImZiC0S0V4cMfq+vLzs6WhZ8uVC2Fjdqfx/xZet7UU50PHDCQipYP95BZSIAESIAESMAVAUsUrVDZaGGVITaOhmBfQ9ggmQUKkyvBvn/aOSlsu2a+M9MhGVbpaUXL4YKPJ1bXZ24mVlIuWbLEULQCveejuS6GSYAESIAESCDaCFjn6jwEZE+cvLbCEFXDWamzNGnSxDlKneuVijiBEuIs8JdVrFwpSKFdJxTEOIYCUp9jkV6dpaWnGUpoTNkYr/IyMQmQAAmQAAmQgHsClihaodrrcM+eAsPuW265xcHeCgbhXTp3cUkm73KB3RV8ZpkFzkcHDxpsjnIZNtuENWjYwGUaHRmI+nRZvhwxqnX+/HlfsjIPCZAACZAACZBAEQQsmTosov6gXoJfK0zxYfscbI3zyMOPyDfffCMxMTHKBgtHV3Ig44B07NhRXRo6ZKgyFMd2OUlJSXLf8PukfPnyrrI5xGGbH9iAwU6sRfMWMm7sOOX4VCs0O3buMEaRAlGfQ+V+nJQqaetHwg8yzEoCJEACJEAC3hOw5K0aKhstuCz4eN7HMvKBkcoxaYfrOwg+xcniJYulf7/+SqGqXLmyUq7MebDSEJ7hi5KLFy+q7XlgXA7p1rWb+ug8M96eIdp3ViDq0+X6etQKIJTP2NhYjnD5CpL5SIAESIAESMBEwJKpQ1N9lgdhzP76//e6XLhwwaHuc9nnDI/uuJCbm2tchxf55194Xm0ebUT+FoBrhMnPTlarDxEFhcqdzJ4zW+2HuHfvXkF9ZjHnC1R95vK9DZvt2YbfO1yqVKniMNXqbXlMTwIkQAIkQAIkIFKiXZdeJrPt4CAJlR8tc2/gxqB2cm2pUbOGYIQtIyND7V1oTuMcxsrD6tWrC9oPO6r0PekC1wjBEqvrM/ej1829ZMzoMeYoFYYT0xUrVxSKZwQJkAAJkAAJkEDxBIqe/yo+f8SkgME3bKHw8VR+/fVXgQ8tq/b/s7o+M4cfl/0odevUlV69eikbNn3NnR2bvs4jCZAACZAACZCAewKWjGi5r55Xwo0AFCvYpcVXihe4ekhLS5OcnJxwaybbQwIkQAIkQAIRQSBqRrQi4m6EQSNhO3b06FH1CYPmsAkkQAIkQAIkENEELDGGD5UfrYi+M2w8CZAACZAACZBAxBOwRNGKeErsAAmQAAmQAAmQAAn4QMCSqcNQ+dHygQezkAAJkAAJkAAJkEDACHBEK2AoWRAJkAAJkAAJkAAJOBKwRNGijZYjdJ6RAAmQAAmQAAlEBwFLpg6jAyV7SQKBIQDnumaBDzgKCZAACZCAawLh/p1piaJFGy3XDwdjScCZwF/G/UVuvPFGh2g42Z3w+ASHOJ6QAAmQAAmI/OO5f0ijho0cUKSkpMjUF6c6xIXyxBJFK5QdjLa6k5KS5MH/fVB1e/HixfLTzz9FG4KI7i+cxDpL2ZiyzlE8d0Pglt63yN133V3o6oaNG+StGW8Vio/0CGzb1eeWPtK6dWupVq2asdn99u3b5Z1333HbPU+/J6KNp1tgEXgBozxTnpsiZWLKyJYtW2TWe7N87oWnz4vPFfiR0dX3Y7jtaGKJohUOex36cR8jKis8ujdp3ES1edu2bcW2vXz58nJzz5tVutTUVK+2KCq2cCbwi8BLL78kF3IvyLmzjhuS+1WozTNXqlRJ4uPjC/UyoUpCoTg7RDz8l4elY8eOhbpy7lzRz4yn3xPRxrMQyAiOgKLVoEED1YMzWWf86omnz4uuxMr3yquvvyp4TkuWLClPTHhCNyGsjpYoWmHVYzbGgUDdunXl9yN+r+Lmx8ynouVAJ7QnmzdvVopWaFsRWbWvXLlSTp06pRpdunRpGfnAyMjqgBetxXSJVrJgx7d3717ZtXuXYM/U/fv3e1GS+6TRxNM9BV7xloCV75UDBw6o5kHRClexRNGijZZ1t//I0SPyxaIvVIUbN220rmLWRAJhQOBo5tXto65+IHZXtPAy0/Ltd996NTXk6fdENPHULHksTMDT56VwTsaAgCWKFlH7T6BUqVKSn58vxa1AO3v2rMyeM9v/Cr0oAS+0y5cve5GjcFJP+4ecZcqUkUuXLhUuhDFKucjLyyv2OdGo9Gqd4p4rnd756Mu99+X++dtO53Z7cu5L3zwpN1BpsPm7lq1bt+qgR8dI/Z7wqHN+JArUPff0+wyjMPjfwyikt+JPXm/7yefF27vjmN4SRcvuNlowQh01cpQiu2LlClm2fJkjZaczGOo9+vCjKjZ1c6os+nKRCuOf8+G/PiylS5WWrdu2KkP23r16S7u27aRhw4aCF+jBgwdVetSjpUf3HsYUgo7Dcfny5bIuZZ05SoWH3T3MWKVRtWpV43q/vv2kaZOmxjkCCz9bKDt27HCIw0m3rt2kW7duUq9uPalSpYrk5OTIvv375MdlP8pPP7k2wPe1f3GxcTJw4EC5scuNgvaCHxS7rKws1bbF3y+WXbt2FWpjNERAAcEzcsMNN0jt5NqSkJCgFPLjx4/L+g3r5bvF30lmZqYDCnzJ3nnHndKyZUupU7uOYon7t//Afvn0s0/VFJQ5A+p45OFHJKZMjOzctVNgaN23b19p0byFso04ceKEpKxPkQ9nf+hS4fb1/nnbTnObfQ378lz7Wpe3+cz3AXnr1atnFHHvPfdK3z59jfPdabtl/ifzjXMEvP2ecMjs40k489RdSkxMlOH3Dlffffguw/8OvvO+XfytDLltiEq2bNky9YzrPDj68n2G78tOnTpJmzZtJCkxSSpUqKD+Xw8dPiQZGRny9TdfS1pamrka9eMJ74VSJUvJ5i2b5eLFi9K9W3fjnYApYyx6+v6H7x3yOZ/g/9Wb/1tvn5dQvVec+xmO55YoWuHY8UC2CYoR/nEgl/MuF6toNWzQ0Eh//MRxoyl4sXS4voM6xz9x1xu7inl6ANfr168vt99+u5gVraZNm0qnjp2McnTg8OHDLhWtFi1aSLOmzXQy4wiDQt0PHblq9SoHRats2bJKqYSSZZa4uDhp2aKl+rRq2UrefOvNQqMqvvQPStXf//53Sa6VbK5OfflAwcUnNjY2rJbyOjQ0iCd4KWCFKbibBc8OftwMqjFI6tSpI1P+OcW4jDwTxk9weEmDMYxXsbKofbv28u7/vStLf1xq5MELvuMN1wyumzVrpl4+yKMFym//fv2VEjx12lQdrY6+3j9f2ulQsZcn/jzXXlblc3LzfXAupFatWoKPltJlSuugcfT2e8LI6EMgEniiW/gB+/hjj0vFihWNXurvlR49ehhx+IGLHxNm8eX7bOTIkdK4UWNzMcqIGz948OncqbO8/8H76geSToT/oevbX69Onb+fMaqF/0l88ENr1vuzdDaHY+PGjeXxCY+rH6n6QlH/t0jj7fMSqveK7k84Hy1RtOxuo3X4yGHB0Cr+WZ3/iVzd/EaNGhnRO3fuNMLmAB5aLXv27FGjEpXiK0nzZs11tHHcuLHAFqt6UnVp1aqVcc1VYOnSpcavJigw7dq1U8lgVIgRNrPgl7FZht01TI1kIQ5D3mvWrJGMgxlSvXp1NcqFl0HPm3qqUQ+MbrkTT/s3cMBAQ8m6cOGCah8MffHl06RJE8WjxHWODj7d1VlUPO7b5GcmF5Wk0DX0ffpr0wvFWxUxZvQYQ8nCvVi/fr1azFCubDlp3ry5g5Ku24Rf7vV+GwnBCOnPK34WuAhoUL+BJCcnKwX2gfsfkE2pmwyjcp0XR0z7QdLT0wXPLsrS9xI/EvCygN8vLb7eP3/bqev39Bio59rT+nxJh3u88NOFxj1o26at1K5dWxW1YcMGwaiIFoyOOIu33xPO+b05jwSe+K4aM2qMoWThO3zlLyuV4nNTj5sclJLi+q7/B5CuuO9rpMFoPBa7ZB7LVN+jrVu1VsoSfiTh/w8rxg8eOoikLgWjXtu2b5O6depK27ZtVZoBAwbI2nVr1WyIcyZv/2+R39vnJRzeK879DpdzSxStcOlsMNuBKRX86oeyhV9EGH52J2ZFa8fOwtNyOh+mc15/43XBl6gWjFDgpWgWTA/qKUJM/RWnaJmnNjF9pBWt1WtWy4KFC8xFO4Rr1qgp/fv3V3GwKcDoBfwTaYGTuL889Bd1et/w+9RwNuzK3Ikn/cPon5Z58+epoXV9jiN46C8Rc7y3YfwC93bVCkbSQiU3dLhB8KKFYCrhlVdfcXhO8BLBVDBGKbVglAtTORDcv3+/8G/lXwfnUFz/9vjf1Jc9fqn/bujv1MgWrjkLlLM3/vOGKgP1jH9kvHTocG0kFi8cs6Lly/0LVDud2+3uPNDPtbt6/I2HooX/AS2wU9SK1n+/+K9s37FdX3J59PZ7wmUhHkRGCk+M3uL7AwIl6+lnnjam2TFjMOmpSepHiAddVkk8+T6DMvLV11+pH6jm70Z874760yiB3zIIRtM+mvuRCjv/wcgaXL/o/H/8nz/KgP4DVDJMdcLsxJV483+L/N4+L+HyXnHV91DHWaJo2d1GCzcRv+719AoUKShaGJp9dvKz6h7/sPQH+WTBJyqsvdjiV82xY8dUnKs/+FI1K1lIg1EnvZzVVZ5gxnXv3t1QRmBLYFayUC+mGe8+crfgixYKJ6YyimqrJ/0rV66c0aXz588bYR0oqnydxpMjVtUUZ+PgXI6zLYXz9WCe415owYoz5+cEL2XEmwVTuhi9gmBFKpwYaoGyNu+TeerlgjjnKQqdDl/ucz6aYxjvoh5MM2pFC1N+ZvHl/gWineY2FBcO9HNdXH12vx4pPPUPTNwPZ1tG2GhhVBfKmKfiyfcZ3gPuBA6mtaKVWC3RXTKlbGslC4mgpME+Dz8U4bgWR/N1pPH2/xZ5rJJIeV784WGJouVPAyMlr3lkCtNQv/zyi7Rp3UYZiqMPMICEooUXkX4ZmfM49xMvPm9f/M5lBPq8RvUaRpGDbh1kKJZimrkzf0EUpWh52j8oQHqEDkPqmC6EgoARRO0vyWiUHwEYdL89820/SrA2q/le4CXhiUDx17J27VodNI6Yrsg5nyMwXoeDT4xWQZEyy8mTJwtxBzstZUpfm1rU577cv0C0U9fvydHM0t/n2pP67J4mUnhi5kELpt2dBT8kPVW0PP0+Qx2ot3/f/lIruZZavIL/N4h5ZN4cVhd/+4P/P2cfaXBOu3v3bjUajR9SWI1q/p9EVm//b811BjscKc+LPxwsUbTsbqOFG4CVHxjKxz+InhrUUzu4DtsVKFhmG66iFC0YycOGJpxEj0zqNmG1TlFSPq6828ue9g/D7NpeAtNb+MWnf/Xt2btHPvnkE7W6zm1FNr0AmzgInhF8iXoiZgXm1OlTLrOcPn1aKVqYPsS0I0ZdzeJKub146aKRxHkLIV/uXyDaaTTIg0Agn2sPqrN9kkjhWTWh4IeHq/+HC+cveHyvPP0+u3XgrTLivhHGzIC7Ctx99+P/05WcOVvg+R39cla0vP2/dVVHsOIi5Xnxp/+WKFr+NDBS8mJoNi09TS15r1+vvlK49EiM7gMUr5o1a+pT2bXTvUuCUyddvwiNzCEI4OWrBW4AXP3z6us4btq0yXzqEPa0f1DSn5j4hNwz7B5l9AlDby2wVZvw2ARZvXq1vDz9ZR3t0xHLrPVWRJ4WgEUAZoNRT/P5mw4jTfpe4LlzHnVyV77Og+vOUws6T35egU2dOb1xvQibO53GfPTl/pnr9bWd5jYUFzbX5+9zXVxd0XA9Unji/6go0dPsRaXR1zz5PoP9LHbh0OXqVeFQnuCuBuYWcJEAwf6EriQv3/WPb/P3opm/LsPd/5G+Hsqjub12/f+zRNHSGqvdR7ZgpwVfJXhw4NsILg/wy+SXVb8oHzZYHaKNk3Nzc5XfKXcPeP6vBS88d2msjscKGb2EHAoGpu98FW/6h+fmlemvKL819a6ucuvSuYviqVl27txZGbX6Y68F/zb4pemNQJEMhaIFxerY8WOCFaYY5cNzBkPc4sT8MqhUscBI3pxPM0Ud7n49m9N7Evb2/gWjnUUtdAjkc+0JDzuksQNPjPpgpS0Ee/k5j966m75zdf88+T6DHaNWspZ8v0RmvjPToSjsUasVLYcLphMoY8VJoP5vi6snUNej4f/vmmVsoIhFeTnmqUA4hITAqBJLhiFQtLQhPNwm+OINWBUUyD8mExzzryJXVZgVZfhlsVqgtMIAHY4xxz401mFlp1YAfW2TJ1+UzmX7kse5DF/PzfcCvnc8EbPPNvjIcRYoblrRwpe1u+kL53yennt6/wLVTtSnf8nXqVtH2Zy5aquZpa/PNfyQPf+v52XaC9PU54V/v6CcUbqqL1Lj7MbT/JyZDeP1/XG3IERf9/aoV4gi35IlSwplN7uIKHTxtwg4OdX/ozoNlF74V9Ri7peOs/wYQe8VK9hYMqJl/iKzolOhqgMGiRgJwJA0pqIgMKjE9hgYGjYrMu78Z1nd9tNZBXP+DRo6uo1wbguMpWEsDBk6ZKhy33DmTIFtgE4PGxt8XHmU12k8PWI09OyZs8pI25wHPGG4fdVlqYr2d0seeDuH8uaNeDKK5E153qRFe7Wh7h2336GcKTrfC9jQwZYrNfWab7R9+/cZVcDrMxZnYFm7FtiP6OkUeIkPhPhy/wLVTvwvwn4NHCqUryAYDYUtpbME4rmGexCzc2HUgRWXMFS2i9iNJxbVaG/6cIUCv396VAsj3NpJaKDuX97lgmk/OBg1P+dQngYPGlxsVVCq0Ga9gh0Z4Nhav2+OHj2q3L0UW1CQE4T7eyXI3S9UvCWKVqFabRoB9wOYvjJ/4ULRghIAZcv8q8k8+uUPjvj4eMMXDMrRI2YIw0eM+VdZ1uksBx9HSIMXEX714x8Y057jxo5TjvS0KwW0U7+M4b8FW0DAuR7+sadNnSYLFixQzitRFuzPsLoSX1DwpPzY448h2i95aOxDqlxMv6L+48eOS0LVBFUHvgy1uHqB6mueHPEScTYg9SRfqNLAvUafW/ooJQJKLUZQsLwcChIUeoxY3Tb4Ntm1e5ehaOEZhKNReMOGEgDXI7M/mi052TmC6dd+/foZ3fn8v58bYX8Cvty/QLYTvqX0oo3JkyYLtlLRjiDh3BEjd6F4rv1h6ktef78ndJ124rlm7RqBnRS+t7BQ6bm/P6dcleC7EDsd4BhIgX+5jh07qiLxQxVTk/gxih0Z4HcQo6KeiJ4t2bJ1i/qO/8OIPxjZ9HZuRoSPAX+fl3B/r/iIxedsliha0WKjhbuAkSqtaMGOBv/IkPUb1xuKFhQbjH4FQvBLDCMargQKj/lXGVbpTXxyokNSLEuGewB48Iaovcl+c2qJ8xlvzxCz7xdsz/Lk355UI1YYJYCzvGAL7JBgqO7OWB3+ooozzA92G60uHyN6b739ltozE45T8YsYDg+LEyhWT0x4Qn3JY7RL77lpzue87ZL5mi9hX+5foNoJH0Ow6UMb8DErkxgRXbFiheqSv8+1yxW2pukTX7gFMo+/3xO6LXbiiR9XM2bOUFtS4X8IbheKs5HSHHw5Ll6yWClwUKjgggHKlVkwNQvP8MUJRp3vuvMu9TGnhSJndhpqvuZt2N/nJRLeK94y8Sc9bbT8oecir3mkauOGgq1xzGH4QcGD6Cyw2cILFOLqunN6nMOo3lNxV+bsObPV/loYFTqX7TjV4ZwH08CPTXhM+fjSbTXXjy8v/OrFsn5n8aV/2BjZnVPX7OxsNYqDvcHsKBgBhV2f804Auq8Y+Rk/Ybxyb6FtkfQ1HHGvMIJjFkyTPfX0U4VGNpEGI69zP54r01+dbs6ipsP1c5B7sfDzhucA9x2i0+kCfL1/vrRT12k+4tnBqlW0Q08L6esXcwv+B/15rlFes+aOe4fu27dPgm0rY/7fd+au+6iP5rQ6zt2xqLLsxhMjSpOemaRWSEPxhmAEHz823p31roHIFT9vv8/w/D3/wvNq82ij4N8CGGWd/OzkYr//Md0JUwD9/4bsCGNXjmeeecbIr+P1vfT2/9ZVf39raqGDrsP5glXvFcxs4HuyXdtrW8k5tyMczku069IrjH53hQMStsFTAlhBg2mZWjVrCZyWYlTpWOaxQvZUnpZXVDoM7cMZKkZuLl2+pAzhMzMzHb5YisofKdfgrsI8Col24+X20F8fKrIL+CUMj/wYpYJfK7DBx/yF7FwApn8x+oppRIy8QtkI1gINf+6fle0EI1+e60cfebTAge/VMl6Y+kJU+ndzfsYiiae2rdWmErCZgjsGCNzHwI1MIATPF/5PMdMDu630PemCH43uBCNgM2fMVJehUE19caqyOWzUuJFasLInfU9QvnPdtSfY8d7+/2EBil49qtsGhfQf//yHPg35sfhxypA3kQ0IVwJ4KcP4Ep9gC5S4aJgexMbZzsoR4ooTTDtg6sC8z2BxeWCojS8kK8Sf+2dlO8HC2+caL2jYN2rByliMoFGuEQhnnnipw2UCRpvwf6eVLNhn9e7d27iF+BESKAEP/LDRZiW+lIuZB+dtt3wpJxzzePu8XMh18Z15NS6cxBJFK5pstMLp5rItkUfgtddfE3wokUMAqxnhy0zLx/M+1kEefSBgJc+eN/WU0aNGqx8cq9esFvh0gr3doEGD1Agxmo9Nmv3x0ecDAmbxgsDTk572InVoklqiaIWma6yVBEiABIJPAKMiGAnBKAhGs7Ayl+I7ASt5YjQSH2zGjI+zwG7rgw8+cI7mOQl4RcASRSuQw65e9Y6JSYAESCDIBOAyY/SfRwe5lugp3kqeGRkZSjGGV3asStWC6WqMZL33/nsB2yFBl+3tEdtiYcEJ7DAxTUaJPAI0ho+8e8YWkwAJkAAJBJAARrUwZRhX/tp2VnZyNBtATCzKRwKWjGjRRsvHu8NsJEACJEACQScAQ3gYmDu7twl6xawgKgjQj1ZU3GZ2kgRIgARIgARIIBQELBnRoo1WKG4t6yQBEiABEiABEgg1AY5ohfoOsH4SIAESIAESIAHbErBE0YKNlrbTsi1JdowESIAESIAESIAEnAhYomg51clTEiABEiABEiABEogKArTRiorbzE6SAAmQAAmQAAmEggBHtEJBnXWSAAmQAAmQAAlEBQFLFC3aaEXFs8ROkgAJkAAJkAAJOBGwRNFyqpOnJEACJEACJEACJBAVBGijFRW3mZ0kARIgARIgARIIBQGOaIWCOuskARIgARIgARKICgKWKFq00YqKZ4mdJAESIAESIAEScCJgiaLlVCdPSYAESIAESIAESCAqCNBGKypuMztJAiRAAiRAAiQQCgIc0QoFddZJAiRAAiRAAiQQFQQsUbRooxUVzxI7SQIkQAIkQAIk4ETAEkXLqU6ekgAJkAAJkAAJkEBUEKCNVlTcZnaSBEiABEiABEggFAQ4ohUK6qyTBEiABEiABEggKghYomjRRisqniV2kgRIgARIgARIwImAJYqWU508JQESIAESIAESIIGoIEAbrai4zewkCZAACZAACZBAKAhwRCsU1FknCZAACZAACZBAVBCwRNGijVZUPEvsJAmQAAmQAAmQgBMBSxQtpzp5SgIkQAIkQAIkQAJRQYA2WlFxm9lJEiABEiABEiCBUBDgiFYoqLNOEiABEiABEiCBqCBgiaJFG62oeJbYSRIgARIgARIgAScClihaTnXylARIgARIgARIgASiggBttKLiNrOTJEACJEACJEACoSDAEa1QUGedJEACJEACJEACUUHAEkWLNlpR8SyxkyRAAiRAAiRAAk4ELJk6dKqTpyQQNQRKliwpFStWlEqVKknZsmVl/779ciH3QtT0nx0lARIggWgnYImideTIkWjnzP5HGYESJUrIvffcK3369JG42Dij9zPeniE/LP3BOGeABEiABEjA3gQsUbTsjTB6egflYcpzU6RMTBnZsmWLzHpvls+dT0pKkgf/90GVf/HixfLTzz/5XFY4ZuzRvYcMHTK0UNMuXbpUKI4RJEACJEAC9iVgiaIFGy0IR7Yi+0GCotWgQQPViTNZZ/zqTHyleGnSuIkqY9u2bcWWVb58ebm5580qXWpqqhzIOFBsnlAm6NChg1H90h+Xyuf//VyysrLk4sWLRjwDJEACJEAC9idgiaJlf4zsYbAJ1K1bV34/4veqmvkx88Ne0aqaUNVA8uHsDyUnJ8c4Z4AESIAESCB6CFiiaHEkK3oeKE97euToEfli0Rcq+cZNGz3NFjHp4uKu2WVhBItKVsTcNjaUBEiABAJOwBJFK+CtjqACS5cuLZcvX/a7xaVKlZL8/Hy5cuVKkWVhlRvS/Prrr0Wmc3XRn7ze9vPs2bMye85sV80IWpy3bQxEQ/Ly8wJRDMsgARIgARKIUAKWKFrRZqOVmJgow+8dLk2bNJUqVarI8ePHZceOHfLt4m9lyG1D1KOybNkySVmf4vDYQJl6+K8PS+lSpWXrtq3KQLx3r97Srm07adiwoeTl5cnBgwdl0ZeLZMXKFSpvvbr1pFOnTtKmTRtJSkySChUqKIXs0OFDkpGRIV9/87WkpaU51AOFA/WUKllKNm/ZrOyGunfrbtSxd+9eVff3P3zvkM/5pEXzFtK3b1/BEe4LTpw4ofqEqTJXyiUMxDt27OhcjCxfvlzWpawrFD/s7mHSqGEjFV+1asFUXL++/RRbc4aFny1UjM1xCHfr2k26desm4IR7gdGlffv3yY/LfpSffrKXAb5z33lOAiRAAiQQegKWKFqh76Z1LYBC9PhjjyvfSbrWatWqCT49evTQUUphcla0oAB1uP6aETWUrq43dhXYJmnB9fr168vtt99uKFojR46Uxo0a6yTqiJGpOrXrqE/nTp3l/Q/el+8Wf2ekiYmJkevbX6/OoaCZBXmbNWumPrWTa8us92eZLxvhxo0by+MTHheUpQXKUP9+/QXHqdOm6mjj2LRpU+nUsZNxrgOHDx92qWi1aNFCmjVtppMZRyh1zu1etXqVg6IFn1WjRo5SSpaR8WoAU3otW7RUn1YtW8mbb71Z7CihOb8nYTCsFF/Jk6RMQwIkQAIkYHMCliha0WKjhVV5Y0aNMZQsTI+t/GWl4MV7U4+bHJSS4p4rKBla9uzZI5mZmerl3bxZcx3tcMSKts2bN0vmsUylOLRu1VopS1DYHrj/AcHKvoOHDjrkMZ9g1Gvb9m1St05dadu2rbo0YMAAWbturRpdM6dFuEyZMioqPT1ddu7cKfXq1RPdZiiLUPScVwZu3Fhgi1U9qbq0atXKuViH86VLlxqjccm1kqVdu3bq+oEDByR1c6pD2t1pux3Oh901zFCyMJW6Zs0ayTiYIdWrV1ejXLhXPW/qKdu3b1ejWw6Z/TzBaspyZcupUrLPZftZGrOTAAmQAAlEMgFLFK1IBuRN29u3ay916tRRWaBkPf3M00pBQgSm+iY9NUmuu87zXY8wzfX6G6/Lhg0bjGag/Ab1r7lYQCSUka++/kopErDh0rJg4QIZ9adRckvvW1QURtM+mvuRvuxwxMjaSy+/pKYcceGP//NHGdB/gEqDqU5MY7qSn1f8LG/85w1lDwbFZfwj40W7NYDS5axoYXpQTxFiWrU4RWvZ8mVGtS1btjQUrdVrVgv6505q1qgp/fv3V5dhq4bRtQ0bCximpKTIXx76i7p+3/D71DSpmZ27cj2Jx0jarQNvNZJitI5CAiRAAiQQvQQsUbSixUZLj7jgccJUHUahtMBGa1PqJoEy5qnMmz/PQclCPozm4KOlKC/jcASqFa3Eaok6S6Ej6jErGlBi+vbpq0biWrdurY7m6ygA53M+mmMY3WPUCP6itKIFe6hQSffu3VWbUT9s1MxKFuIwzXj3kbsFChm2x6lVq5YDU6TxRjA6N3bsWLXFDuzkMMULgbI9/5P53hTFtCRAAiRAAjYjYImiZTNmbrsDOywt69ev10HjiBe+p4oW3AIUZ4yuC0a9/fv2l1rJtSQhIcHY8kVP7yGdOazz4Xjy5EnZv3+/OUrOnTsnu3fvVlOPGIGrXLmyMnQ3J0K+U6dOmaMc0pQpfW1q0SGBRSc1ql9zkIvqBt06SDre8JsBfomCBpgVT38Vrfj4eMNoX9cAD/Cvvf6a7Nm7R0fxSAIkQAIkEIUELFG0osVGy+yk8tRpRyUEz9aF855vJnz8xHG1yrC4ZxLTVCPuG2GM4LhLjxWLruT06dOuouXM2QLP7+gXVhSaxVnJwrWLlwq8nseULTCSN+ezIqxHUHVdWAValJSPK1/U5WKvwfYNo4Kx5WKVctqoUSOl2D458Ul5+ZWXBVOdFBIgARIggegkYImiFS1oYadUlHhjn3XqZGFFzbls2DnBW7ouV6/eg/IE9wqYFoOLBAj2J3Ql7vw8aWNu5NFTYeb8zlOJ5muhDpvb++lnnxYaeXNu36ZNm5yjvDrPzs6WhZ8uVHnwDPx5zJ+VoT0iBg4YSEXLK5pMTAIkQAL2ImCJoqVHGOw+soVRn+TkZPWEYC8/rAQ0i7vpO3MaHc7/tcCwXcc5H2EPpZWsJd8vkZnvzHRIgtVvWtFyuGA6gTJWnLgb9SouX6iuY+UlpgMhWOm4c9dOy5oCW7UlS5YYilZxo2mWNYwVkQAJkAAJhISA50vgQtK8yKoU031azIbxOs7Z95OO9/VYu3ZtIyte7s6i3S04x5vPYbwNv1RmgTsK+OvSYu6XjrP8aHKIbx5tc9UOs0IPf19WS1p6mjKER72hnEK1ut+sjwRIgARIoDABSxQtvPjML7/CzbBHzJYtW4yOwHs5jKS1wDO5dhKq4/w95l0usLuCk1GzQHkaPGiwOcplGEoVVhiaBY5S4WEecvToUeU53nw9FOHTWQW2ZA0aFri3cNUW+AzTMnTI0EKKpL4Gx6rO3PQ1f44Y1Tp//rw/RTAvCZAACZCATQhYMnVoE1bFdmPN2jUCO6maNWuq7V6e+/tzyuUBlBl4TMcxkAI/VXpLGygUmJqEG4mkpCSBf6jy5T0z8r7zjjtVs7Zs3aL8gP1hxB+MZmK7n0AIlE7tYwzl6a11EEa8ebQv63RWIR9cWOUIuzAwxJY/48aOUw5atUKzY+cOYxQJfsGwtRCctkJhnDZ1mixYsEDgXBWC+4Nti6D4Ykujxx5/TMUH4w+2OaKQAAmQAAlELwFL3gLRYqOFkYwZM2fIhPETJDY2Vm27U5yNlD+P3uIli5UCB4UKLhigXJkFKw3hGb44gQH3XXfepT7mtFDkzE5Dzde8DWOE747b73CZDQqPebQPLhEmPjnRIS3cXcA3GYzLIWoPw6v7GGqZ8fYMMfsUe/f/3pUn//ak2g6oQvkKygmrTmvFUSuA2KIIz4I+t6Ju1kECJEACJBA+BCyZOgyf7ga/JRhRmvTMJMFKtpzzOapCOK6Ek8x3Z71rNCA3N9cI6wC8mOvNmKFYFCcwtn/+hefV5tHOaeFyYPKzk4stD9OdqampDvv9QWGE9/RnnnnGyI/yEa/blXuxcPvRdqSB6HTq5OofV/3V15yPznn19dlzZqt9G7Hp9bnsczpaHZ3zYKr6sQmPKV9kmqk5A9q5fcd25VXfHB+o8ImTBe4wsME4HLgGekQzUG1lOSRAAiRAAsEjUKJdl14mM+PgVRSNJWOkCFNXULQgsJmCOwbIy9Ov+ldaHRj/Slh5iD38MHIIu630PekClwPuBCNgM2dcW6EIhWrqi1MFoz6NGjdSvrv2pO8xlER3ZURSPPhg9V+tmldXIl71wAEfYMcyjwW1j71u7iVjRo8phAlOTLEdE4UESIAESCA6CBQ/rxQdHALWS7zU4TIBo00YNdFKFkYzevfubdQTyMUBGAmDbZg/++phhMi8p6LRUBsEwAdG/fhYJT8u+1Ft0N2rVy+HzcQxlUghARIgARKIHgKWKFrRYqOFx6bnTT1l9KjRgik5eASHTyd4Hh80aJDaWw9psEmzeb9CxFHsRQBK9qz3Z8lHH3+k7OfgVw2uHtLS0uzVUfaGBEiABEigSAKWKFpFtsBmFzFdiA82Y8bHWWC39cEHHzhH89ymBGA7ZvVomk1RslskQAIkEJEELFG0AjlNFu6UMzIylGsBeGU3TxNho2aMZL33/nsSak/r+Xn5ysgdKxIv5Hq+/2K4s2f7SIAESIAESCDcCNAYPkh3BKNamDKMKx8nOTk5AkWLQgIkQAIkQAIkEF0ELBnRiiYbLf34wEYHBubObgj0dR5JgARIgARIgATsT4B+tOx/j9lDEiABEiABEiCBEBGwZEQrmmy0QnQfWS0JkAAJkAAJkEAYEuCIVhjeFDaJBEiABEiABEjAHgQsUbRgo6XttOyBzbEXdu+fY295RgIkQAIkQAIk4CkBS6YOPW0M03lHACsbpzw3RcrElFEOUme9N8u7Apg6IATgxuOvf/mrlCpZSvLz8wXb7Oh9Lu//4/2Go9r5C+bLrl27iqwTOwjoPRHNe0cWlQn1N2zYUOAB/+TJk3L8+PGikvt9za71gXtycrJUq1pNOZnFrg4wezh85LDamsoZXCDvu3PZPCcBErAPAUsULbvbaIWqf1C0GjRooJ7GM1lnIuKpxD6LN/e8WbUVm1kfyDgQEe0uqpHlypWT9u3aG0li42INRatN6zbGaO7PK352q2hVrlxZ7YXZ55Y+hv+1D+d8KIsWLTLKdQ7ExsbKQ2MfUo5xtXKGNNjL8Z1335GU9SnOWfw6t2t9VatWVey7de2m9iZ1hnTixAmZ89EcWfnLSodLgbjvDgXyhARIwJYELJk6tCU5dsonAnXr1lUba2Nz7Y4dO/pUhp0yJSUlyag/jZJXX3lVBt06yFCy0Mcypcu47WpcXJw8NfEpadeunTECphNXqVJFHnn4EencqbOO8vto5/patmgpA/oPcKlkARwUsYfGPSQDBwz0myMLIAESiD4CloxoafusUI38BPu22r1/weYXzeVPfGKiQNnyVobcNsQYzcQ2Px/P+1guXLggPbr3kBYtWijla/To0bJ+w3q1C4C35Tunt3t96C98361dt1a2bdsmmZmZUqlSJfnd734n1ZOqKxwj7huhNl4/mmnd5uTO94HnJEACkUfAEkUr8rBEfotLly7t1QsW05AQvGy8lTJlysilS5e8zcb0JgKwx/px2Y+Kf7++/UxXCgevu+46pVDpK2/PfFswLQnZsHGDvPnGmyocFxsnnTp2khUrV6hzX//YvT5sm/Xd4u/kq6+/UvtSmjlB8Xpx6osSHx8v2LIKSiwVLTMhhkmABIojYImiZdeRLA03XPrXonkL6du3r+CIX+OwLYGdzoezP3SpdEEZu/OOO6Vly5ZSp3YdlQbbBe0/sF8+/exT2bt3r+6iwxEv8IEDB8qNXW5U0yowCoaikJWVJTt27JDF3y92sEUadvcwadSwkSoD0zBaoFA0bdJUn6rjws8WqjIcIm18knEwQ1JSUuSLL79Qe2AOHjy42N62atVKMD0IgfG7VrJw/ruhv8PBkJ439fRb0bJ7fXv27hF8XAn+H1avWS39+/VXl2vXru0qGeNIgARIwC0BSxQtt7XzQsAING7cWB6f8LiDjQ+UGrwgcJw6bapDXXhRTxg/QerVq2fEQ2GCsTqmsmDc/e7/vStLf1xqXEcAaf7+979Lcq1kh3gobdWqVVMfGE1PfbGgPowCNGvazCE9TqAMtmnTxiF+1epVUaVoTXtxmkP/PTmBUqwldXOqDqqVh1oh0JF16hSk1XHeHu1eX3E88MxrOX/+vA7ySAIkQAIeEbBE0bK7DVM49A/Td5D09HTZuXOnUqCg4EA6XN9BjViZV/gNv3e4oWTl5eWpURFMETWo30AtcYfi9MD9D8im1E1qFZsq6OofGARrJQs2QXjR79+/XylgTZo0kebNmkuJ665NQ+o8S5culbS0NHWKvDDghhw4cEDlVye//dmdttt86nW4caPGMvmZyV7lW7NmjUx/bbpXecyJ8/PylWsF8MPUK3hqwUiflkuXAzO9CgVVy95910YdseoQRvWYAkb9mOaCVKhQQcX5MiWs67B7fbqfro7gqv+PcH3nrp1GMqvvu1ExAyRAAhFFwBJFK6KIRHBjMYX0xn/eUC99vHDHPzJeOnTooHqEl4VWtKAYYik7BL6X/v3Cv5UfLpzj1/vfHv+bNGvWTKBsYSoKI1taGjZoqIMyb/48+fqbr41zBDCCopU+fWHZ8mU6qKYptaKFKZkFCxcY1wIRKFu2bKFVeMWVixE4fwQbh//xgT8aCo3ZXm3iUxON9pjj/akvvlK8kR1TWxAowPXq1lPhhZ8uVCOZUJCgKGCU8ty5c+olt4wGAAAh2klEQVSaL3/sXl9RTDC1nlgtUSWBXy2zHzSr73tR7eQ1EiCB8CVgiaIVLjZMwboN4dA/OMqErx8oThCMYGDaTyta2qYH11q1bCUYfYFs3LTRULJwjhVs8z6ZJ5OemoTTQlN78B2kxdU0CkapQilHjh6R73/43qsm6NE2rzI5JXanRGF0yTzC5ZTNp9OKlSoa+c7nnFdTw3ffdbeKO3jwoHz+38+le/fuamoWkVC4/FG07F6fAdMp0KhRIwebtxlvz5Dc3FyHVFbed4eKeUICJBAxBCxRtCKGRgQ3FEbRcFRpFhjDazH7ZDIbpK9du1YnMY5Y3g7P5jB6T6iSYIzUIAEUGRhHQzC1iOnCLVu2qCkV5/pVIov/oM9YhRctgpHLkfePVCORUK7fmvGW8k4v3i8e9QiZ3evTEPA/8ujDjxo/SDAquy5lnb7MIwmQAAl4TMASRSscbJg8JuJDwnDonysl5+Kli0ZvYsoWGPSaFa1Tpx2VM53h9OnTStHC9CFGRLCiEIIl8Df1uEm92DHNeEvvW9QH17By65NPPlG+m3BOCQ6BM2cKdgHo06ePtG9/zSs9XBRoGzfzdKg5vS8tMue3Y33OTGDXNvFvE9U2PLiG6UJ42qeQAAmQgC8ELFG0fGkY83hHAFOHngqUJy3u8sHQV4s5PaZJn5j4hNwz7B5p27atlCtbMJUIQ/oJj02Q1atXy8vTX9bZLT3iJam3+PG0YrhY2Lhxo6fJQ57OrPhc3/561R6MaM6dO9doGzy5Q3B/s7OzjXhfAnavz8wEzzNsFGvWqKmiDx46KM9PfZ5+4syQGCYBEvCKgCWKVjjYMHlFxcvEkda/UycLRrEqVSxYwWbutl5phukojG6ZBf19ZforamVbvavuIbp07qIcaOo8nTt3VkbxobDXgkE4PHh7I5s2bYpYRUv3EyMuF3IvqFOs7NTKMQy4Xa04xB6Z2sgbmZAXHFyJWdHS1+1Un+4TFnE89thjhsd9bM79z3/9U/SCA52ORxIgARLwhoAlipY3DWLa4BM4fuK4UUnTpk0LObTEliNaaYKS5c6YG/EwJMcHW8C8NO0l5UcLhdeqVUu5bzAq0gGT7ZB5NExf9veY/2vBSJynZfmSx9Oyg5EODmXN8ssvvzhM15p9k+mVpub0CI8YPkKtANXxGPka8QfXCqrd6wMDrM58+C8PK2e/OMdU+ZR/Tilk94hrFBIgARLwhoAlilY42DB5A8XbtJHWv3379xldxN54nyz4RDDyoeXWgbcqA3icO79k0dezZ84qY3mdHkf4i4IB/VWXpSra3Wqs01kFo2MNGjYwFxGQ8Pbt22XsQ2O9KivSRiyw+AA2eXolKRYoaIFtVr9+BVv4LFtW4FpDp/H2aPf6YOD/4P8+aNi6Yap1yr+mcKsdbx8UpicBEnBJwBJFy2XNjAwZga1btyrHpg0bNhS4a3h28rMy+6PZkpOdI5j2M7+o4SrALA+NfUhq1qwpv6z6RW3vc/zYcUmomiCwFdJ+nJDe3fY9sCXC6IlyBHl1q6BxY8fJ5s2bRbuK2LFzh4PSZ67bkzCmycyrLT3JE8o08Pt177B7jdVt8F+mpeuNXUX7sMKo29yP5yr3G+jj8p+WG64Hbht8m7F9UpcuXYxNkKH4Yq8+f8Xu9cEHGVhrOXb8mLjbbxKjt2a/cDoPjyRAAiTgjoAlilak2TC5g+UuPhL7B8XqiQlPKOei1atXV0vZnfvnbjscrDaEwbk7o/Nvv/vW7ZQL/HRhdRxebhA4TtXOU3EOX0U/LP0BwaiQihUryoABA1z2NTk5WXnp1xe//OpLpWjh/IsvvlBuNrCHJOyxsDjBLJjWffOtN5UCZo73NWzn+rCAwixY1IGPK8GKXSparsgwjgRIwB2Ba14r3V1lfFgTwEgDFBdI7kVHR4qIw3Qe0kB0OnVy9Q98ZT319FOGt3gdjyOm/TB6Mv3V6eZoFV6/Yb0cO3asUDwiMOUCb/Hvf/C+y+s6cvac2SoNRr3gXdsszu00X7NjGPdIO5ktqn8YBTRv54PRqilTpijbLGcbOozovfjSi+LKR5quw/l5KY67nesrru+aGY7epDXnY5gESCB6CZRo16WXyTw5OCAizYbJWwqR3j/8oq9bt66aRjx8+LBghK64lz/sg7BqDUbz2MMPK7QyMzMdlAFvOTK9bwQwooVp4ArlK0j6nnS3o4m+lV44l93rK9xjxpAACZCA7wSoaPnOzsgZ6YqW0REGSIAESIAESIAEAkqANloBwBmJNloB6DaLIAESIAESIAESKIYAbbSKAcTLJEACJEACJEACJOArAUsULUyt6ek1Xxsazvns3r9wZs+2kQAJkAAJkEA4E7BE0QpnAGwbCZAACZAACZAACQSLAG20AkCWNloBgMgiSIAESIAESMCGBDiiZcObyi6RAAmQAAmQAAmEBwFLFC272zDZvX/h8aiyFSRAAiRAAiQQeQQsUbQiDwtbTAIkQAIkQAIkQAL+E6CNlv8MlSf1ABTDIkiABEiABEiABGxGwBJFy2bM2B0ScEugXLlyklwrWWrWrCl5+XmyZ88eOXr0qLHnpNuMv10oWbKk4AMx71X522WXB2zyjS14sG3SyZMn1XZILhOaIv1tp6koBkmABEiABIogYImipX1o2XV1nt37V8Tz4/Wl8uXLy809b1b5UlNTXW5q7XWhYZChRIkSctvg2+Tuu+4W7AVolpycHHnzrTdl7bq15miHcOXKlWXwoMHS55Y+AsUJ8uGcD2XRokUO6cwnsbGx8tDYh6R169aGcobrp06dknfefUdS1qeYk6uwv+0sVCAjSIAESIAEiiRQsnpy/clFpgjARWxaDMnOzg5AaeFXhN37F0jijRs3lnEPjpM2bdpI1pks2b59eyCLD1lZD9z/gPxu6O8cFB7dmDJlysiNXW5UCtC+fft0tDomJSXJfcPvkz+P+bM0a9ZMSpUq+O2zY8cO2b7DNZ+4uDh5auJT0rx5c7nuOkdTS4xWdencRQ4dOqQ+5gp9bae5DIZJgARIgAQ8J1Dwre55Hq9T2nUkS4Owe/90P3l0TaBO7TpqJEpfXbZ8mXzz7TdS8rqSMnTIUOnYsaNgJOkPv/+DrFi5Qi5duqSTysQnJgqULW9lyG1DpEGDBirbxYsX5eN5H8uFCxekR/ce0qJFC6XwjR49WtZvWK+mIJHQn3Z62z6mJwESIAESuEbA8acwqdiCAGx8nEc5iusYFAF8/BWMyASiHH/bYWX+rl27Grw3pW6S/7z5H9m7d6+kpafJS6+8JBiZgmCqD0qXK4E91uIli+W7xd+5uuwQh3sLhUrL2zPflq++/kqW/rhUXn39VR0tcbFx0qljJ+M8EO00CmOABEiABEjAIwKWjGjZ3YYpVP2DLdDDf31YSpUsJZu3bBaMbHTv1l0ZRufl5amX/U8//yTf//C9y4cB+e+8405p2bKlGu3Ayx72RPsP7JdPP/tU5XeVEcoU6i1dqrRs3bZVUEfvXr2lXdt2Rt0HDx6URV8uUiM4w+4eJo0aNlJFVa1a1SiyX99+0rRJU+McgYWfLTQUE4cLYXxSvXp1o3U//PCDEUbgypUrSgnCtCCke9fusmLFChXGn4yDGZKSkiJffPmFnD59WgYPHmxccxdo1aqVVKlSRV2G8fvPK342kmL60iw9b+qp7gHi/GmnuUyGSYAESIAEPCdgiaLleXOY0hsCMJq+vv31KgtsnsyCUS283PGpnVxbZr0/y3xZvagnjJ8g9erVM+JRHozVMZXVvl17eff/3lWjJEaC3wJQ0Dpc30GdQenqemNXqVu3rpEM1+vXry+33367esljKqtZ02uKhpHoaqBSpUrKVssct2r1qohTtBKrJRpdOH7iuBHWgSNHj+igJFV3nCac9uI045qnAUwBakndnKqDSsnt36+/cY5AnToFaf1pp0OhPCEBEiABEvCYgCWKlt1tmMKpf2lpabJt+zapW6eutG3bVj0IAwYMUCveMPqkZfi9ww0lC6NfGBXBlFSD+g0kOTlZrZyD4TSmwrCKzZ1AidICVwaZmZlSKb6SNG/WXEfL0qVLBe2CwPVBu3btVPjAgQNiVhQQuTttt7rm65/GjRrL5Gcme5V9zZo1Mv216V7lMSc221yZjdl1GiieWipVrKSDPh+hoGrZu2+vCkKxHvWnUWraFvdTtwMLNTCVi5E1q9up28gjCZAACUQzAUsUrWgGbGXfsZz/pZdfkvz8fFXtH//njzKg/wAVhvG0VrQw1dmtazcVD99L/37h37JlyxZ1jlGtvz3+NzUSBgUBU1EY2SpKMN34+huvy4YNG4xkGEmB0gaBcbgWTFNqRWv1mtWyYOECfSkgx7Jly7pc+VdU4bCd8kcyj2UqXiijXt16smvXLofimjRpYpxjtSCUIn2PjAteBOIrxRupwR4ycMBAVTfCCz9dKBjZgkKGujBKee7cObG6nWgLhQRIgASinYAlilaobJisurnh0r958+c5vMChxPTt01e9bLWvJbzgW7VsZRhvb9y00VCywAt2XvM+mSeTnpqk8DlPSbpiinrNShbSYLQKH6sF03TubNLctUWPtrm7Xlw87NG03HrrrcoGK+f8NQUoPj5ehgweoi+rI0aZsrKyHOK8OalYqaKR/HzOeYHdG/x3QdCWz//7uXTv3l0pWoiDwgVFy+p2om4KCZAACUQ7AUsUrWiHbEX/YRS9f/9+h6rwct29e7cabcG0IJxinjhxQr2YdcK1aws70dy2bZtAUcCqtYQqCcbUk85jPkIx81axMecPdBj9wyo8K+WHpT8oNw4YOaqeVF3+9c9/KWehmLKDPysoW2bBNF6gBHWMvH+kcnKKct+a8dY1ZdtFFaFsZ6D6y3JIgARIINIIWOLeATZM4WTHFOibFA79w4o1V3Lm7BkjumrCtRV/5pV/p067tr/S5WH60GwTZBT2WwDG37AJimbB9N37H7xvjCYmJiaqqTxM20LJMvPBiOLZs2f9wnXmTME97dOnj7Rv316VB9cQ2sbNPB2q01vdTr86ycwkQAIkYBMCHNGyyY3EvnqupFzZcka0NsrWR1xwZyuUn3fNzgtpzOlxbpZTJ10rauY0VoYxLae3+PG0XrhY2Lhxo6fJXaZb/tNyNTU3fPjVRQZX7bTQDoz2YWHCd999J//vz/9PKlasqFw4+DuipRUnNESvOsWI5ty5c422wRYMgvtr3pHBynYajWGABEiABKKYgCWKVrjYMAXrPodD//ASL070KJVZOXK3Ck6PYkEp0PlclZ//a4FC5uq61XFQckbcN8Krajdt2uS3ooUK9+zdI1P+OUXVjWnE3NxcNZoF1xf6/pw8ddKrtrlKbFa09HXsbXgh94I6xcpOrRxj9MxZsbOqnbptPJIACZBANBOwZOowmgFb1fekxKRCU3xYcQZ/Vlq0jyd9RHzTpo4OQxEHOyOtaEHJMk994bpfYrIdMo+2+VWmKbMvip8veUxVugxiFElzw4IELc4rEnW8N0c4lDXLL7/8orba0XHmBQwHMopekBDMdur28EgCJEAC0UzAkhEtO9tn4eEJh/5BqcIL/ZMFnxjPMxyJYgoLcvToUTWVhfC+/ftwUIKtXJDHbDd068BbjW10nF/qOp+vx9NZBbZkDRo28LUYt/mwSfXYh8a6ve7qgnaR4Oqap3FYbIB7AO/6ZunWrZsxlYlpPOyB6K/AFQd8m2nv8GaHqLDN6tevn1HFsmUFrjUQaWU7jUYwQAIkQAJRTMASRSuK+VradWynA9mydYvyCP6HEX8w6sd2OFq2bt0q6enpypN4uXLl5NnJz8rsj2ZLTnaOdO7c2eFFDVcBgRTYEkHhgFLSonkLGTd2nGzevFnOnz+vqtmxc4eD0udt3Zgmw8pDq+WuO++Svn37yk/Lf1JbGMWUjZGmjZsK9hfUez+uWrVK0H+zwO/XvcPuNdxt6K16kAaKsvaZhVG3uR/PVcoy+ghbK73dzm2Db1MKHhTGLl26qBFJ5MfK0bXrHFeV+tpOlEchARIgARLwnoAlilY42DB5j8bzHOHSP7zQ8SLFxyyYPjI7DcU1KFZPTHhCypQpo/bAe/ThR81ZVDgY2+HAQByr4+BgEwLHqdp5Ks5nvD1D4IYg0gSe2CuUryDwo+VKtu/YLrPem1XoEmy34LnflcBDPz5avvzqS2NU8osvvhDseYg9JGGPdc+we3QydcS05ZtvvVlohM3XdjoUzhMSIAESIAGPCdBGy2NU4Z0Q00mpqakOhs8Y+cCGxc8880yhFy58ZT319FPiyoYHW7Vg9GT6q9Nddhre5PUUGRQnb2X2nNnKHcLevXvlXPY5h+y+lOdQQIhOsBWOdlJqbgL6h1WH/5jyj0J9RTpwBM/iBKOAmjnSoq4pU6Yo2yxtC6bLwIjeiy+9KK58pPnaTl02jyRAAiRAAt4RKNGuSy+TebJ3mZk6tASwsm3mjJmqEVCopr44VY2qNGrcSBli70nf4/Ll79xq2HFhZRymEQ8fPqxszjx5+TuXE+3nmA6tXbu2VKlcRU0FwjP+sePHgo4FI1oNGzZU9z59T3qRe1OiMaFqZ9BBsAISIAESCEMClkwdhmG/bdskjKA4b4dTXGfhQV7vdVhcWl53TwCjTvv27VMf96kCfwUjXTt27PC44FC10+MGMiEJkAAJ2IiAJVOHsGHSdkw2Ymd0xe79MzrKAAmQAAmQAAmQgFcELFG0vGoRE5MACZAACZAACZCATQhYMnUYDn6mgnm/QtU/bJODaSOsJNNewYPZT5ZNAiRAAiRAAiTgHQEaw3vHi6lJgARIgARIgARIwGMClkwd0obJ4/vBhCRAAiRAAiRAAjYiYImiZSNe7AoJkAAJkAAJkAAJeEyANloeo2JCEiABEiABEiABEvCOgCWKlndNiuzUiYmJymEl/FmdPXPWpTfwyO4hW08CJEACJEACJOApAUsULe1DK1Sr8zyFEYh0o/40Slq3am0UlZGRobazSVmfYsQxQAIkQAIkQAIkEB0EaKMV4PuMfQLNgi1Zxj44VrB5MIUESIAESIAESCC6CNC9Q4DvN/aRiy0XKzVq1pAxo8ZIrVq1VA2vTH9FVq1eFeDaWBwJkAAJkAAJkEA4E+CIVoDvDvaRg33Wrl275JtvvzFKr1q1qhFmgARIgARIgARIIDoIWKJoRasfrZMnTxpPUWxsrBFmgARIgARIgARIIDoIWKJoRQfKwr3My88rHMkYEiABEiABEiCBqCFgyarDaFhtGDVPDDtKAiRAAiRAAiTgMQGOaHmMyr+ECQkJ/hXA3CRAAiRAAiRAAhFHwBJFK1pttLLPZRsPRNs2bY0wAyRAAiRAAiRAAtFBwBJFKzpQFu5l5rFMycu7ZqcVHx8vvW7uVTgRY0iABEiABEiABGxLgH60gnxrh9w2RO4Zdo/AvxYErh9OHD8hRzOPyvRXpwe5dhZPAiRAAiRAAiQQSgKWGMOHsoOhrvvLr76UuLg4GTpkqGpKhfIVBB+McFFIgARIgARIgATsTcASRSua9jp0flzGjR0nXTp3UdFwZrp23Vo5dOiQmH1sOefhOQmQAAmQAAmQgD0IWKJo2QOV972oXLmyoWQh97QXp8mGjRu8L4g5SIAESIAESIAEIpKAJYpWtPrRSqyWaDwUJ06coJJl0GCABEiABEiABKKDAFcdBvE+x5SNMUpPWZ9ihBkgARIgARIgARKIDgKWKFrR6kfL/Ajl5OSYTxkmARIgARIgARKIAgKWKFpRwNFlF0uVtGRm1mXdjCQBEiABEiABEgg9AUs0gWi10YIxvJbz58/rII8kQAIkQAIkQAJRQsASRStKWBrdjImJEUyX9u/X34ijOwcDBQMkQAIkQAIkEDUELFG0osmP1vhHx8sNHW5weIByc3Nl+47tDnE8IQESIAESIAESsD8BSxQt+2Ms6CFGs8ySmZkpc+bOkaysLHM0wyRAAiRAAiRAAlFAgHsdBvgmJ9dKloSEBLWn4dmzZ5UH+CtXrgS4FhZHAiRAAiRAAiQQCQQ4ohXgu3Tw0EHBh0ICJEACJEACJEAClrh3oB8tPmgkQAIkQAIkQALRSMASRSsawbLPJEACJEACJEACJGDJ1GG0+tHi40UCJEACJEACJBDdBDiiFd33n70nARIgARIgARIIIgFLFC3aaAXxDrJoEiABEiABEiCBsCVgydRhKHufmJgoVSpXueZu4cxZdQxle1g3CZAACZAACZBA9BCwRNEKpY3WqD+NktatWht3NCMjQ+Z+PFdS1qcYcQyQAAmQAAmQAAmQQDAIWDJ1GIyGe1rmpUuXHJLWrl1bxj44VipWrOgQzxMSIAESIAESIAESCDSBktWT608OdKHO5cFGq0KFCpKdne18Kejnq1evlm+++UbWpayTJo2bKAWrdOnSkp6eTseiQafPCkiABEiABEggugnYfkQrPz9f2WXt2rVLvvn2G+NuV61a1QgzQAIkQAIkQAIkQALBIGB7Gy0ztJMnTxqnsbGxRpgBEiABEiABEiABEggGAduPaJmh5eXnmU8ZJgESIAESIAESIIGgErBE0aIfraDeQxZOAiRAAiRAAiQQpgQsUbTCse8JCQnh2Cy2iQRIgARIgARIwEYEospGK/tcwarHtm3a2ug2siskQAIkQAIkQALhSCCqRrQyj2VKXt41O634+HjpdXOvcLwnbBMJkAAJkAAJkIBNCJRo16XXlWD3BTZakFB6iNd9HHLbELln2D1SsmRJFXUu+5ycOH5CjmYelemvTtfJeCQBEiABEiABEiABvwlYMnXodysDWMCXX30pcXFxMnTIUFVqhfIVBB+McFFIgARIgARIgARIIJAELFG0wmEkS0MbN3acdOncRZ3CmenadWvl0KFDYvaxpdPySAIkQAIkQAIkQAL+ELBE0fKngYHMW7lyZUPJQrnTXpwmGzZuCGQVLIsESIAESIAESIAEDAKWGMOHix+txGqJRsdPnDhBJcugwQAJkAAJkAAJkEAwCFiiaAWj4b6UGVM2xsiWsj7FCDNAAiRAAiRAAiRAAsEgYMnUYTjZaGmIOTk5OsgjCZAACZAACZAACQSFQFSNaJUqaYleGZQbxUJJgARIgARIgAQij4AlmocvfrRWT0hyoNn5hUyHc19OYAyv5fz58zrIIwmQAAmQAAmQAAkEhYAlilZQWu5FoTExMQJlr3+//kYuunMwUDBAAiRAAiRAAiQQJAKWKFqhtNEa/+h4uaHDDQ74cnNzZfuO7Q5xPCEBEiABEiABEiCBQBOwRNEKdKO9KQ+jWWbJzMyUOXPnSFZWljmaYRIgARIgARIgARIIOAFLFC1fbLQC1dP33ntPEhISBHsanj17VnmAv3Il6Ns7Bqr5LIcESIAESIAESCCCCViiaIWSz8FDBwUfCgmQAAmQAAmQAAlYTcASRSuUNlpWA2V9JEACJEACJEACJKAJRJUfLd1pHkmABEiABEiABEjACgKlatdr6Fc9GfvS/crPzCRAAiRAAiRAAiRgVwIc0bLrnWW/SIAESIAESIAEQk6AilbIbwEbQAIkQAIkQAIkYFcClhjDm+ElJiZKlcpVrrlbOHNWHc3XGSYBEiABEiABEiABuxCwXNEa9adR0rpVa4NfRkaGzP14rqSsTzHiGCABEiABEiABEiABOxCwfOrw0qVLDtxq164tYx8cKxUrVnSI5wkJkAAJkAAJkAAJRDoBy0e0Xnr5JYktFys1ataQMaPGSK1ataRcuXLSonkLWbV6VaTzZPtJgARIgARIgARIwCBg+YhWfn6+ssvatWuXfPPtN0ZDqlataoQZIAESIAESIAESIAE7ELBc0TJDO3nypHEaGxtrhBkgARIgARIgARIgATsQCKmilZefZweG7AMJkAAJkAAJkAAJuCQQUkXLZYsYSQIkQAIkQAIkQAI2IRA2ilZCQoJNkLIbJEACJEACJEACJHCNQEgVrexz2cZ9aNumrRFmgARIgARIgARIgATsQCCkilbmsUzJy7tmpxUfHy+9bu5lB6bsAwmQAAmQAAmQAAkoAiWbtrp+sj8szmad9jn75cuXlaLVokULue666+SGDjdI//79pWuXrlL/oqNPrZkrcnyuhxlJgARIgARIgARIIBQEQjqihQ5/+dWXsujLRUbfK5SvIPXr1zfOGSABEiABEiABEiCBSCVguWd4Z1Djxo6TLp27qGg4M127bq0cOnRIxjdwTslzEiABEiABEiABEogsAiFVtCpXrmwoWcA27cVpsmHjBkVw/ISkyCLJ1pIACZAACZAACZCAE4GQTh0mVks0mnPixAlDyTIiGSABEiABEiABEiCBCCYQUkUrpmyMgS5lfYoRZoAESIAESIAESIAE7EAgpIqWGWBODlcVmnkwTAIkQAIkQAIkEPkEQqpolSoZUhOxyL977AEJkAAJkAAJkEBYEwipogVjeC3nz5/XQR5JgARIgARIgARIwBYEQjKkFBMTIzVq1JD+/fobEE+ePGmEGSABEiABEiABEiABOxCwXNEa/+h45QHeDC83N1e279hujmKYBEiABEiABEiABCKegOWKFkazzJKZmSlz5s6RrKwsczTDJEACJEACJEACJBDxBCxXtN577z1JSEiQc9nn5OzZs4IpwytXrkQ8SHaABEiABEiABEiABJwJWK5oHTx0UPChkAAJkAAJkAAJkIDdCYR01aHd4bJ/JEACJEACJEAC0U2AilZ033/2ngRIgARIgARIIIgESmXsSw9i8QVFr+Ym0QUwGCIBEiABEiABEogKAhzRiorbzE6SAAmQAAmQAAmEgoBlxvCdX8j0qn8cAfMKFxOTAAmQAAmQAAmEIQGOaIXhTWGTSIAESIAESIAE7EGAipY97iN7QQIkQAIkQAIkEIYEqGiF4U1hk0iABEiABEiABOxBgIqWPe4je0ECJEACJEACJBCGBKhoheFNYZNIgARIgARIgATsQaBEuy69uNGgPe4le0ECJEACJEACJBBmBDiiFWY3hM0hARIgARIgARKwDwEqWva5l+wJCZAACZAACZBAmBGgohVmN4TNIQESIAESIAESsA8BKlr2uZfsCQmQAAmQAAmQQJgRoKIVZjeEzSEBEiABEiABErAPASpa9rmX7AkJkAAJkAAJkECYEaCiFWY3hM0hARIgARIgARKwDwEqWva5l+wJCZAACZAACZBAmBGgohVmN4TNIQESIAESIAESsA8BKlr2uZfsCQmQAAmQAAmQQJgRoKIVZjeEzSEBEiABEiABErAPASpa9rmX7AkJkAAJkAAJkECYEaCiFWY3hM0hARIgARIgARKwDwEqWva5l+wJCZAACZAACZBAmBGgohVmN4TNIQESIAESIAESsA8BKlr2uZfsCQmQAAmQAAmQQJgRoKIVZjeEzSEBEiABEiABErAPASpa9rmX7AkJkAAJkAAJkECYEaCiFWY3hM0hARIgARIgARKwDwEqWva5l+wJCZAACZAACZBAmBGgohVmN4TNIQESIAESIAESsA8BKlr2uZfsCQmQAAmQAAmQQJgRoKIVZjeEzSEBEiABEiABErAPgf8fYL4Jo5FCagsAAAAASUVORK5CYII=;" vertex="1" parent="1">
          <mxGeometry x="-39" y="310" width="210" height="120" as="geometry" />
        </mxCell>
        <mxCell id="N-A8A7CQzxQLr3MDPCDJ-34" value="Export data to graphite exporter" style="text;html=1;strokeColor=none;fillColor=none;align=center;verticalAlign=middle;whiteSpace=wrap;rounded=0;" vertex="1" parent="1">
          <mxGeometry x="-61.5" y="430" width="210" height="30" as="geometry" />
        </mxCell>
        <mxCell id="N-A8A7CQzxQLr3MDPCDJ-35" value="https://gatling.io/docs/gatling/guides/realtime_monitoring/#graphite-integration" style="text;html=1;strokeColor=none;fillColor=none;align=left;verticalAlign=middle;whiteSpace=wrap;rounded=0;" vertex="1" parent="1">
          <mxGeometry x="-170" y="450" width="306" height="60" as="geometry" />
        </mxCell>
        <mxCell id="N-A8A7CQzxQLr3MDPCDJ-39" value="Push" style="text;html=1;strokeColor=none;fillColor=none;align=center;verticalAlign=middle;whiteSpace=wrap;rounded=0;" vertex="1" parent="1">
          <mxGeometry x="171" y="150" width="60" height="30" as="geometry" />
        </mxCell>
        <mxCell id="N-A8A7CQzxQLr3MDPCDJ-41" value="Pull" style="text;html=1;strokeColor=none;fillColor=none;align=center;verticalAlign=middle;whiteSpace=wrap;rounded=0;" vertex="1" parent="1">
          <mxGeometry x="930" y="154.5" width="60" height="30" as="geometry" />
        </mxCell>
        <mxCell id="N-A8A7CQzxQLr3MDPCDJ-42" value="Prometheus.yml" style="text;html=1;strokeColor=none;fillColor=none;align=center;verticalAlign=middle;whiteSpace=wrap;rounded=0;" vertex="1" parent="1">
          <mxGeometry x="780" y="284.5" width="60" height="30" as="geometry" />
        </mxCell>
        <mxCell id="N-A8A7CQzxQLr3MDPCDJ-43" value="" style="shape=image;verticalLabelPosition=bottom;labelBackgroundColor=default;verticalAlign=top;aspect=fixed;imageAspect=0;image=data:image/png,iVBORw0KGgoAAAANSUhEUgAAAjQAAACaCAYAAAC+AtK0AAAMP2lDQ1BJQ0MgUHJvZmlsZQAASImVVwdYU8kWnluSkEBoAQSkhN4EkRpASggt9N5EJSQBQokxEFTs6KKCaxcL2NBVEQUrzYIidhbF3hcLKsq6WLArb1JA133le/N9c+e//5z5z5lzZ+69A4DacY5IlIeqA5AvLBTHBvvTk1NS6aSngAIIgAzcgSmHWyBiRkeHA1iG2r+Xd9cBIm2v2Eu1/tn/X4sGj1/ABQCJhjiDV8DNh/ggAHgVVyQuBIAo5c2mFIqkGFagJYYBQrxQirPkuEqKM+R4r8wmPpYFcTsASiocjjgLANVLkKcXcbOghmo/xI5CnkAIgBodYp/8/Ek8iNMhtoY2Ioil+oyMH3Sy/qaZMazJ4WQNY/lcZEUpQFAgyuNM+z/T8b9Lfp5kyIclrCrZ4pBY6Zxh3m7mTgqTYhWI+4QZkVEQa0L8QcCT2UOMUrIlIQlye9SAW8CCOQM6EDvyOAFhEBtAHCTMiwxX8BmZgiA2xHCFoFMFhex4iHUhXsgvCIxT2GwWT4pV+EIbMsUspoI/yxHL/Ep93ZfkJjAV+q+z+WyFPqZanB2fBDEFYvMiQWIkxKoQOxTkxoUpbMYWZ7Mih2zEklhp/OYQx/KFwf5yfawoUxwUq7Avyy8Ymi+2OVvAjlTg/YXZ8SHy/GDtXI4sfjgX7BJfyEwY0uEXJIcPzYXHDwiUzx17xhcmxCl0PogK/WPlY3GKKC9aYY+b8vOCpbwpxC4FRXGKsXhiIVyQcn08U1QYHS+PEy/O4YRGy+PBl4FwwAIBgA4ksGaASSAHCDr7GvvgnbwnCHCAGGQBPrBXMEMjkmQ9QniNA8XgT4j4oGB4nL+slw+KIP91mJVf7UGmrLdINiIXPIE4H4SBPHgvkY0SDntLBI8hI/iHdw6sXBhvHqzS/n/PD7HfGSZkwhWMZMgjXW3IkhhIDCCGEIOINrg+7oN74eHw6gerE87APYbm8d2e8ITQRXhIuEboJtyaKCgR/xRlBOiG+kGKXGT8mAvcEmq64v64N1SHyrgOrg/scRfoh4n7Qs+ukGUp4pZmhf6T9t9m8MPTUNiRHckoeQTZj2z980hVW1XXYRVprn/MjzzWjOF8s4Z7fvbP+iH7PNiG/WyJLcQOYGewE9g57AjWCOhYK9aEdWBHpXh4dT2Wra4hb7GyeHKhjuAf/oaerDSTBY61jr2OX+R9hfyp0nc0YE0STRMLsrIL6Uz4ReDT2UKuwyi6k6OTMwDS74v89fUmRvbdQHQ6vnPz/gDAu3VwcPDwdy60FYB97nD7N3/nrBnw06EMwNlmrkRcJOdw6YUA3xJqcKfpASNgBqzhfJyAG/ACfiAQhIIoEA9SwAQYfTZc52IwBcwAc0EpKAfLwGqwHmwCW8FOsAfsB43gCDgBToML4BK4Bu7A1dMDXoB+8A58RhCEhFARGqKHGCMWiB3ihDAQHyQQCUdikRQkHclChIgEmYHMQ8qRFch6ZAtSg+xDmpETyDmkC7mFPEB6kdfIJxRDVVAt1BC1REejDJSJhqHx6Hg0C52MFqPz0SXoWrQa3Y02oCfQC+g1tBt9gQ5gAFPGdDATzB5jYCwsCkvFMjExNgsrwyqwaqwOa4HP+QrWjfVhH3EiTsPpuD1cwSF4As7FJ+Oz8MX4enwn3oC341fwB3g//o1AJRgQ7AieBDYhmZBFmEIoJVQQthMOEU7BvdRDeEckEnWIVkR3uBdTiDnE6cTFxA3EeuJxYhfxEXGARCLpkexI3qQoEodUSColrSPtJrWSLpN6SB+UlJWMlZyUgpRSlYRKJUoVSruUjildVnqq9JmsTrYge5KjyDzyNPJS8jZyC/kiuYf8maJBsaJ4U+IpOZS5lLWUOsopyl3KG2VlZVNlD+UYZYHyHOW1ynuVzyo/UP6ooqliq8JSSVORqCxR2aFyXOWWyhsqlWpJ9aOmUgupS6g11JPU+9QPqjRVB1W2Kk91tmqlaoPqZdWXamQ1CzWm2gS1YrUKtQNqF9X61MnqluosdY76LPVK9Wb1G+oDGjSNMRpRGvkaizV2aZzTeKZJ0rTUDNTkac7X3Kp5UvMRDaOZ0Vg0Lm0ebRvtFK1Hi6hlpcXWytEq19qj1anVr62p7aKdqD1Vu1L7qHa3DqZjqcPWydNZqrNf57rOpxGGI5gj+CMWjagbcXnEe92Run66fN0y3Xrda7qf9Oh6gXq5esv1GvXu6eP6tvox+lP0N+qf0u8bqTXSayR3ZNnI/SNvG6AGtgaxBtMNthp0GAwYGhkGG4oM1xmeNOwz0jHyM8oxWmV0zKjXmGbsYywwXmXcavycrk1n0vPoa+nt9H4TA5MQE4nJFpNOk8+mVqYJpiWm9ab3zChmDLNMs1VmbWb95sbmEeYzzGvNb1uQLRgW2RZrLM5YvLe0skyyXGDZaPnMSteKbVVsVWt115pq7Ws92bra+qoN0YZhk2uzweaSLWrrapttW2l70Q61c7MT2G2w6xpFGOUxSjiqetQNexV7pn2Rfa39Awcdh3CHEodGh5ejzUenjl4++szob46ujnmO2xzvjNEcEzqmZEzLmNdOtk5cp0qnq85U5yDn2c5Nzq9c7Fz4LhtdbrrSXCNcF7i2uX51c3cTu9W59bqbu6e7V7nfYGgxohmLGWc9CB7+HrM9jnh89HTzLPTc7/mXl71Xrtcur2djrcbyx24b+8jb1JvjvcW724fuk+6z2afb18SX41vt+9DPzI/nt93vKdOGmcPczXzp7+gv9j/k/57lyZrJOh6ABQQHlAV0BmoGJgSuD7wfZBqUFVQb1B/sGjw9+HgIISQsZHnIDbYhm8uuYfeHuofODG0PUwmLC1sf9jDcNlwc3hKBRoRGrIy4G2kRKYxsjAJR7KiVUfeiraInRx+OIcZEx1TGPIkdEzsj9kwcLW5i3K64d/H+8Uvj7yRYJ0gS2hLVEtMSaxLfJwUkrUjqTh6dPDP5Qop+iiClKZWUmpi6PXVgXOC41eN60lzTStOuj7caP3X8uQn6E/ImHJ2oNpEz8UA6IT0pfVf6F04Up5ozkMHOqMro57K4a7gveH68Vbxevjd/Bf9ppnfmisxnWd5ZK7N6s32zK7L7BCzBesGrnJCcTTnvc6Nyd+QO5iXl1ecr5afnNws1hbnC9klGk6ZO6hLZiUpF3ZM9J6+e3C8OE28vQArGFzQVasEf+Q6JteQXyYMin6LKog9TEqccmKoxVTi1Y5rttEXTnhYHFf82HZ/Ond42w2TG3BkPZjJnbpmFzMqY1TbbbPb82T1zgufsnEuZmzv39xLHkhUlb+clzWuZbzh/zvxHvwT/UluqWiouvbHAa8GmhfhCwcLORc6L1i36VsYrO1/uWF5R/mUxd/H5X8f8uvbXwSWZSzqXui3duIy4TLjs+nLf5TtXaKwoXvFoZcTKhlX0VWWr3q6euPpchUvFpjWUNZI13WvD1zatM1+3bN2X9dnrr1X6V9ZXGVQtqnq/gbfh8ka/jXWbDDeVb/q0WbD55pbgLQ3VltUVW4lbi7Y+2Za47cxvjN9qtutvL9/+dYdwR/fO2J3tNe41NbsMdi2tRWsltb2703Zf2hOwp6nOvm5LvU59+V6wV7L3+b70fdf3h+1vO8A4UHfQ4mDVIdqhsgakYVpDf2N2Y3dTSlNXc2hzW4tXy6HDDod3HDE5UnlU++jSY5Rj848Ntha3DhwXHe87kXXiUdvEtjsnk09ebY9p7zwVdurs6aDTJ88wz7Se9T575JznuebzjPONF9wuNHS4dhz63fX3Q51unQ0X3S82XfK41NI1tuvYZd/LJ64EXDl9lX31wrXIa13XE67fvJF2o/sm7+azW3m3Xt0uuv35zpy7hLtl99TvVdw3uF/9h80f9d1u3UcfBDzoeBj38M4j7qMXjwsef+mZ/4T6pOKp8dOaZ07PjvQG9V56Pu55zwvRi899pX9q/Fn10vrlwb/8/uroT+7veSV+Nfh68Ru9NzveurxtG4geuP8u/93n92Uf9D7s/Mj4eOZT0qenn6d8IX1Z+9Xma8u3sG93B/MHB0UcMUf2K4DBimZmAvB6BwDUFABo8HxGGSc//8kKIj+zyhD4T1h+RpQVNwDq4P97TB/8u7kBwN5t8PgF9dXSAIimAhDvAVBn5+E6dFaTnSulhQjPAZuDv2bkZ4B/U+Rnzh/i/rkFUlUX8HP7L1aLfHJt9l+lAAAAlmVYSWZNTQAqAAAACAAFARIAAwAAAAEAAQAAARoABQAAAAEAAABKARsABQAAAAEAAABSASgAAwAAAAEAAgAAh2kABAAAAAEAAABaAAAAAAAAAJAAAAABAAAAkAAAAAEAA5KGAAcAAAASAAAAhKACAAQAAAABAAACNKADAAQAAAABAAAAmgAAAABBU0NJSQAAAFNjcmVlbnNob3QllBQFAAAACXBIWXMAABYlAAAWJQFJUiTwAAAC22lUWHRYTUw6Y29tLmFkb2JlLnhtcAAAAAAAPHg6eG1wbWV0YSB4bWxuczp4PSJhZG9iZTpuczptZXRhLyIgeDp4bXB0az0iWE1QIENvcmUgNi4wLjAiPgogICA8cmRmOlJERiB4bWxuczpyZGY9Imh0dHA6Ly93d3cudzMub3JnLzE5OTkvMDIvMjItcmRmLXN5bnRheC1ucyMiPgogICAgICA8cmRmOkRlc2NyaXB0aW9uIHJkZjphYm91dD0iIgogICAgICAgICAgICB4bWxuczpleGlmPSJodHRwOi8vbnMuYWRvYmUuY29tL2V4aWYvMS4wLyIKICAgICAgICAgICAgeG1sbnM6dGlmZj0iaHR0cDovL25zLmFkb2JlLmNvbS90aWZmLzEuMC8iPgogICAgICAgICA8ZXhpZjpVc2VyQ29tbWVudD5TY3JlZW5zaG90PC9leGlmOlVzZXJDb21tZW50PgogICAgICAgICA8ZXhpZjpQaXhlbFhEaW1lbnNpb24+NTY0PC9leGlmOlBpeGVsWERpbWVuc2lvbj4KICAgICAgICAgPGV4aWY6UGl4ZWxZRGltZW5zaW9uPjE1NDwvZXhpZjpQaXhlbFlEaW1lbnNpb24+CiAgICAgICAgIDx0aWZmOlJlc29sdXRpb25Vbml0PjI8L3RpZmY6UmVzb2x1dGlvblVuaXQ+CiAgICAgICAgIDx0aWZmOlhSZXNvbHV0aW9uPjE0NC8xPC90aWZmOlhSZXNvbHV0aW9uPgogICAgICAgICA8dGlmZjpZUmVzb2x1dGlvbj4xNDQvMTwvdGlmZjpZUmVzb2x1dGlvbj4KICAgICAgICAgPHRpZmY6T3JpZW50YXRpb24+MTwvdGlmZjpPcmllbnRhdGlvbj4KICAgICAgPC9yZGY6RGVzY3JpcHRpb24+CiAgIDwvcmRmOlJERj4KPC94OnhtcG1ldGE+ClvkjPIAAEAASURBVHgB7V0HfFVF9j7pvRICJJAQaiD0jlQRxIIoKvbe17Kri33d/65rXXtZXXXVtay9olhAQQEB6b33QEIKIY00UvjPNy9z37yb+17aS17KOb/fy507fb578+Z7Z86c8UpMTDxJLIwAI8AIMAKMACPACLRiBLxbcd+564wAI8AIMAKMACPACEgEmNDwi8AIMAKMACPACDACrR4BJjSt/hHyABgBRoARYAQYAUaACQ2/A4wAI8AIMAKMACPQ6hFgQtPqHyEPgBFgBBgBRoARYASY0PA7wAgwAowAI8AIMAKtHgEmNK3+EfIAGAFGgBFgBBgBRoAJDb8DjAAjwAgwAowAI9DqEWBC0+ofIQ+AEWAEGAFGgBFgBJjQ8DvACDACjAAjwAgwAq0eASY0rf4R8gAYAUaAEWAEGAFGgAkNvwOMACPACDACjAAj0OoR8G31I+ABtCoEOvYaQVFd+1FgREfy8vKSfd/6/atUcaLE6Ti8ff2p75SrRboXpW1aSAUZe53m5QRGgBFgBBiB9okAE5r2+dybfdRe3j40/qaXKaRD1xpt7/rlfZeExjcgmBJHniPLlRYcZUJTA0GOYAQYAUaAEWBCw+9AsyDQe9LlBpmpqqyg/PSdVF5aRHSSxPV4s/SBG2EEGAFGgBFouwgwoWm7z7ZFjSy2z2jZn5NVlbTgyQtEWDCZOkqlWI7K3LFc5s5L21HHUpyNEWAEGAFGoD0hwISmPT1tD441MKyDbL0wc7+41p3MoFBleRmt/+JJWZ7/MAKMACPACDACVgjUSmhg85A0ZpZYLogj/+BIsTxQSCX52fIXc9aulYTlA1cS23sUdeg+mMI69xDlw0XZLDp2YDOlrv1OTlRWZbuPPo/8AkMo99A2OrpvPYV2TKC4AZMppucwqqo4QXmHd9CepR9TRVmxUTwgNIriBp5qMzgNFwanwmbjePZBsbSxi9K3LKYTxflGXhXwCwqj7qNmytvDG38m1BE/cApFCqPVUtHPnAMb6eCa7whaBefiRfGDplBUQgqFizFWlYv+pe2UxquFWQecF2tkCsbXdfBUiojrQ+GdksjLx5eKj6VTxvZldGTbUsvaUabbsDMoqlt/8TzjqUIs+aCv6Vt+FVilWpZJHDlDPLcIifmxg5upc8pEiu09Ui4fYXypAh88J7PgmXXpP8GI9vELkOGA0GjC8pMu+5Z9RpXiueoS3qkHdUgarEfJcNauVVR0LK1GvB4RFNmJug2dLt67QeLZVdHR/evp8IafKDiqC0V06SXehQL5fPQyKtyx53CKE88TeX39A6msKJ+Kcg5T+uZfLMepyuF68cUXU0REhIw6efIkvfPOO1ReXq5n4TAjwAgwAoxAEyHglZiY6PTncvLU6wjkwplkbP+NNnz5lGUyyMHwi/5K4WICsRKQhEXPX2GzozBlOP3+L8lbTNCZO1dQSV6W6MO5phwkDEP30fK37pTxmKRTzry1Rh4VARK05uOHCROyLpjcxl73nIzK2r1KTNSj9GQZBgFb/tZdVF5SWCMtOKozjbz8UQqKiK2Rhohdv7xH+5Z/bpnWmMjIrskSWxAyKynOy6Alr9zkkIRJfvRVT5LSlOiJmHx3LvwvHVj5tR4tw9Pu/YxARnIObJJlQYTMsvX7V+jQ+vkO0Xhv8P7URRb/6wZJdPW8zt69nQvfof2/f6lndQiDxIy49GFJaPWEyhOlggilS9KJ8E9PX6Qni7AXnXLds07fV2TeNPc5Sf5MBY3bTz75hHx97b8Rbr75Zjp69KiRzgFGgBFgBBiBpkPA/u1raiM6caBBZkA+8o/spXzxa94vKFRoBXrLX+heXtZubEBGJv7hdfIRv3Ah0KSATJQdz6Ww2O6yPLQFXj5+plYdb6O69qdOfcfKyLLCY1Scn0kBIZHy17OXt71tv4AQmQcTc8GR3eIXdZogIMcprFN3wjiw7XfUFY/R0tdulb+2HVux3Skycyx1KxXnHqGYHkPlBA6yAiLw2+u3ORSDBmn8za9K4oUEaEdyxBj9AkMJ9iLAoM+pVxF25UAD4i6B5mLM1XYSCfICjRU0EeGdewp8E8k/KNzUnJisr39e9g0JIGm5YpwgndFCe4bt0yAQpQXZUsNjKixvQRQgaA/vQWjHRPksEZc87QapATl5sgq3UqAZAyFVEttnjGwH7wI0X7pYGQXnHt4u6k+S2Xz8AygyPlkvYhmGJmnEZY8Y28Hzj+yhwsx9FJ0wgIKj4ySZsSwoIpOnXmuQGWwhB6bQ8OH5Q/uGuvV3zlk9HM8IMAKMACPgGQScEprOyacYPdrw1VNiick+OSEBS1GBYdFGHj2QPPV6g8xk711L6z591GHZBhPp4Fn30slK1+p4/5AIucRk1q5gcgLhUFIgJq3dv/6PDqyaW2MZCxMxtCiQ3pMuc6pRQvqW716WEzPCIGtjr31GTnKhMd3kUgUmSCUpZ91ukJldi96lfSu+UEmEfk+67U2p2YDmCJqs2pbmjMK1BIacf6+RA1qV/b9/ZdwjAO1Nz3GO2oduw6YbZCZn/wZa/eHfRE6bYg6T/UhB9kBq+k270SmhQd3wAbP52xcRlDL0gvupk3hPoMHB88CzVoJlKH0pato9n8p3Aktc6z9/QmVzesX7pt45f0Fip9z5ntO8KgEEUvm22bPkQ7ksqdKgLewolsqciSK0IMXQbpmXKLHcWXzsiLPiHM8IMAKMACPgYQTsag5TR7BEoSQ/fbcKGlfYFWAZwkq6DT9LRsOY00xmkABNzar3H7BcbjLXt+mb52ssFUEbAtsNJbCz2bvs0xpkBuno4wlhBwGBBsOZoE+ws1ACbcOW7/6lbqnHKRcaYfhF6dxvnLyHJkInM4hEe4fW/SjToaXCL3x3SLSoB2QOAg2Cmcyo+LWf/EPmUX+UnRDuN4plE0VmcH8sdYuwabI9xwBBUKEBshJo6bb98G+HpL2/fWrcBwsbK09L3IBJsgtYUoKNlS5bvrc/Sz1ehUGaIJXlpTXIDOKP7l0nNXcIszACjAAjwAi0PAScamiOH00leHWFjBRq/B0/vyUNdF0byJJYDups/EpOE4a2teV3BQmWJ2DkWlfB8kBs39EUHNlFLBXAE62Nr6mlLx8/2xKYVX2woTELND+YHFFeEQnk0YlRYFgMQVMBGwwp1Rc/bdknqlsK5ex3XGaxZa7fXxgAK9mz9CMVrPUaUL3DCMtFJ4ryauSHQbQywIUxL8ZtluLcjBqGuyC1Sqxsc1Rac1yxhImlRYiuKVJtg7CWFuZY2hAhDwzdsVzn6x8knucDwvbpM7HMatfIqXpcXe+66y4KCAgwsrD9jAEFBxgBRoARaHIEnBKafcu/EN5ZZ8plFRiCDr/4/2RnMCkc3rCAsDPFahklTPuFXyhsEBojsPWoi2DJY9jsv4hJeYjL7K5sIErEhG0lsO8AocEymRLsZlICrQaWXVxJsKbtcpWvtjTYHymxIh0qzXxVRK5MPDsrKRFER4lO3FQcrnjuZtF3Jnn72MiEOU9z3evGyrAFshJozpwRr50L35bGxCjXKXms/ICMw55qz5KPnO4c09tJT0/XbznMCDACjAAj0IwIOCU02NWz5NWbaOA5dwqjyhRj1wgmhF4TLqUeYy+Q9hTmLcL6xI/tsY2RUvGruS4y8vLHhNGoTXuBHU1YgirOyxTalRJZPGHE2dKGRGlsrOp0dpZQVZVtW7oiBSirlicQxjZiaLNcCexW3CEwTFVSXlxz15VK06/S+Lr6zKSKMhseejrC0mNvdaS/k51TJ2vZnm+us7nvscVaCZY6rUQ3Wjan451Z9f6DlHLWrdI+DOnADrZig2fdIw2fV3/wkHjWh8xF+Z4RYAQYAUagBSDglNCgb9ihgy9xEIEIQRi6Djld+haBRgTq/YEz76IM4cFVX1bS/ZmECF8ejRFFJlzVAVsfRWYKsw7S8jf/ROaJq+vgaUT2+c6yOmharARLEBB923aRNqll7lwujGUXWRV1exx2b8E4FQI/KbX5Y0E+PBt8MDljh5iVBIbbnN4hDUSwNQqwURIYHqOCDlfsTHMlsCfCTji831iCSxh+ttT6wdAYRH3QuXMMVwGu6uE0RoARYAQYgeZHwCWhUd0BQYARKj5b5r1EE299XU6o2JqMHUCFWQdUVrlNVt1Eix1GZoNZleauK7ZlK9n1y7s1yAz66K8tF6m85qu+nKPSQAKwDRtSWmj3JwIfOEqsyqk0d18LsvYbVcb0HFonQoMC2MKOnVdBwr7JSnSbIN0uxipvS42Dlgk7lEA+dFsj1V+Q8kDhcLEuAg0PNG/4wNcPdljhXYB9kSuZM2cORUXZliarxDb6J554gkpKrLVirurhNEaAEWAEGIH6I2Czmq1nudxD240S5mUcTCxKm4GtvM5sMmy/lqstaI3a6h+o0pYXIrr0rlFBzwmXGEbKNRK1CHiIxaSlSxfhFVfF5aXtMpKw7IClLUiC2NGljFGNDFpAldeiGhzUDYt7T7rCMHo2V2h2uKdsmUDOsE3bLBiDkoKMvSrY6q62YxVIkmwQbV3iB59mbLPX42sL412GQXFdZNSoUdSvXz/5SUlJoZAQ1xqhutTJeRgBRoARYATqhoBTQjPysn/QmGueqd7pZCMeIC/w66K2x0pHdvJsHsfGNs970YgYf+NLBLKgBBoTeP6dctf/pNZAxTf0Cr8mShJHnSOWn/qqW+kY0OyTxUg0BUA8xlzzNPlU75TB9uUBZ90mc2Gce3/7xCiBJRzs+oKAzEy45VXDyRzigBPI3OirnqBp99jLIa0xAmNXtbUcW8cn3vaG1JSpOkESB4llwIl/eE1FyevOn9827mHcrTQNGDPsQ5SnY2xNruvkbVTYggI7fvqP0Rt4gO7Ud4x8x7oOmSZsY2430qwCU+58n4acf5/DtnUYgyeOPEdodmxLWLrxtFUdHMcIMAKMACPgOQScLjlhwoTqXu1ugtEsDGOV4zJ0eb90Jmdz0KYPAap6nI6M3T+Y8Idf8je5HABtitpCredvTFieDSW83sJwGRoIkBJoT+CFGH0FGYEDP1daFNU+jkKYdt/nsrye/+Cqbwytk8qbuvYHggYHW7JBCMYJ4gaiU1VR7jBGxLlTts9/XdrRwDgb7WL5T+42E8uCqs/6GVdoGzui8Exi+4ySfRt/079qjBF1bJvvSITc2e/61AWNUf8zbrEs0ve0awgfJfAzBDsvCLw8w0gdZ0jBDmbohQ+qbPKKHWtqCdEhQdz4CjII30L44J2BQTn+B3TZ9mPLwEfvE4cZAUaAEWAEbAg41dBk71njcPgjjGMVmQFhgB8UnFXkTHA68savnzWc3aGsIjOYMOArxDzx1qhL5KuLrPv0EQc/L5jY0Z7Nsd8jYkI/IKsxGwvrdcPrrnLAp4gB0uGBWGlj9PwIr3zvAcIkp5afoPFQY0Q66ju4eh6CbhNslV788vXi3KW5cuJFxdB6qT6jL6lrv6/R3rrPHpXPDNjLMtWaKIThqHDJKzeKLcr27dsyE/5U53eFncxbx2dVaz2iMi8fx6U/Wb+TP0qjppI3fvW0fGa6p18Yt8MLtNqhVGXhoRo70ZQbArw7OpnBc1z/+ePkzJGkatt8hR0NCyPACDACjEDzIODycEp0AZoALFFAG1AhnMwV5RwSRsAHHXY21dZVGKRGxvWVO0WwGwV2Gs62SddWl6t0LA3gnCmQL0w+mMhciX44pTp4EOPEDhf0E8tZddWwYBcMNFrYSQQHdtjt1RzLN3BkGCGw9RYkAG0WiCVA1332kg7kgBPOx8KZSbUSS1cgtuA0aGlAyJS/nEm3vynfY2islr95p2XPYXsDuy+89/C9U3T0cJ2Nry0r5EhGgBFgBBiBZkHA6ZKTah1f6lZO1VR6Xa74hWvlibcuZeuTBwSmNhJTW31YwlJ2KrXl1dNBXrJ2rdSjHMLQ3ui+UhwSa7kpLy0WOay1VdCqWGpWnNZ5Uu5KK9R2pjnN2soTdH80IJwgqxB9i7d5iNDiKE2OOY3vGQFGgBFgBFouArUSmpbb9dbVM5wF1XvS5Q3qNM5mwhIgS+0I4CBS7Ew6sPIroWHbLQqclBoXGLkr2bP4QxXkKyPACDACjEAbQYAJTTM9SGV/1EzNtdtmsAQXJHbiqcNDsfwG7ZgSGHPXxSGhys9XRoARYAQYgdaBQLsmNLqBqmu7k8Y/zEPr50ubnIbUBIeGLHVDIHPHCoLPGbWbSZEZGAlvn/9Gnc5kqltLnIsRYAQYAUagJSFQq1FwS+os94URqCsC2PmFU8a9xfZ97OLSyWtd6+B8jAAjwAgwAq0HgXatoWk9j4l7Wl8EsAW7pJWeS1XfsXJ+RoARYAQYAeHChEFgBBgBRoARYAQYAUagtSPAhKa1P0HuPyPACDACjAAjwAiwhobfAUaAEWAEGAFGgBFo/QjUsKFJSkqSo8rIsHCD3/rHyyNgBBgBRoARYAQYgTaIAC85tcGHykNiBBgBRoARYATaGwJMaNrbE+fxMgKMACPACDACbRABJjRt8KHykBgBRoARYAQYgfaGQA0bGjMAJSUl5ii+ZwQYAUaAEWAEGAFGoEUhwBqaFvU4uDOMACPACDACjAAj0BAEmNA0BDUuwwgwAowAI8AIMAItCoFal5xaVG+boTOR8X0pceQMcfbPSdr6/StUWV7m1lb9gsKo//SbZJ37V3xFBZn73Fo/V9a8CIxN7k7dOkbKRhes20l5RbYl2l5dYmhYr64yfsO+NNqVlt28HWshrfWKi6Hpw5Ll/9NbC1ZSWXlFg3vm5+tDl04aRl6ihiVb9tL+zGMNrosLMgJNgYDj/326+L/Pks2EBwfSGcOTZTgtJ5+WbdvfFM23+zqZ0Jhegahu/alLyiQZu3Phf91OaAJCIo36cw5sYkJjwr+13c4aO5C6xtgIzY5DWQahGSOIzlkj+snhBAf4t1tC0yculsb1s/m2+vDXdY0iNMEBfnSGIEeQnMLiOhEaTCT4gEhl5x+XZflP60QARDa++n8Nz7Ix5LipEBiTnCj+7/vL6kMDAwxCExcdQeeNGSjjM3ILmdA00QNgQtNEwHK1jAAj4HkE7jhnAqUkdKbSE+V03Ysfe75D3IMGIxATEUpPXXuOLP/uwtU0f92OBtfFBdsmAkxoTM8199BWStu0UMZWlBaZUvmWEWAEPIVA6YkKWrUrVTa/O719LuF5CntulxFoDQgwoTE9pby0XYQPCyPACLQsBLDE8MLcxS2rU9wbRoARaDEItHtC4+3jSz3GXUReXlihtQuMgvct+5SqKl0bMfoLm5huQ6cTjIkDwztSSV6mIEQ76ND6+VReUmiv0EkoMr4PxQ04laISBlBp4VE6dmAzpa6ZR5UVJ5yUqH90aMcE6tJ/gjTM3Lf8cwqN6UqdxX1M98GinTI6lrqV9iz5iE5WVVpWHhbbneIGTqawjt3FGGOEXVGpsP3ZT3mHd1D65l9EvVUO5VR7J0oKqCQ3k7qPmUVe3t50WGCStmkRJYw4W475ZFW5GOv3dGTbUofy6gYG1PGDpghskwl1luZnC2x30kGBT23YTpw4kZKTbfYWqO+nn36i/ftbniFegJ8vnT60Lw1I7EIRIYG0/VAmLd26j4rKTtDIXt0kFPPX76TyiprPZmSfBOoeGyXtSRZt3E2RIUEEI+XRfRMI9aZm59HXKzbTkdwCBak0qB3YPU7kSaROUWGiTCDlHS+R9iibDxyhTQfSjbx6YMbI/hQkbFi2pWZSlrBfOHVQLxok6jkh+rX9UAYt3LCbjh0v1otYhrvHRss+DujeWdhAVNKOw5n0xbJNVFnl+A6pwoki/8DEzurWuK7dc9hhXCoB4545OkXdUnyHCBn28/Wl2eMHG/EIwJYBWFsJ7B8mDuhBveM6ShupowVFtEdohfAsjpe4d6OAah99he1Vb2FI3SEshA4dzaMd4n34ecMuqhLfR7r069ZJvDM2XJaIMWSKsZgF2I3qY3uH1gvD9D3pR2UWjO3MEbb/jV8376Wo0CCakNKDYO90tOA4bTmYQQvEOJ09E1SCd3XKoN4SH/QV78SeI9nyPThe6hwfPP+Rok8YzlcrNpGvjw+NEO85xt1ZvI9ZeYViKWmn8R4O7RFPMCyHwBZKCd7x8OAAdSuvrt5B/H8N7RlPPTvHiP8NH/m+r9l9iNbtPexQh/kG9jAhgX6083C27BPs5WATNqSH7d2HsT/GUVxWbi7K9x5AoN0TGt/AUOo14RJL6A+t+4HKjudapiGyY68RNPTCBwmkSElYbCLF9hlFPcdfTGs/fliQhS0qqca1U9+xNODsO4x4lO3Yczh1HzWTVvx3jiA4OUZaYwIxPYbJ/qCOckEy+p1u22Wl6ozqlkLxA6fQkn/fQlUmIjVs9kNyPCqvukbE9ZFErtfES2nlu/c59LVjzxFGeyo/rlFd+1H84GkUnWCfcNB2eVkRHd27Ts8qcRh64QPk7etvxIfGdKOYnsOoxykX0NpPH6Gc/RuNNHPgvPPOo8TERCM6Nze3xRGa6NBgevSqsyQRUR1N6BgldwWt3p1KI3snyOiVYpnFyqB15qgU6il2U2GCPZpfRPfPPk1VI6+Y0E4RX75XPvs/I/6NOy4WX9B2TJEAg8X+ws7kbEFa1u45JLQgS2pMZhdPHEY+3l7iizyHunaIJOw4UpLcNZZmjEyhRz5eICY126Sp0vQrSNTVp43UowhlMZn++c25lqRtQkqSYWTpUFD8AJm3aqtDFG4w6c0aO6hGPPpujgemVoRmSFI83XXeJIcxgmwMTooTZGkAPf3lL2LSP1KjjcZEnH/KILpwnCPhkgRHYIbnAmxBqpQUimcOI1P8EDtVEIs7XvvS4ZkF+vvS3y49nQL9/UT8SQJxURIbGWpggXdkWE/bbjykY8feUHGPHTl/ef97S/I2RJCMP583WZARu9cPlBsudvWhT099sUgSc9Wefh3eu5vRNnb6PHnNjBo4o/2//u8H2iveJYwd76ZZkrt2Eu9OJ4doEDYzqfYX7+md504S7228Q16Me/LAXpLQQOtXUWlNqC+ZOFSOE/+Pg8TzV4b+qjIQ3hRBLB989zsVxVcPImB/Iz3YCU82XXmihDJ3rjA+xbl1+6IKioil4Rf/n0Fm8tN3Se1DQYbtF5+PXwCNvOIx8g+x/UK0GiMIEST38HY6vOEnKsm3bfELCIum0Vf/06pIo+NAZqCJAYHI3LHc0EBB89J9pM3gTm/ELyhE3laeKJWanEPrfiR8jh89JOOBw/hbXhVhRw2XqgMECeNTAjIDrdexg5tVFCUOP9sIIxDTYygNv+RvBpmBBil1zXcGgQHJGXHpP6RGzKGgB25MP5y1Hmi/qLWgloEevuIMg8zgi/jXzXukxgJ5FJnR8zsLQytx9/mnymT8UgSpOCS0M5jIxDzuIPiCh+QKrcyG/Wn049odcgu00joMF7+W77twikMZ/SapUwc5AUG78cumPXLSQToIzt8uO0NqhvT8ehhkBn3auD9d2sKoSQS/8NWWVj0/wjvFL2CQB3zqYjdTJLQDmHzUB8bAEGhcVZy6Yuu3WaB1uleMXxE2aJCwHV8RGMQ/IIhjTLjt/8JcviH3VwlcFJkBPtA+QSuDZwjpKIxh/3HFmQ7/YYeF9uYdYRgLgWbu1rPHybD6M2fWqZLM4P71H5ZbEmKkKTKDceL9U4QAbf7t0unI4iCIv/eCKQaZAekAjgeybFvo8S4+dPE0B22KQwXazV8umSZxhvYRY0VdsJOCKIX57zsPGs9tW2qGURrvn3qO6oo4szx+9dkGmSkqPUG/bdsn+1tQXCqzYvy3nj3eXKzGfd/4WIPM4H8H27GVVsxbdVaU0r8PdK3aSXLyJVCjJY5oDAJ21UJjamnFZeFnZv3nTxgjSBLLI31Pu9a4dxbof8YtRtL2n/5DB1d9a9z3mnApQXOBX0/9pt1AG79+1kgzB7b9+Bqlrv2+OtqLxggiE9k1mUAUMLEf3bfeXKRR9yATv71+KxXn2r4cQGQm3f6W7GvXYdNp34ovHOrP3LFC9O9HOrJ1iYh3/KdMnno9dR99Lvn6B4klpEmUvuVXh7K4Wf7WXZL8jLjk71K7griV795L+Uf20JDz76XO/cYTtD128aJBM/8sbzEJrXrv/hqEaNSVT8j+Dj7vz7TyvQfsRT0Qeuh/35OvWE6DqMkT4Y8Wr5NLKQifqLB9SSOsBF+kmMghUFv/46P5xrLCaYP70PWnj1ZZa72qyfd/v6yl79dsM/IHiV/n+IWry6JNu+WWUbMmBbznn2IHCVTqUM+HBgVY/jpHXdDiPPvVrwhKuXjCUDp3zACpwcH106UbVJLDFQTmnre/oUyxrACJDguml28+Xz7L0wb1oW9X1tS4rBbaKXwgWOb4962zZdjZHxC6579ebCT/RUyu2OUE+xs93sigBYCBIgZ49x7+aIGx7RbZoBH4P6H1wP81JkE8s8YKiNF0seQIwSR7/zvzjK3/iLtM+N2ZITRxIC0zxFKajtFPYlkIyyjQKGGpEQbTKwUBwBImxgxZseOAnMTljZM/b/y4QpIZJGNyfuTKMwnEFRqiHp070L4Mu6b42qmjjFreW7RaEmIVcYHQMl0gtEzA58opI+iVeb+pJMsrNJR4ti/PW2poSPAMzhTLPMcKimUZEDt8ICBTL940S4axw6m2XU7Q/EH7CNkqyNCTny00tFjQ2D165VkETc0YoQX7WmhGU7NzZV6rP9D8gXj98/OFtE0sAyrBMhlIsJKPl6yjL5dvkrf6//3Ow1l0ffUuuwony6uqDr42HAHbN3HDy7fbkjFiaQhyojjfgcwgbs/Sj6hCaH4gnZIdfznJyOo/sAOxkxlEnqTN375oZEkac74RdlcA9jmKzKDO0oKjVHBkt6w+INjmT0Vv68CqbwSZwQThSGaQZ/eSD4ys8N9jJUqTU5C130jOP2L7ZVyYeUDGQZulpEvKREOrtXfpxw5kBnmgrVF1RnZFm/gK9JzgS65EaAHw0RHCL20Vj7BZMEkp+ff3ywwyg7iFG3c5JROqjPm6bPt+BzKDdLT/+TLHZTlsdzWTGeRFD+eutC+P9hQTmTN5XUyAunz22wZjQoJdhTNZsH6HQWaQ55jwJaMmS90+wln5po7H8pzqByYl5RRNtQstBpyiQfrGd3TLmycdBQoCAHlCTLjKMaOMEH8+E89PvT+nDqyJ7QuCvCnt2u0zJkgyqpb1oEl49TvXpALtQTOjBFqFN378Xd3KJTbjRgSw7AYB+YJ2T5cvBGaK1I/uk6gnWYbRv+dNyz14D0HKlabIsmAdI4EtBGQWy2C6TRAwfXfhGqMmV++tyvSq+D/VyQzioRWCvZESV//36vvAyh5Oledr4xBoMRqaN998k/z8/Oo8miNHjtD9999f5/zuzBgQGiV/haDOzJ32f369jew9a6QhLuxrMGFbeRzO2m1TGevlio6lUUVZMfkGBFNQlOMasZ6voWH0yyxY6oKWxFsjFuY8MF6OThhIwdFdBOGIFF/mjkTCN9CmbdDL6UbGlWU2godfvoocVZTb4rx97c89UtPWdEgaRLArMkhLdZOKAOGXYHjnJFLLfHrbjzzyCEVG2gka3peWJLBjgGBiUBoLvX9YDhrfv4ce5TL8gdDO1FUAI2wZ8Ou0k+hHiHD8B4kQWgAlMBy1kqy848YEqtIxCe4UKnhoBcKEZseZrN+bViMpW9iFwA4IhpqeFvRDSYrQUnUTv9qNt7w6oJbs8O4BP7XUosrV95oojLqVwEmj0R4iq28wAfoImxhoKMwCo+xHPllAT149Q2rIHrxoqsyCifUfH883yJC5nLpfJ5a3zHJQLB9h6Qd2ONBAKIGWCOOGwKDWSmB8DG0R7Guw/OTK+d3Xv2+2qsJtcRHVRsQ+QoN6m9CoWWGrGlOGx+refIXmD9ovlpaNQIshNJh81D9LXSDr0qVLXbI1SR4YpyopqV66UffqquxhcB/SId5y0sWOKCuB1geExkpjYpW/PnG6dkaVqxD2MRAr/EM6dKXhFz0kiIxdrarK6Vdv75oTkgOhEbuppGg7oqrKT9jivOyKwlBJYGzRMBiuTYIiO1tiCyNgfFqqhFUTBrWWb+5nTrXK3RxvdQ+SaP5lb5UPcaPEzqibzjiF4HXXlfhoBp96Pme/nKFtgeAdgiGq+qWul8VOGLOofFbvnjlvU9+rIyzQDoyVaxOQ0sYSmuhQ+w8BPBtXgmUSfJTGRuWF/cl7i9Y4GFy/8eNyw8ZD5bO6Zubblv/MaUVlZZLQgMQowRKUEmflYJyupEtUuEt89mfal7JUGXddQf7UOwVyVRu2kWKnlyvB7i+Wlo9AiyE0K1asoIAA57/uzFCmpdX8tWfO01T32E6spOKE7Ytc3aur7pTPP9j+RaDScXVWVm0V1zUXernGhKsqbUaSdakDmpAx1zxFfmInGAQ7vmDMW1KQTSert7NjN5eU6l9uthuLv1Iz4xhv3u6NVP/gcCMTtpjXJgXCFqc1ine13U15ZaVl93X1uGUGLbKuW0axZfZPMycaX/SYCDGpQPVfJYgmJgGlFXL2OEvLrd8fXY2OX8aKqGjdtNzFpKd7Oqxrl+b+bl9+c9Yvd5wlpTRTeIawiXElMCytsli+RBnze6QMrl3VhzRlhGvOV1kJTSo5GHnDrkpJieivlRSfqP6RIhLV8p1VPsRB29dUAnsrJenH8oWtjrVGSeWx0pKqNFxztB1mejyHWxYCLYbQPPvssy0LGRe90bUcAWHWtgaBWnzRsXTL2vQ8egYY2ULKS5vuH15vz1k4bsBkg8wcWDmXdvz8lkNWH7HbyCA0DikNvykWWMHvDWTvb59YLtXJxFb+p0T4mcEEERZk/+LVh6R/IevxVmHbMp5VimMc/LCoX60wbsRuI12wVKAIjR6vh5UaX49DWN8Krm8vNudryfewh8C2eQiWQ1wtl7hrHNh+jYm/QhDbT5aub1C1MOS+ftpoh7IwWoatlNV2fz0jfNBYCZabILpPGfiIUQKDbiuJCrHH6/6PrPJizE0laUdttk6o/7AINxRb1T825FVItOyrXdffsvvZonoHOxcl4bFJKuhwDa2elBEJh3BWEtoR9iFm8ZI2Koh15QPHXKop7iO79TOqxUGdZnHcnWRObdh9YZZ9nTq8U91tSMytzZ49mx599FHjM2jQIHMWj95DKwKJEjs91C4lvUPYXeJuSai218AvYzOZQVu12REgT2yEXTuJeyVqNwk0A/XRLqnyTXVVZE8ROVftHNJ2ucA+pjlEEY4QsQSJ5aT6Ct4dbJPG+DBWtbMIdWFHVm11KgKnt4sy6A9ELSUirBOUxGrih3hdEmLtdmvu1mqoZ4n2YBfjSmCAq7RUcdF2ra+rMpzW+hFw/Va0/vE1yQjgkwUfCBy96c7fEAf7F7XrB/YwVksryNeh+6AaZTsljzV828ATryfF28duZwFPvWZJnnqdOarR91m7Vxl19BXbwl2Jl4Xdjso/duxY6tevn/Hp27evSmoRV+WhFJPH9OoTpFXHsJ0V22bdLWoSwK9y3XcG2sHEOFVsF69NoIkxEx9oGJT9SW2q+9rqd3e6mpBhoGpFHPX21DNB3BWnDteTaoQVljUS6hkBI1oI3oNzhVM6V2LV5l3CaZxa2oFfGux2w64zCNwC1OZjZbDY8m2uF7u9FBHSd8RheUotUQ0S5cx4wi4L/logsA3T/bDIyEb+ydU8UXeNsV7G15tQ9k3QYOkG33oehM3jN6fzfetBgAlNA5+Vsu/ApHrK9c9LEoOqYF9zyg0vGKr9PWLrsTNBWdioqF07IA2DZt4ls+PXiL4t2lkdTRmfL44ZUJJy1u3SNw7usXNr6AX3U3iXXirZbdeCjL2kdmJhZxX81+g2S8Cq65BpNPG2N2jsNU+7rd3mrghLGsq4E75Gzqn2NYKdQvAH0xQCZ2wQTESXiwkbfmogIFBPXzuzxgQlEy3+3H/hVGPHDSaxf1x+ppHr4yUNWzYxKnBzQI0Z1c6ZNVn225keBDYxG6oJRi+x4+m+C08jfbcXSBG8y75w4yzh6O4Mt/R0rngP4PANAj8u8OmjyATiQFYQ9+YfLzGc7yEeMk34m1EecOH4T9ngfCWOu1AGt1hGHNffWouMOtDWw5efQWr3FjRTN5w+BklS4/PV8s0yrP58U721H+Uev+ps4x3C8unjV80wvveULxZVzh1X/L+oZcAJKT3FEQoJhvNAq/r1LevQYsFTtS4gOrfNGE/v3HWZS8Kjl+Fwy0agxdjQtGyYavYODugSR50jjFgjxNlI3Wjq3R9Lew9FTlACPl5wVpErwbLKtHs/q1H2kHC2d6LIvg7sqo6mSoNH4F6TLpeO80AuJt3+ptRM+fjb7D7ga0fZ+7izD/DFM0F4HwaRgQbstD9/YBzJoGvDCspsXpnd2XZz1YUv5rcW/C52HI2VTcJnhvKbgQjsWtJ3mLijX3D295iYhCBnDu8nP2p7LuIwseq2MIizEpAYODjDGDDJK4GPFjjdc5dgwtYduen1ggTiowSO0x775Cd1a1zhI2T2+CGSrMEBmnLMhgxYervzP18ZeRF4TXjVfea6mdK+CT5X3rjjIsOYWddIHMyyG786VFDPG0zScL1//+ypklzAMSE+eC5oTyc3etXQiF1TfYwEDLCf+/pXPZme+HQhvXzL+fL53HLmOHmOkzPtGZY3ManDsFsf4w/Cz4xuQ4MGvhXHTcCrM4gWdj299adLarwHOYVFBrly6JQbbr5bvY1wTARwgXZKl6c+XyS9X6s42ER9Ifz4wNkf3lMYxOOHonpv67IMqeria+tAgDU0NZ6Ts99vjhmxJXnxy9c7nEGkkxl42F38yo2i0EmHgic1L5GwS1HnNell4Zhv2/zXHco16kbbKq2vQxt1Vqeb03BAJs5p0regKzJTVnhMeBy+3Tg6QXxT2KuzqE/Vra7IrIeNwiKAZbpFL1wljpJYaOQBkdHJTFFOmnBo+I1ezCFsrrtKw90howdv4NAM3kthRKv6C1IBz6i6F1T1C97cVYV4XVX70EC8/O1S41cu6lPGn3Aa9/indkKgPU6HZuGNFnkhOpnBoZbwcmsWNS7EW7l/V+3o+VQdziZzla5f/cQhh1YCPy1z3porz2zSd2JZ5UUclkr+8Orn0j2+6hMmeX2iP3KsgDDZu0tAxu547QtDq4J68VzU+NEPOPlbo5HFv1xks5tB3sc/+9lYCsI9BEREeUZGPco/jS3V/vfDX9fKMSNGHyO8Pf/vlzX2jNUh2Ef98fUvHWyw9PcAnn/vfONr07eevRqFKWLUs7en1h4CQYFHbBB+peF0VQrO/v7+4XxjjCAxcCugyAzIDfrsjOypuhvSV1WWr82HgJc4wE99L8pWk5Js6smMjAx5X1JiM15svi55tqWB59wpT3hGL35++mLD46+rXmGijYzrLfzNdKXC7IPC8+4e+0TvqmB1Go4fwDEH2OGTK+xmdP8tdSjeLFmwHBbeuafQ0JRQzoFN0vlfszQs3GGFCB84EQJfnNiNHWPHs1Obsf3mGSUmnQDhWLJY7H6C3Dh9rDzRGl/a+uGS7ugN/HJ07xRNCTFRwtNpgTwvqTZD3vfnXCEnWJyt89I3S6QfG9hfwL37VnECt9U2bXf01ZN14KdNZ+FLBfYX3uL5ACtsdYfBaVMJ7DngbA9b7HHiOs4LwqnbtT2f+vQHGhm4/Ye8+t0yeTQCjmDAkRcw/MWp4nUhCyBAOL06rkO42EmUJ70+K0Pc+vSnufJiiRVj7yKMhGFbhe3cVuc/NVd/uB33I2DXF7u/7lZZY1RCf9lvkAp1fEFtA8EBjHDJj09DBEtTOJzSmWBZB5N5fQX+bKw8FNe3HuQHicCn+eWkIDFp8tP8bTdfi5hAFJlBqzi5GFJYYjM+lzdu+oNJBycT49NQgd8UnBPUlgW/9DDB67t7zOPFr32zgbU5j9U9CAq0A2ZBPI6DUEdCmNOb6h5aQv0IhLq0A40XtHVKY1eXMp7MAyIKbRg+LG0TgXZNaGCUGxTZST5ZOI/rOf4iChaeZyHqvCB54+E/U4QNCQxx6yvFeRm05JWb6luM8zcTAhdNGEL9u3Wm78TZNTBGxQSBX5E4IFHtXKmLg7dm6i43Y4HAG7dfZJw8bZHsNMrKfsdpZk5gBBiBOiFQ/1myTtW2jkzRiQNo5GWPWHZ26/f/soxvTZFe2pECranf7aWvEcFB1EccctgnfpIcMrQ0ym4CEVCH67Y07QWX9jBOZ56Y28PYeYyMQFMh0K4JjW6gC4CxzITzlTZ98zzlpe1qKszrXe/qDx4ytnbXpzCMa1laLgLbhOp7cI84uW0avVRkBksRMAyGwWZLEZsxp815W0vpU0vox2PCkDrAt/5fo87O8GqOMenHJ7jTNqc5+s5tMAKuEGCjYFfocBoj0AwIwAYDW7RDgvylVqYuu3GaoVvcBCPACDACrQqBWn9aBAUFtaoBcWcZgdaIQIk4DLDkeBn5+vmLT2scAfeZEWAEGAHPIlD/rTOe7S+3zggwAowAI8AIMAKMQA0EmNDUgIQjGAFGgBFgBBgBRqC1IcCEprU9Me4vI8AIMAKMACPACNRAwKkNTXN6CJ41a5bs2FdfOZ6rUqO3HMEIMAKMACPACDACjIAFAqyhsQCFoxgBRoARYAQYAUagdSHAhKZ1PS/uLSPACDACjAAjwAhYIMCExgIUjmIEGAFGgBFgBBiB1oUAE5rW9by4t4wAI8AIMAKMACNggQATGgtQOIoRYAQYAUaAEWAEWhcCTGha1/Pi3jICjAAjwAgwAoyABQJOt21b5OWoNoRAp+SxFJ0wkE4U5dHeZZ+2oZF5fijePr7UZcBkCo9NIv+QcNmhkoKjtGvRuy47FxabSF2HTJd5dv/6PlWcKHGZnxMZAUaAEWAE7AgwobFj0eBQUEQs+fgHEk63PlHUPCdcN7bNroOnUcdeI6iyvIwJTYOffM2CoTHdaMy1z5Cvv+MZaJUnSmslNFHd+lPiyBmy0oOrv2VCUxNejmEEGAFGwCkCTGicQlP3hPE3/UsSmqP71tOaj/5W94KNyOmJNhvR3XZTdNB5cwwyU1FWTHlpO6mqspxK87PbDQY8UEaAEWAEPIEAExpPoN4C2szcuYKqKk5Q2fHcFtCbttOFMLHMBCnI2EfL37qzXgPLP7KXMncsl2XKSwrqVZYzMwKMACPQ3hFgQtNO34DDG34ifFjch4B/SAR5eXnJCrP3rK53xfnpu2j9F0/WuxwXYAQYAUaAESBiQlP9FnTsOZziBk2h4KguYskgkMqELUxRzmFK3/wL5R7a5vCuhHZMoC79Jxhx3r5+MhzWMZF6T7rciEcAy1Dm8kReFNNjCHXuN062FxAaJTUlBRl7ZX6UMUvj2yRKGH4W+fgFOFR9oqSQ0jb+7BDn7Ab9jBtwKkXE9aLQmARhf1NKx48eptS13xMm46aQhrTp5e1D3YadQbBJCekQTxWlRXLpJ33Lr3Q8O7VGN4FJj1MulPHpWxZTpTDG7ZIySdgYDSffgBDKP7Kb9i79mEoLc2qUhR1SZHxfGe8fHGGkRyUMcHgXyoTxdeqa74x0FYjtPUr2Ud2rK/JWCg2aK4lOSJHGx5HxyVRakC3fnUPr58v3KiAkUmiJ9lLOgU2WVdTnfdcrCAoKoiuvvNKIysnJoS+++MK45wAjwAgwAp5CwCsxMfGk3nhSkk1lvn//fj26ScOePZzSi0657lkK79LL6Rg3zX2OMBkq6T76PEqeep26dXk9vGEBbfnuXw55TpvzIfkFhjrE6TdZu1bKX+onqyqN6Ma2iYqmPzjX0CCoimEU/NNTs9Wt0ysIQv/pNxPIgpVgIt36/StWSQ2Oa0ibQZGdaPRVT1JgWIca7Z48eZJ2LvwvHVj5tUMayky67T8yDmkgft6+/g55qioraMXbf6bCrAMO8aOueIyiEwc6xFndwCj4p6cvqpEEWyiQVbMsefVmKs49Yo427nuMm019JtuJhUrAUldIdJy06QKZWf3BQyqp+lr/912vQHxf0HPPPWdElZWV0WWXXWbcc4ARYAQYAU8h0O41NMlTrzXIDLbJ5h3eIX7FHyTsIooSv4Dxq9vL29FdD7QRsEFREttnjCQKMALNObBRRctr9t51Dve48ameLMsKj1FB1n4qzkkn38AQiu09kvyCwii2z2gaccnfafWHfzXKNrZNVJS163ehfQqWdUbE9zGMV41GnASSxp5PfadcY6SiLwWZ+8lf9DVCaCdAHqwIhFGgAYGGtSkm6+ufN8hiSX4W5aZuJWh5orsPls8IRBTajIztyyx7BeIIyUvbQSV5mdQhaYh8B7AVu/8ZN9PK9x5wKJex/TcqLz0u40BSFbkpPpZOheI9UlJaUFO7g7QMYTMTVW3HFBzdRb53qoyza6fkUwwyA5KWIzR6ZcV54v0ZReGdezgrJuMb8r67rJATGQFGgBFoIQi0e0KDSQCCiWHJKzfJrdf6s4npOYyKjzn+UsYSkr6MNO2eT+UvYuxoWf/5E3pxy/Ch9QvoyNZfxaRpXqbxovE3vSx/sXdIGizJTblYEoI0tk3Uofdt+MX/J7dtI96VgGApTQC0FNjFdezgZoci0KQER3V2iGvMTUPb7DZsukFmcvZvEIQQO85sCshosQQ0UmhTYOPSb9qNTgkN+r3+iyeEca6NsEIjNfmOtyUpiuqWIlJhI2NXaqau/UEsuf2AYpKMTLr9TRk+uGYeHVw9T4Zd/dmz5EMjOWH4mYI0/cG4dxZQ2kG8s6vef8B4F7FVfMIfXpN9dVa2Ie+7s7o4nhFgBBiBloSAo+qhJfWsmfriL2wNILAHgR8ZsxwVGhZXqn9z/rrcb1/whgWZQcmTtG/550YVEXG9jbCnAj3HXWQsM+1Z+lENMoN+HVr3o1jKecdtXWxom91HzTT6sFEsE+rE41jqFjpWbU8SEBZN4Z2sNRmwsVFkBpVh2e/Q+h+NegPDY4ywJwIh0fGGFgfj0Yk1NIy7hEM+V+KJ991VfziNEWAEGAF3IdDuNTQlwj8IPLTi1+3QCx4QhOIzYQS6x134uqjHizr1HU1hnZKkYbCfMD6F+IvlESV+gWEq6LGrWsKANmD/ii+bpR8NbTOg2m6mOC9DekA2d/awMH6G5gsCu5WCzH3mLJZGtLqGLjC8g1yyqlGwmSJCxbuqJG3zIhU0rkeErdfAGX807s2Bxr7vqampdPfddxvVlpSwN2MDDA4wAoyARxFo94Rm58K3acSlD8uHgOMA8MGvcmhl9iz5iI5sW+r2BwQbCEw6vgE2exZnDXj7WBvgOsvfFPHBwsAUgp0/upFyU7Sl6mxomz5+gbKKMovdSEgoEURHiWpD3atrSX6mChrXihPFRljZPxkRzRwI7dDVaBE2PmbBsiCekzPj7ca+75LYNuOGAfP4+J4RYAQYAWcItPslJ2yRXvX+g3KLtgIJk0GImDgGz7qHTv3Tu2KLcjeV1OgrtA9Dzr/PIDOFWQcpbdNC2rfsM9r72ycOu6nErNTo9hpbgSJdzXmuUEPaxDNTPmAqyqy1BuVi+7YSGDRbCQhBSxYcsaEEO9TqK839vte3f5yfEWAEGIGGItDuNTQADvYVS1+7VfpowZJEwvCz5e4WTJDYITPo3Dn19vrq7IH0nni5MfGu+fjvBBsdXeDfJm7AZD3Ko2FoO3wFuXNGAJqicw1pE1oJpZmADxYrwXKRkmIL7YZKa8lX3Z4L9jzwNWMWZ9oZla8533fVJl8ZAUaAEWhqBJjQaAjjF2/WrlXyg502U+58T6rurfyEaMWMILb21iawmYHAzsNMZhCPbdD1kbq0WZ/6zHmPHz0ktVXwy4Kt7NgK3dTS0DbLS46L060jKMjJjqvwzj2NrsNpYmuUIuHIUAm2iMNnkS4RLvwp6fkQbsj7Hh4eTvfee69RVXZ2Nr344ovGPQcYAUaAEfAUAp5f0/DUyGtpF9ul63rOkfJDAgdttYn69RwYGi00NY7wgzQkiC3QdZH6tFmX+pzlyd6zxkhKOes2I2wOgAC6SxrapvL7Iv3BiG3aZoHDPCVWmg2V1pKv+UIjo5bFug05ncyEtuf4ixvU/bq+71FRUdSvXz/jM3r06Aa1x4UYAUaAEXA3Ao4zqrtrbwX1TbnzfWnTom/jhZ1C4shzSG3R1Y1JrYaklgGgwcCWY2gJnIlyvQ/y0lc4eVP2InBMN/7mf9XwUOusnvq06ayOusTjvCellYnpMZSGzX7IwSEfthGfcsMLNGjmXXWprk55Gtrmzp/fNuqHnx2lWQOJhD0Ung8EmrG6klWjwhYSwIGi6ggFvKfwNIyjF/Cu9jv9RumU0VVX3fG+u6qf0xgBRoAR8BQCta+ReKpnzdQuPPTiTCV8sIMDu3kUyVBd2Pbjaypoed256F0ae+0zMq335CsIHyXmIwF2LnpHerNFOvym4AO3+MrYE5oXV8ciqHrr0ybKnPbnD6SjPlVeXXGO0Rl/+UbdyivsifQlGTjkG3P1PyXZiu0ziqbe84lcroB2QGmcsoXXY3dKQ9rENmwsGaKParIHAdCPMYB2Y9t818/TneNwVdfwi/5KHYV3aCuZeOvrDtHw87P/9y9l3O4lH8jdeCBo2K015pqnjbxYRtKfi5FQHXDH+26uk+8ZAUaAEWgJCLR7DQ08yioVPoyAdTJzQhxQuf7zxy19k+gPD0cBrHz3PmFcvLXWrc1Y6tj41dOSEKg6FJlB+dUf2I87EJWpLDWu9WkThb19bAdo1qjIIsJ81AP6/MtL1zo41QMRUmQGDgmxU8ud0tA21332KMEBIMgpRCczOI5gySs3ii359u3bMlN1Xlu4JuYnq+xxql6Z1/RHT9PLmLIZt3rfjEgnAX1pCQQYZz1limMTEIagbdgerXzvfuMdBDk3S2Pf98rKSnOVfM8IMAKMQItAgA+nrH4M2JqNX7tY+sGpyjC+LDqW1mQPCRMUjFTDYruLdtKlx9fm8vPSmEGBxMARIfqOs6sKMw80KU7oa8Pa9JL9hLdlnJmVe3i77G9jxt5Sy8J+CQbRNs/IXkLjNld2FV6nd/3ynmW3m/t9t+wERzICjAAj4EYE2v2Sk8ISv27xaS6BVghnP+HTmgSkCyc642MlcDzn7Vt3bZCqAxoGECQrqa1NqzKY3HEyNj5tXdR5Xxhn3MDJxnALxQGizqS533dn/eB4RoARYATchQATGnchyfVIBEZe8agwUk1uEBo/PjazQeXaYyE4fDyydQnhEEzlMbhjz+E0oHonGsihsxPF2yNePGZGgBFo+wgwoWn7z7iZR9juzbKaBW84fOw++lz5UbY7ylMyOrB53kvCrsZu+9MsneJGGAFGgBHwIAJMaDwIfltsest3L0k7pPqOrTXYD9V3TE2ZHzZBEcKOCYbFisiA2MDwecOX/2wXS21NiS/XzQgwAq0PASY0re+Ztegew8+O8rXTojvayjuHXXUQnBIPHzQVYrdTaUF2Kx8Vd58RYAQYgYYjwISm4dhxSUbA4wjg0NDmNGb3+IC5A4wAI8AIOEGADR6cAMPRjAAjwAgwAowAI9B6EGBC03qeFfeUEWAEGAFGgBFgBJwgwITGCTAczQgwAowAI8AIMAKtB4F2S2iSkpIIHxZGgBFgBBgBRoARaP0ItFtC0/ofHY+AEWAEGAFGgBFgBBQCTGgUEnxlBBgBRoARYAQYgVaLABOaVvvouOOMACPACDACjAAjoBBgQqOQ4CsjwAgwAowAI8AItFoEmNC02kfHHWcEGAFGgBFgBBgBhQB7ClZI8JURaIcIvPdUIiV08XcY+Yff5tIbnx51iOMbRoARaHoE5r3ek0KDHfUMT72ZSd8vLmj6xttAC0xo2sBD5CEwAg1FYGCfIAoJcvwC7d+hsVc/AAAaSklEQVQ7sEZ1544ZQAF+vlReUUlfrdhspI9N7k7dOkbK+wXrdlJeUYmR1hQBL1Hpyaao2EWdnmjTRXfcnuTj7U0hgf5UUFzq9rqdVQhMw4IDm7VN9KWhz9LXx5sC/f3oeEmZsyHJ+F5dYmhYr64yvGFfOu1Ky5LhcDHWM4Yny3BaTj4t27Zfhs1/eiUGkDc6qUnPbgHaHQddIcCExhU6bTDNPySC/IMjqFIcZliSb/tna4PDbPCQfPwDKSgiVsyaJ9vVGUl5BZX04vu2wy3XbS2ugd9F44cYp3rrhOb8UwZRfIcImX/HoSyXhMbP14dmjkqhcf17yIklM7+QnvxsYY22zBGTB/ai6cP6inYiCRNL7vES2nE4k/4z/3cqPVFuzu6W++ZuE3PY5aeOoBG9ulHHiBA5hsy84/T7zgP06dINbhmTqsRHzJhjk5PkBNstJpLwXCA4rb1QTNjzVm2l71ZvaxLieM7oFDp7RH8KCwqQ71Nl1UnKyC2gb1ZuoaVb96kuOr326NyBLps8nDqEBss87y5cTRv2pznNj4RQ0daNp4+hvl1jCcSiorKKUrNz5RhX7DjgtGxkSBDdOH0MDUjs4oDRsePF9L9f1tLKnQdrlB2TnEhnifFBQgMDDEITFx1B540ZKOMzcgudEpoHn0unoEBvio/1oxtmd5D5+U/dEWBCU3es2kTOwefdQx26DxKnM5fQz09f3CbG5M5BdBs6nZKnXi+r/PWla6m0MMed1bfYukBoPvjmWJP0L0j8sr1g3GA6fWhfSUhUI/iFXptgErhowhCHbFGhQWJC7i4nqHvf/paKy044pDf2prnb9PbyoocumUbJXTs5dL1zVJicBBM6RtEzX/7ikNaYmyunjJTPwlyHl+gHJnwQhqlD+tKct+ZSZVWVOVuD7x+98iwCIdEF5AqE+A9njRNELpS+XL5JTzbCKQmd6SrRb6UNVAkdI0NV0PIaERJIT187U5IalQGkGP2445wJcrzz1+1QSca1S1Q4PXXdTEL/dAFGHcJC6E8zJ9Kvm/fQGz+u0JMbHf5yQZ6so0/3ACY0DUDTUdfcgAq4CCPACDACzhDABPTGHReLX639HMiMs/x6/JAe8QaZwa/qz37bQK9+t4z2Z9pIZrT4lf5XQQTcKZ5o87ppow0yA+3Tf39eRW//tNJY3hjWsytdPGGo24YJAgWBdmT1rlT68Ne19NzXv9LXv2+W2gukxQqicOvZ4xB0i5w2uI9BZqBVe/nbpTTnzbn0+o/L5TImGrlQkF4zqUP83eefSn+5eFoNMoO02uThy840yMyOw1n0yne/0efLNkptFMpefdpI6hMvNLImuX/2aQaZwRLRmwt+p4c/mi+1SMANAi1e/26OJNRUDd82MwKsoWlmwLk5RqA9IRAeFGhMDFDVf/TrOrpyygj5y7g2HM4TdjtKoKHYdCBd3i7fvp/e/OPF0qYhMTaaosOC6VhhzWUyVbY+1+ZuE9RiQkoP2UXYJz3w7jzDrmTDvjR66ebzZdo0od36ZOn6+gzFad6DWbk09/ctksCUlVcY+dbsPkRLt+yjZ66fKZeDRvVJFGlLjfTGBGaPH2wUv/e/39LRgiJ5f0QsN+1JP0pPC20IZKZYksJyoi7QVEGwJLZcLBEdPppXJ4LXVSyngZhBQEoeEYTERkWIiktP0FWCzEDwzJ/6YpEM4w9sxaAtgoC83P/OPENTtVOQImitQGYgo/om0rZDjv2VCfzHIwgwofEI7M3XqI9fAPU45UKjwdCYbjLs4+tPvSddbsQjUHQsndI3/+IQh5uw2O4UN3AyhXXsToHhMVRZXkoFmfsp7/AOmf/kSedq6fDOPahT37Hyy2jvb5+Qt48vxfYZQ136T6Dg6C5UkptBB9fMo6P7an5Zxw08lWJ7j6TQjolUmLmPMnasoOzdqyhhxAz5hZu5ayUViz5bSYekwdSx10iKjOtD3n7C4PHIXsoS+bNEebMkjpwh7YoQHy2W45QAt/LS4+qWTlZV0p6lHxv3esAvMISSRP6Izj1tGAkbpdLjxyhn/0ZK3/IrlZcU6tkdwr1796ZTTz3ViNu6dSstW7bMuG/NAUyYmcJm4P1f1tC6vYflUEBoapPgAD/jl3OWsCVRZAblYNMAA00lM0am0HuLVqvbBl890eaIPgmGfQZsSHTDXIxLCfoGbYA7Js+FG3epamtcQTAOZB2jpE4dJBHtJMgEnp+VYAkRtjAQEAXYwUCTZiVYyoIcFHUrMqPygWygze6CnA5OipN4gNwpQX5oVz5evJ6Ol5bRxAE9VZLL6znCXkvJB8LmRZEZxJ0+zGagi7C5TdgVKdmXcdQgMyru5w27DEKD5UCWloMAE5qW8yyapCf+IZHUc3xNWxkvb58a8TASNhOaYbMfEgRkVI2+RQiiAHuTXhMvpZXv3ufU1iS2z2ijnSNbFtO4G18kb0GmlIBgdRSkZcV/76b8dNsXLfo24pK/E0iJEuTrkjJJ9g9EBwIidWDlXJVFXkHUhlxwvyAzjpNmeKce1HXINEloNnzxJFVV2n+Z9jn1agLxM0vCiLPNUZaEplPyKTTk/PsMo1lVKFwEYnuPop7jLqJFL1ypomtcx44dS9OnTzfie/To0WYIzZ4jR+muN782xlbXwMDucUbWdftsRAgR2JHzR2G/oAuWidxBaDzR5sjeth8YGI9uoAq7ktOFIbQu0Ji4g9DodVqF1ZIK0iqdEBSkXTppmNRmIAwBUcovqrlTSmk7kOeIE3J0KDtPEhrYqHQVY9+fabfnqovhOOo2S0piZxkFzc7mg/YfPtMFmVFaH2RAm33FstOWg0dkfp1wwTDYLDDwVZIrtI4sLQcBJjQt51k0SU+gGcjcucKou0PSEPL1D5Iak6xdvxvxCBRmHnC4x41fUIiMw66o/Iy9VHT0kLyPSkghkAzsCBp/y6vCwPgSEa//BpLZHP6MvOJRSWaqKk4IbdARqqooE3UkEHYW4UtFyYAZdxhkprK8TJIQqdkR5ECRGZXXfD3lhhcopINt2yS0K9l71kjNCggOdneBYAw698+04cunjKJpG3+mgLBoeQ9tVHBUFxmGdqXihP0LCxoas4CcDZl1j9H/4wKfvMPbRZtVUrMVES8mJfvQzMVb/T0mCyVVWljFNfQKw0slUPMrgXYH2gpMulUCY+zQCRVbjt0hnmgTdkBK9KWWObNspB0aG6XdiAqrObmqsu68Kg0FtGv65O7ONlzVFS2evU5oXOV1lRYSYHsvcoUrAUXSsOPpCrGbDKJj2yHc/hzgegC2TDA+BxmDHRgIFwRGwmeN7CfD+LN4814jjID+L6D/P5ys5bvRoRK+aTACTGgaDF3rKFhRVkzrP3/C6OzIyx+Vu5ywbKTHGxlMgUyxzJO69kc6snWJSLFPXsiG3UDdR58rCVLcAKE9EUsrriQwrAOhvo1fP61pSLxkHaUFR2VRLN3EDbB9maPvS/59M50oypdpIBun3PCiQR7MbYHsKDKTc2ATrfnob5LMIB+0PmOve5agqencb7wgG59SYdYBWcW2+a/LK/5gPGqX0+ZvX3CqeVIFsCSGuiFpmxfR5m9eUEny6hcURjGCRLZ2uf6ljwUv8xJvgOM78Jf3vydfoTWBuHMLtT7BqGUY2ERgmQPyvlhiwhZgkBB9+UkmNvCPJ9qMqNYAgBiqSfcMTYPw6Cc/0VPXniNHpJOfBg6x1mKzxg40tC76Ml+tBV1kyM63L9vqmhG9SNcYu9ajg7CJcof4V29HLymzb+2/Y8YESUqKhA0NtnxjpxMkRiPQuIdNzX0XTiFoaP55zTmS2B0tOE6942JleTyveau2OSyFotzHS9YZO7VOVNi1wCDl179oW66ucOPOMbTJYkeAdznZseCQBQIHVn0jyMxikeI4kSHr7iUfGCWiuvU3ws4CZYXHaP0XT2hkBjlPimWjrw3i0G3oGQZhQf2KzCAnCIhZq4R4JX2nXCOD0Oqs/eQfBplBJLQrOxb8R6bjD5bL3CHQ+igpOLJHBY0rNGRHtrnHsNKo1AOB0hMVVCJ2p+CqC2wdEI9PzTdEz1m/cJSmuVCEZs55k2UlsLlYsH6nMOy0TVTYhutVv+otc3uiTWWDomxPoI2BPxrID2u3SwNYpQVTmhrLzrshEksp2GkEgXbm398vd0OttiqUQzrYycCIWxcsr8FmR4n+HFRcfa8w7FVaX5AXyJCkeBrY3aZ9fWHuYsrRDMmhFdIFtj53v/WN1NQgPiY8RO7AUtu4sdvuI0FezAJSqv4fFEFVeVS8bh+k0vjqHgRYQ+MeHOtUS9++fenBBx+sU16VafHixfT222+rW49dI+P7UHTCQGnIC7sc/FrXxVdoVmqTvcs+rS2LMABOMPKkbfjZCKsANEUwMrYS9AsCjclgsazksNbj2F2SS0Eyd+P+FAhjZSV9Jl8lltHKJYGBdqmu8tlnn9HSpXbSk5ubW9eibTafn49N64UBYlcJvKzCQBWTu/LJUqkZo3uLpQDzBFJfcDzRJmyCIGp54vYZ46UGACQO26ltaWKpQ7y/PoK4NZVAy/V/l55ukIAXv1lSq8btnre/IYUZNHdW9jOqv18I/zLYIg15SviF+c/8FXIZp3d8DF03dbTKJq8gqI0V1S/UUyXeE9R5e7U2Zu2eQ7Q1NcPYRo485jbh9+b+2VPls0B6sdDyVFRWGg4BbxPPaZQw6AZO6tkhH4tnEWBC04z4R0REUGiobTtgXZuNj4+va9YmyYclnOEXPSSIjN1I06oh7+plF6s0FVcgbHBqE2W/gokLzv/MUpJnvUUStjzqFxnsbWCo60oCQt2zOwE7vWA3A3si2AKlnHWb/MB+5+jedbTj57eo7LhrglJSUkL79+931d12l5ZXZCeEWGq6fLJNa/HNyq2UmWfbdRPsb7ORAJFpLJkBwJ5oE5oLHDuA5REYN2MHF+S5rxcbY1JagcImOpoApOrRK880bHVAPrBlvDapj30NnNedNrg34VnCBgqO6XSB5161YyhLW6LS89QnjN1QSuCxF2QK7UI78orQrkDgUkCJbtwb6O9rkBm8V0+L5Se1/IY6HhBEp6c44mCkIDTniSU6Z84AVd18bT4EmNA0H9aUmppKa9fafnXVtdkVK1bUNavb82Hnz5hrniK/QBsJw8R87OBmKinIppPVu4SMHVSaUa+zjhSLLdq1CbZYS9F+fetlYGxrJTpBKco5LAyhHQ2ezWWKc4+Yoxp8v+yNOwhbv3uJbfAwuIYAsy4pE6mz2J6eunoebf/JvtzV4IbaUcGcAjuhue1sm9YChpqfar5YMPFAyjVbhcZA5Ik28wVJgeYJZPyP1RoE7HZSZwCpMWJceRY7iBozXpSF4vKvl5xOaufOki176QvheK4pBP5n4CBw6pA+ksShDRA6bOf/XRwjcO8FU2SzzraJ17dPIC8wGu8svP6CSEHg2VfZeoUFBxhV6n6M4PNHkcgvl280yAwyQ1Pz2Kc/03+Es0hpICyOOWBCY8Do8QATmmZ8BBkZGfT44483Y4uNaypuwGSDzGB7NLQNumCLtEFo9AQn4apKm82Dk2QZXZqfLQ13sWzk5eUtt2br+f1DbV9MehzC0JIoOZ6dSrt+eU/dNvlVbh8XtkawN4KmpnP/8cJG5wwCycJElTjqHLEMtZjy0nY1eV/aSgNwwqcE9hCQZ7/6xbDTwUQcIn55Q3D+kDNRE5NKd6XJ8USb+mGeWPaB7YruTr+rOL9Kia5FUHHqWp9xqjK43iNIRJ/4jjIKWpnXfnCf3YzejgrDOSA+6G+Q0LApTYqy3UE+pYFTZRp6hc0KCI1aTtqdnk3LhFNGJeoMMtzr2ibdnmftnsMqu3EFIcrMK5AkEBobeF7mZScDHo8GmNB4FH4PNC6WciAgC7VJZDf79sSdC/9bIzt80bhbdM0JDI2PpW5xaMKZ8TFsVuBbBstNaqeTQ8G63lTjg+xeoq76CojVniUfyQ+Wn5TxcUyP4U4JzfDhw2nWrFlGU9DiffXVV8Z9ewzsTst2GDY0B/sycoy4ZOFkTk3iqdVbao3E6gDO8fn3rbMdouHCftHG3Q5x6sYdbUL7gKMMdLnllc8cHObpafDTA1sMJa9+v0ySGnU/tl93FRRaG0dMVEJ921TlYAeCZS4I6sbSSn3kmtNGya3NKINvlX+b+u6qLhBLRWaQT+1eg1ZF3xXlqo7a0tKP5RvLaGjvebGMp8twcRCoEv3dCqjeHYU0RYZUPnX11r4/YdtUJfrN4nkEap/VPN9H7oEbEVCHLWI5SXdwZ9WEt4+fEa0b66rI5KnXqaDbrhnbfzPqwhKOLiBhiiDo8SpckLFPBtFXV2RLbbNW5fSrfgJ5mPBQ3Bg5ute+vOgbYFuKsqovJSWF+vXrZ3xGj3acEK3KtPU4eKzVfzV/K06A1gVGwkrmrXZMU/Fmw3XEq3OMVB796o42rep3tRoLr7NqFxMm83XCYFUJCNu4fknyFhPyb9ts77dKV9f6tolysClRdcPHyiMf248FUPXWdp00sKe0I4EtCUiZvjxWW1k9HadTwz8M5KcNO92m7cCJ4Urg8VfXhsG/TFx0uEzGUQp6mk5uxvW34a/qwRV97VR9pAK0NXhuLC0DASY0LeM5NFsvjmcfNNoaNvsvFBTZSdx7GXF6ID9tp3Gbctbt0okeIqAFGSq88YZ36WWkuyuAZRm1fBQtnPcNFk7rQqLjhd+YRBp99ZPGEQVW7W365jkjetQVjwl/M+OMewRAdAafN4dOv+9zp4SnMMuOT/8z/yDzYbzOJGns+TTp9jelDQ2W4JSgreRpN6hby6MdjMQ2HoDvkdF9xfOr/qglJD/xy1bF4QpbEl2wNVsJDgvsFBlm2C2M7G3TamBLru54T+Vv6LW528SEuDMtS3YXyyN3njtZGq9iKePPYpu62qqN5SC1tbuhY1PlZogjAeAtFwIy9d2abYKQJMoTzHGKuf6Blstd8vfLphPaxhZokDCceH3LmacIR3fDZRPoizN7FGhT1LuS3DXW6FLvuBgjfnivrkY8AlguwhIepHdcR3lAKkgiyMzfL7O7h/h+zXaZR/3Rl5ngEwgHayrBlvOHtbI4koGl5SDg/Ju65fSRe+JGBFLXfCfPcIJ2JqbHUJp023+M2ovzMmjJKzcZ94fW/WgYumLbNiZueAzGbh4IdiEpI1ijkBsCm75+Vhojo4848wkfJfBlo7z6qjh1xblOWO7BcQzQQOE4AnxJwomgj5+jN2JVxnzFkle+8CcTIcgaHAGOvfYZhyw/PjbT4d7HN0ASvX6n30T4wAcO7GZ07Rf6ZXVWlUNFbfgGZxJNETtczIIJXN/tsmDdTnpn4Soj24/CD8u4ft0JB1DCgd7zN55npCGAZwt/Iu4UT7QJfy//vGaGdBCISfnNP8Lrtl1A2t4SS2XuErXMhPrwroJUOBOchm32hussb23xsE3BydaXiSMTzIJn+bx4ljC6tZI5syZbRdP4/j3kRyVe9vT7Kiiv/5q3VBJDjBMegpWXYJUJxtdYztQF50qB2GIZDOWuP320WEYcRSeEJkaRceQHWcKp4SwtBwHW0LScZ9EsPakUxw4sfe1WeSYSjiBwJciLc5r0ZRhFZkAsfnv9druTPPGFZCnO4i0z2yLh22XJv/8gDpTcYzjHQ1+xw2rdZ48aJa18vexZ+pHss3LIhy8kkC5cISAc8Fas2+oYFVYHVn/wEB3e8JM8mBJftK4E50+pZTzk05fyUBZLaMvfhk8c5wIX/rrU1qaetzWE62owWSUtMewjgkbiIeGJGD5DzALNxsMfLbBMU3nNXo0RX1tfGtumVf21vELSZuRu4dMlp7BIdd24YsfPnLfmOiyJGInVgfq2WZ/3q7a+632pLS9sWqwExtj3iROtcdp3Y8RqXNC2wOuv2SEk8iLt4Q/nW74T7/68Sp4PppaT8P2hkxls457z5lzpRK8xfeay7kXAKzEx0eEbOykpSbbQnH4xlEFkcxpCemKc7n10zVsbllDCxUnSlUIrg2MFrMhEU/UI3nhPFNu+DHEm0/CL/0829fs7dzs1tEUG34BgqWkJ6RBPpQU5dFxs53Z2Ondj+462cKwClvC8hF+PoqOHqVAs7zUnTg0Zw/qvkykkyPF3zVc/5dF9z6Q3pLomKwNfKVhq6CCWKzbtT3c5wburE55oM0jsdBokTpyGM0EclmieiN01Nk/VgyWsHkJTg+eYLjw+7xI7j9y1lFbbmLDUhQMrM3OP0+70LMPPj6tyWBrDUmdCbBThbKjDos+HhM8c7KBqCtn2XT/y9bX9+FL1v/x+Nr38P2uDcJWHrzYEeMmJ34Q6IYCt0Ph4QhSZQdvxg04zunA82/UvOpAJkC98mlrQltyRZdqV1dTtNrb+ykqH3zOyOvMXamPbcEd5TPBWmhp31O2sDk+0iYlypfDJ0lYF3oTX18FpX1OMH0bm9V0+g/YLxuL4NId4wyW0SSos/kdNWfi2GgEmNPwqtDgEYAw84Jw/SYd0aZsWiqWfInmcQdLo8wxDX9ikWHkSbnGDaeEdGnGB3fC2hXeVu8cItHkEks+w78xq84NtggEyoWkCULnKxiHgI2xegiM7y11C2CmEgyX1rdawp9ky76XGNcKlGQFGgBFgBNoUAo6L521qaDyY1ooAzmvC1m1l5KfIDBznQTPzy4tXOxjittZxcr8ZAUaAEWAE3IcAa2jchyXX5CYEQGZ+e/02WZtfUJjYPh0tCMwxKi+xHUropma4GkaAEWAEGIE2hAATmjb0MNviUEBimMi0xSfLY2IEGAFGwL0I8JKTe/Hk2hgBRoARYAQYAUbAAwgwofEA6NwkI8AIMAKMACPACLgXASY07sWTa2MEGAFGgBFgBBgBDyDQIjwFe2Dc3CQjwAgwAowAI8AItCEEWEPThh4mD4URYAQYAUaAEWivCDChaa9PnsfNCDACjAAjwAi0IQSY0LShh8lDYQQYAUaAEWAE2isC/w869o7cMNtXoAAAAABJRU5ErkJggg==;" vertex="1" parent="1">
          <mxGeometry x="660" y="323" width="318.63" height="87" as="geometry" />
        </mxCell>
        <mxCell id="N-A8A7CQzxQLr3MDPCDJ-44" value="" style="shape=image;verticalLabelPosition=bottom;labelBackgroundColor=default;verticalAlign=top;aspect=fixed;imageAspect=0;image=data:image/png,iVBORw0KGgoAAAANSUhEUgAAAmQAAAE2CAYAAADPv47dAAAMP2lDQ1BJQ0MgUHJvZmlsZQAASImVVwdYU8kWnluSkEBoAQSkhN4EkRpASggt9N5EJSQBQokxEFTs6KKCaxcL2NBVEQUrzYIidhbF3hcLKsq6WLArb1JA133le/N9c+e//5z5z5lzZ+69A4DacY5IlIeqA5AvLBTHBvvTk1NS6aSngAIIgAzcgSmHWyBiRkeHA1iG2r+Xd9cBIm2v2Eu1/tn/X4sGj1/ABQCJhjiDV8DNh/ggAHgVVyQuBIAo5c2mFIqkGFagJYYBQrxQirPkuEqKM+R4r8wmPpYFcTsASiocjjgLANVLkKcXcbOghmo/xI5CnkAIgBodYp/8/Ek8iNMhtoY2Ioil+oyMH3Sy/qaZMazJ4WQNY/lcZEUpQFAgyuNM+z/T8b9Lfp5kyIclrCrZ4pBY6Zxh3m7mTgqTYhWI+4QZkVEQa0L8QcCT2UOMUrIlIQlye9SAW8CCOQM6EDvyOAFhEBtAHCTMiwxX8BmZgiA2xHCFoFMFhex4iHUhXsgvCIxT2GwWT4pV+EIbMsUspoI/yxHL/Ep93ZfkJjAV+q+z+WyFPqZanB2fBDEFYvMiQWIkxKoQOxTkxoUpbMYWZ7Mih2zEklhp/OYQx/KFwf5yfawoUxwUq7Avyy8Ymi+2OVvAjlTg/YXZ8SHy/GDtXI4sfjgX7BJfyEwY0uEXJIcPzYXHDwiUzx17xhcmxCl0PogK/WPlY3GKKC9aYY+b8vOCpbwpxC4FRXGKsXhiIVyQcn08U1QYHS+PEy/O4YRGy+PBl4FwwAIBgA4ksGaASSAHCDr7GvvgnbwnCHCAGGQBPrBXMEMjkmQ9QniNA8XgT4j4oGB4nL+slw+KIP91mJVf7UGmrLdINiIXPIE4H4SBPHgvkY0SDntLBI8hI/iHdw6sXBhvHqzS/n/PD7HfGSZkwhWMZMgjXW3IkhhIDCCGEIOINrg+7oN74eHw6gerE87APYbm8d2e8ITQRXhIuEboJtyaKCgR/xRlBOiG+kGKXGT8mAvcEmq64v64N1SHyrgOrg/scRfoh4n7Qs+ukGUp4pZmhf6T9t9m8MPTUNiRHckoeQTZj2z980hVW1XXYRVprn/MjzzWjOF8s4Z7fvbP+iH7PNiG/WyJLcQOYGewE9g57AjWCOhYK9aEdWBHpXh4dT2Wra4hb7GyeHKhjuAf/oaerDSTBY61jr2OX+R9hfyp0nc0YE0STRMLsrIL6Uz4ReDT2UKuwyi6k6OTMwDS74v89fUmRvbdQHQ6vnPz/gDAu3VwcPDwdy60FYB97nD7N3/nrBnw06EMwNlmrkRcJOdw6YUA3xJqcKfpASNgBqzhfJyAG/ACfiAQhIIoEA9SwAQYfTZc52IwBcwAc0EpKAfLwGqwHmwCW8FOsAfsB43gCDgBToML4BK4Bu7A1dMDXoB+8A58RhCEhFARGqKHGCMWiB3ihDAQHyQQCUdikRQkHclChIgEmYHMQ8qRFch6ZAtSg+xDmpETyDmkC7mFPEB6kdfIJxRDVVAt1BC1REejDJSJhqHx6Hg0C52MFqPz0SXoWrQa3Y02oCfQC+g1tBt9gQ5gAFPGdDATzB5jYCwsCkvFMjExNgsrwyqwaqwOa4HP+QrWjfVhH3EiTsPpuD1cwSF4As7FJ+Oz8MX4enwn3oC341fwB3g//o1AJRgQ7AieBDYhmZBFmEIoJVQQthMOEU7BvdRDeEckEnWIVkR3uBdTiDnE6cTFxA3EeuJxYhfxEXGARCLpkexI3qQoEodUSColrSPtJrWSLpN6SB+UlJWMlZyUgpRSlYRKJUoVSruUjildVnqq9JmsTrYge5KjyDzyNPJS8jZyC/kiuYf8maJBsaJ4U+IpOZS5lLWUOsopyl3KG2VlZVNlD+UYZYHyHOW1ynuVzyo/UP6ooqliq8JSSVORqCxR2aFyXOWWyhsqlWpJ9aOmUgupS6g11JPU+9QPqjRVB1W2Kk91tmqlaoPqZdWXamQ1CzWm2gS1YrUKtQNqF9X61MnqluosdY76LPVK9Wb1G+oDGjSNMRpRGvkaizV2aZzTeKZJ0rTUDNTkac7X3Kp5UvMRDaOZ0Vg0Lm0ebRvtFK1Hi6hlpcXWytEq19qj1anVr62p7aKdqD1Vu1L7qHa3DqZjqcPWydNZqrNf57rOpxGGI5gj+CMWjagbcXnEe92Run66fN0y3Xrda7qf9Oh6gXq5esv1GvXu6eP6tvox+lP0N+qf0u8bqTXSayR3ZNnI/SNvG6AGtgaxBtMNthp0GAwYGhkGG4oM1xmeNOwz0jHyM8oxWmV0zKjXmGbsYywwXmXcavycrk1n0vPoa+nt9H4TA5MQE4nJFpNOk8+mVqYJpiWm9ab3zChmDLNMs1VmbWb95sbmEeYzzGvNb1uQLRgW2RZrLM5YvLe0skyyXGDZaPnMSteKbVVsVWt115pq7Ws92bra+qoN0YZhk2uzweaSLWrrapttW2l70Q61c7MT2G2w6xpFGOUxSjiqetQNexV7pn2Rfa39Awcdh3CHEodGh5ejzUenjl4++szob46ujnmO2xzvjNEcEzqmZEzLmNdOtk5cp0qnq85U5yDn2c5Nzq9c7Fz4LhtdbrrSXCNcF7i2uX51c3cTu9W59bqbu6e7V7nfYGgxohmLGWc9CB7+HrM9jnh89HTzLPTc7/mXl71Xrtcur2djrcbyx24b+8jb1JvjvcW724fuk+6z2afb18SX41vt+9DPzI/nt93vKdOGmcPczXzp7+gv9j/k/57lyZrJOh6ABQQHlAV0BmoGJgSuD7wfZBqUFVQb1B/sGjw9+HgIISQsZHnIDbYhm8uuYfeHuofODG0PUwmLC1sf9jDcNlwc3hKBRoRGrIy4G2kRKYxsjAJR7KiVUfeiraInRx+OIcZEx1TGPIkdEzsj9kwcLW5i3K64d/H+8Uvj7yRYJ0gS2hLVEtMSaxLfJwUkrUjqTh6dPDP5Qop+iiClKZWUmpi6PXVgXOC41eN60lzTStOuj7caP3X8uQn6E/ImHJ2oNpEz8UA6IT0pfVf6F04Up5ozkMHOqMro57K4a7gveH68Vbxevjd/Bf9ppnfmisxnWd5ZK7N6s32zK7L7BCzBesGrnJCcTTnvc6Nyd+QO5iXl1ecr5afnNws1hbnC9klGk6ZO6hLZiUpF3ZM9J6+e3C8OE28vQArGFzQVasEf+Q6JteQXyYMin6LKog9TEqccmKoxVTi1Y5rttEXTnhYHFf82HZ/Ond42w2TG3BkPZjJnbpmFzMqY1TbbbPb82T1zgufsnEuZmzv39xLHkhUlb+clzWuZbzh/zvxHvwT/UluqWiouvbHAa8GmhfhCwcLORc6L1i36VsYrO1/uWF5R/mUxd/H5X8f8uvbXwSWZSzqXui3duIy4TLjs+nLf5TtXaKwoXvFoZcTKhlX0VWWr3q6euPpchUvFpjWUNZI13WvD1zatM1+3bN2X9dnrr1X6V9ZXGVQtqnq/gbfh8ka/jXWbDDeVb/q0WbD55pbgLQ3VltUVW4lbi7Y+2Za47cxvjN9qtutvL9/+dYdwR/fO2J3tNe41NbsMdi2tRWsltb2703Zf2hOwp6nOvm5LvU59+V6wV7L3+b70fdf3h+1vO8A4UHfQ4mDVIdqhsgakYVpDf2N2Y3dTSlNXc2hzW4tXy6HDDod3HDE5UnlU++jSY5Rj848Ntha3DhwXHe87kXXiUdvEtjsnk09ebY9p7zwVdurs6aDTJ88wz7Se9T575JznuebzjPONF9wuNHS4dhz63fX3Q51unQ0X3S82XfK41NI1tuvYZd/LJ64EXDl9lX31wrXIa13XE67fvJF2o/sm7+azW3m3Xt0uuv35zpy7hLtl99TvVdw3uF/9h80f9d1u3UcfBDzoeBj38M4j7qMXjwsef+mZ/4T6pOKp8dOaZ07PjvQG9V56Pu55zwvRi899pX9q/Fn10vrlwb/8/uroT+7veSV+Nfh68Ru9NzveurxtG4geuP8u/93n92Uf9D7s/Mj4eOZT0qenn6d8IX1Z+9Xma8u3sG93B/MHB0UcMUf2K4DBimZmAvB6BwDUFABo8HxGGSc//8kKIj+zyhD4T1h+RpQVNwDq4P97TB/8u7kBwN5t8PgF9dXSAIimAhDvAVBn5+E6dFaTnSulhQjPAZuDv2bkZ4B/U+Rnzh/i/rkFUlUX8HP7L1aLfHJt9l+lAAAAlmVYSWZNTQAqAAAACAAFARIAAwAAAAEAAQAAARoABQAAAAEAAABKARsABQAAAAEAAABSASgAAwAAAAEAAgAAh2kABAAAAAEAAABaAAAAAAAAAJAAAAABAAAAkAAAAAEAA5KGAAcAAAASAAAAhKACAAQAAAABAAACZKADAAQAAAABAAABNgAAAABBU0NJSQAAAFNjcmVlbnNob3QGR/5JAAAACXBIWXMAABYlAAAWJQFJUiTwAAAC22lUWHRYTUw6Y29tLmFkb2JlLnhtcAAAAAAAPHg6eG1wbWV0YSB4bWxuczp4PSJhZG9iZTpuczptZXRhLyIgeDp4bXB0az0iWE1QIENvcmUgNi4wLjAiPgogICA8cmRmOlJERiB4bWxuczpyZGY9Imh0dHA6Ly93d3cudzMub3JnLzE5OTkvMDIvMjItcmRmLXN5bnRheC1ucyMiPgogICAgICA8cmRmOkRlc2NyaXB0aW9uIHJkZjphYm91dD0iIgogICAgICAgICAgICB4bWxuczpleGlmPSJodHRwOi8vbnMuYWRvYmUuY29tL2V4aWYvMS4wLyIKICAgICAgICAgICAgeG1sbnM6dGlmZj0iaHR0cDovL25zLmFkb2JlLmNvbS90aWZmLzEuMC8iPgogICAgICAgICA8ZXhpZjpVc2VyQ29tbWVudD5TY3JlZW5zaG90PC9leGlmOlVzZXJDb21tZW50PgogICAgICAgICA8ZXhpZjpQaXhlbFhEaW1lbnNpb24+NjEyPC9leGlmOlBpeGVsWERpbWVuc2lvbj4KICAgICAgICAgPGV4aWY6UGl4ZWxZRGltZW5zaW9uPjMxMDwvZXhpZjpQaXhlbFlEaW1lbnNpb24+CiAgICAgICAgIDx0aWZmOlJlc29sdXRpb25Vbml0PjI8L3RpZmY6UmVzb2x1dGlvblVuaXQ+CiAgICAgICAgIDx0aWZmOlhSZXNvbHV0aW9uPjE0NC8xPC90aWZmOlhSZXNvbHV0aW9uPgogICAgICAgICA8dGlmZjpZUmVzb2x1dGlvbj4xNDQvMTwvdGlmZjpZUmVzb2x1dGlvbj4KICAgICAgICAgPHRpZmY6T3JpZW50YXRpb24+MTwvdGlmZjpPcmllbnRhdGlvbj4KICAgICAgPC9yZGY6RGVzY3JpcHRpb24+CiAgIDwvcmRmOlJERj4KPC94OnhtcG1ldGE+CixnrAAAAEAASURBVHgB7H0HfFzFtf5R771LtpqL5F7l3jC2wcZgG8e0AKGk/RNISCEEkpf3EkhIQiAhhUdegNBCMcUhgMHYxrjg3rvlIku2LFvF6r3955vV3L1bpS2WtOtzfr/VnTt9vrvS/XTOmTM+GRkZncTCCDACjAAjwAgwAowAI9BnCPj22cg8MCPACDACjAAjwAgwAoyARIAJGX8RGAFGgBFgBBgBRoAR6GMEmJD18QPg4RkBRoARYAQYAUaAEWBCxt8BRoARYAQYAUaAEWAE+hgBJmR9/AB4eEaAEWAEGAFGgBFgBJiQ8XeAEWAEGAFGgBFgBBiBPkaACVkfPwAenhFgBBgBRoARYAQYASZk/B1gBBgBRoARYAQYAUagjxFgQtbHD4CHZwQYAUaAEWAEGAFGgAkZfwcYAUaAEWAEGAFGgBHoYwSYkPXxA+DhGQFGgBFgBBgBRoARYELG3wFGgBFgBBgBRoARYAT6GAH/Ph6fh3cDAr7+gZQz92uiJx8qPrieai6edkOv3tVF1tSbKTginqrOH6OSo5u9a3G8GkaAEWAEGAGPR8BlQubr60uZg3JoQEa2oAM+VFdbTXt28AuvN78Z/kGhlJF3oxyyqabcgpCFxqbS5LuelOWl+TvoyCfP2ZzemKU/otiM0bJ864sPUXNdpc26nlQwaPotBJwikrKYkOkeXGBQAK342o00bvJIwed9qKqimp54+E+6GpxkBBgBRoAR6A0EnCZk/v4BlD1kGA0dPpqQVhIcEqqSfO0nCDRWXqTA0Ejy8fWj1JFz7BKypNzp5OvnTx1tLV5DxvrJY+hX0wiPCKXb7l9KedPHiudt9FwICQnuV/PkyTACjAAjcLUg4BQhCwuPpLnXLyU/P7+rBad+vc72lka6dHyrnGNV8XGLuXZ2dlB1yUmKTsslv8BgCo1JoYbKEot6USmDJRlDweWiIxblnpxxfv9nFBKVSBVnD3jyMtwy90E5GfTIbx4QCjEft/THnTACjAAjwAi4joBThCwwMEgjYzXVlXTkwG4aPX4ygaix9D4C7a3NtO+939odGH5TIGSQ5GHT6czWdy3qJw+foeWVHNmopb0hcXzdS96wDLesISpGaEu7yFh9XQN9+PZntPSOhRQcEuSW/rkTRoARYAQYAccRcIqQtbe3UWVFmSRi5WUXu0ad7PjoXtIiIjGTUkfNoYiETAqOjKf21iaquVQgHMiP04VDGwgaKnOBNipx6GRZdnrz25IkJeVOpfCEDOkDBl+vi8e+NG+m3UcmZVNc1hjtXiVK83dS/eVidatdS45somHzvyHvE4dOsUrIEgbnafUvdmnctIyuRHj8QAJxA7nDWuvKCqU27dyeT6yuU7XH2jBn+Lid27eGgsJjKGX4TEoS5NAvIIjqSgvp9JaVVueeMGgCpY6eKzV7/kLD11xfTfUV5yW2leeOqiFMrgEhETRgzDyTPNzUXDpDFQX2tWQw7Q4cfz3FDBxOYXFp1NZUT1XFJ+jC4S/Eeoss+kRGRt5iYRaOks/8cuEhSh4xixKH5In2A6i29CwV7f6YbM1VdThr1izKzTWQZuStXbuWCgoKVLHbrs1NzVRdVUvvv/Yxbd2wW/YLQsbCCDACjAAj0HcIOEXIoBXbuO6jvpt1Pxp5/IqfC2I1yWJGUalDaeC462jwrNtpxyuPUFNthUmdpJyplD19hcyTJGeYUTuFe/h6wQy5773fiTqdJm1xAwKYOXmpRT52WhZsf98iv0WQGMwhOCKOolIGWZSDhIA8QBouX6D2liaLOoNn3ibWc4dJvpp71pRltOPVRwXhKjMpVzfZU5cTMGltrKXG6lKaePsvVZG8gqylCBKz5sllunwfmnbf0xQpyKteMM/Y9BES34MfPCOJkr4cacwr59p7zbMlebRHyEKik2jy3b+VOOkbx2aMoiyxhhPr/0lnd/xbXyTTQ6/5miSWFWcPUu78r0sipyphLiCfR1b/TZJRlW9+Xbp0KWVkZGjZlZWVV4SQHdmfTz++zxR/bVBOMAKMACPACPQJAkZv3j4Z3vMHDQgJk4sAgYHf1bm9n8pPXfk5mQ+/pRnfxq5GH5uLTRZkrLOjnaDdgmkRJkhIUu40yp13n9V2lSJ8A4gFPtb8xqw1Qv8QkC+QI71A26bMWNa0Y8MWfEMjY2quRUIrVis0WxCsc+q9fxAp2+tEPWjDxt/yX0hSW3ODmHu+7AN9ionJfPUjd969GhlrE35y5Wf2STIEotrSUC2r+YhdvtYE5FPhg2tnpyWptWwnCOD9f9TIGIgjNJwVBftle+CD5wGTry2JyxwtyVhD1UWC2RfaMSUgaj5ma1RlfGUEGAFGgBG4uhFwSkN2dUNmuvpLx7dR0Z5Pxct3kygwfennzrtfaLGWkH9giNB4zbaqyUFvICMIMaHITWBYNM36zt9lu/SJN1D+hleoQ5iJ9YJx8YGg/tyHXtUXW01fOPQ5pU8wmKZShNmx+kK+Vi9Z7K5UUnzwc5WU1+DIBEqfuFimQYS+/Mf3THZg5lx7D2VNuVmaIbNFvK8z294zaa+/Qcw0CHy69JomhKQw1/glDjFoHkGmNv3tmxoJU/3FDxovtHmWmxNQ3lh1iXa9YSB+uJ/347dk2AukbcnA8ddRQHC4LAYJ2/XGf4u04ZnGpo+kvDt/LUkrTL/2zMmIBXfow2e1YcYt/6kk1yCj8dnjqOz0Hq2ME4wAI8AIMAKMABCwrl5gbHqMwNmd/5GaEPXi1jc8uelf2i38kWwJNFKKjKFOS32VRlYQggKmPHcI/KAQzgISL/yy9AKiAIEmCv5ZegHhUtqz3YKkmMcmO7nxDUkq0WbA2Pn6plbT0BzpyRgqQVt2atMbJvVBNCHwyVMaMX2F8tN7re4W1ddxJJ056Sat+gFhCtU/08tFh+myMEdCgiJipT+cvDH7AXJ99JP/NcmFb5yS0LhUleQrI8AIMAKMACOgIcAaMg0K1xLRaUOFX9MoCo1NkRorBMnVi3+wwbSpz1PpC2YaKeQXH1hPg2feLquECR8kdwkcy+Oyxkp/MZguQSCgnYKDPgQkx1wiRTBVJYNm3CKSurV1JTvaWkVIDT+CD1Z30tMdj43VZRSRmCE1heOWPyo2Irwjwnec6q57p8uDhH8dBOZGkGJzOX9gnbaRIjwhXW4QMK/TIGK+tXeRXlWmJ7jw4bMljz/+OEVHG0go6pSUWNf+2WrP+YwAI8AIMAKeiwATMhefHRzMJ9zyc0HE7Gs+fAX5sSV4iZuLfhNAmIgb5i65cHijJGTQeMULYgbzmTINYgzsJDQXHDmkBH5t9gQkTxE9a/VgfjTXsFmrh7wT61/SnP+xSxMfEEjEUDu16U23R9z3CwiWU2k224Ch5tcoiJoSW89b/9xUXT1B8/UzmGxVmf4KJ358WBgBRoARYASuPgSYkLnwzOETNOWe32t+RyAaCHnQKHYadnb5fA2acathBDtBONtaGixmAeKhBCEc3CVwiB914/dldwg5AUIGogMBWSo7ZQiDIDO6fviKdUJgVizas7or1/oFIT46OyzDfKjabc31KtntFU78O197jEYs+o62AxRkDyR4zLKH5W7GXf/6OakNFN12aKeCJJJdz6itudFqzVYR/kJJoI1nop67qsdXRoARYAQYAUagJwgwIesJSjbqIDSFcgI/u+MD4aj+oklNP+HArhEykxLTG5ixzLVGiKivBATPXQIfMYS1gIYHGjIIQjpAasWh5HoiKDPFj9bGGhljC2bJ/A3dbx5Q7axee7Tb0dgSvlubn/+O3J2JnaDpE27QNHyIZTZ6yY/khghjC+dSWDc+IGZBXb5r5j0FRxrNjQ1i0wALI8AIMAKMACPgLgSYkLmAZPTAYVprxKcyF/PQEubl6j4yeZCFb1RkotFvy9ZOQtXe0Ss2EWRP+4r0G0OMLEUqbe0cxI5FBD0NCAm3a450dB6O1EcoEITtwAcaQ+wqBXmCL5e7pLWxTvj/RVFITLLVLvGclOj9wlSeq9cVK1bQmDHGYL8rV66kgwcNGwlc7ZvbMwKMACPACPRvBHiXpQvPx9cvQGttjRjYiiGmNepKILSFuWTodvxVuvlcScTWUjLihgdU0qr/GAqVGRMEaFBXMFutkVkCda60ILisuUbRHWPWilMHICCoCHNhLukTFmlZNUKb6G6ZOnUqDRs2TPvk5OS4ewjujxFgBBgBRqCfIuA0IQsJDaPE5DTtEyDOt4T4BwRoeShHPW+VahFGQsmIRQ/I4Ki4R6gKxJ4yjzCv6ppfcfQSQkuo3YsIHaGCjyI4Kcx27hT4XMF0CYkZYNDyqUj+1sY5/eU71NpUJ4sGiZ2fQ6+5W2qnVF1olYbOuUvG+hoy+6sq2+Xr3Ideo7E3P2ISYgKm3Iy8G7VdoXpHe1cHPKE773LCrb/QtG8gmfBZQ/BbCHaiXglC6Or8HWk/MCuVZl83Vfv4BxiU5X7+vloeygdkuG9DiSPz47qMACPACFxtCDhtsszMHko5Iww+SHrQAgICadrsBVrWscP76MSR/dq9NyUQlX+wICAI/IqwF7MfeEEeOaT8v0B6UNadwJkegVUzJ4tjg4RTvF7LdPTT5y2aQ1Mz/PpvW+QjA8TOQO4MxTjKB47v5lIhHOb1OyZLT+0yr6Ldw7dqvzi8HMcdYW4wd+KD0wl8/QNM5qs1ckMCoUJATPEBRu3AU4To0Is1fBDCY86DL+mraWkcuXT9z/6j3eMZrXvKsPEC51zCJIqjsPAMZ3zzrzJumwpmi0YI0Ht0jeUz0Tr0kMSNtyygcZMttYB+fn5057eWa6vYvfUA/f0Pr2n3nGAEGAFGgBG4Mgg4rSHDC7JH0tN6Peqsf1VCOAOcUwktlhJFxpprL9OWvz9gjLBvB4d97/xa1kMoCkXGEMAVREqZC1X/uPqIl2ZPBRsLrIl5eAu9GdNafRC7L/5yH9Xo4oBhrWq++D7gOKdLJ7Zbay4IlSHb2kHrVhuITETLVycUABs9GYNGb9+7vyHMy1J0cdIsC01yzMOR7H3nCTq1+U1JAFFRT8awGWLT374hwm4Yw19onXUtsNv1KSC0hsaE+e9Uh53dqsZWzqXs7YTV92g+J30ZpxkBRoARYATch4CPOMy4h8zKfYN6Y0/wIYPTN7Q4IAkIEWFPYOJTh4uv/f0KeX4l2kcmZ4vzHU9QXVmRveZ9WgYShmCxmC9MmYgLhpMGrO3QdMdEsfEAu0KxGxVxvurLz1P95WJ3dG2nDx8ZlDYqdQiBXINsdvdM7XTGRYwAI8AIMAKMgF0EnDZZ2u31KiwEgXKVRMFR/Eo4i7v7cYB4IWL+lYyar58zfN7cEWtM32f36U55MLj+cPDu23ANRoARYAQYAUbAOQScNlk6Nxy3YgQYAUaAEWAEGAFGgBEwR4AJmTkifM8IMAKMACPACDACjEAvI8CErJcBV8N1CLOfJnYcvbU6nGAEGAFGgBFgBBgBr0WAnfq99tHywhgBRoARYAQYAUbAUxBgDZmnPCmeJyPACDACjAAjwAh4LQJMyLz20fLCGAFGgBFgBBgBRsBTEGBC5ilPiufJCDACjAAjwAgwAl6LABMyr320vDBGgBFgBBgBRoAR8BQEmJB5ypPieTICjAAjwAgwAoyA1yLAhMxrHy0vjBFgBBgBRoARYAQ8BQEmZJ7ypHiejAAjwAgwAowAI+C1CDAh89pHywtjBBgBRoARYAQYAU9BgAmZpzwpnicjwAgwAowAI8AIeC0CTMi89tHywhgBRoARYAQYAUbAUxBgQuYpT4rnyQgwAowAI8AIMAJei4BbCJmfnz/5+wd4LUi8MEaAEWAEGAFGgBFgBK4kAv7OdA7yNSAjmzKyh1JkVAz5+fnJbtrb26mm6jId3r+TKspLnema2zACjAAjwAgwAowAI3DVIeCTkZHR6eiqZ827gWLjEu02O3n8EB05sNtuHS5kBBgBRoARYAQYAUaAESBySkPmQz4Su8aGejp39jRVV1VQa2srJSan0uCckbJsSO4oqii7RBcvnGOcGQFGgBFgBBgBRoARYATsIOAUIbtUcp7yjx2kkuIik65LLxZTZUUZ5U27RuZnDxnGhMwEIb5hBBgBRoARYAQYAUbAEgGnCNnxI/ste+rKKT53lsYLXzL4lUXHxtusxwWMACPACDACjAAjwAgwAgYE3LLL0hzMzs4OmdXZ4bB7mnlXfM8IMAKMACPACDACjIDXI+B2QhYSGqaFwCgvK/F6AHmBjAAjwAgwAowAI8AIuIqA2wnZ6PFTtDmdLzyjpTnBCDACjAAjwAgwAowAI2AdAbcSsrSBWZSSli5Hwu5Kc6d/61PgXEaAEWAEGAFGgBFgBK5uBNxGyCIio2ji1FkSzba2Vtq7Y/PVjSyvnhFgBBgBRoARYAQYgR4i4BZCFhwSSrPmLSYfH1+CQ/+WDZ9SS0tzD6fA1RgBRoARYAQYAUaAEbi6EXCZkAUGBtFsQcYCAgIlkts3r6Oqy+VXN6q8ekaAEWAEGAFGgBFgBBxAwCVChjMtoRnDzkrI7u0b6VJJsQPDc1VGgBFgBBgBRoARYAQYAacJma+vH82Yu5DCIyIligf2bCPeVclfKEaAEWAEGAFGgBFgBBxHwClCBl+xabPnU3RMnBzx6ME9VHDquOOjcwtGgBFgBBgBRoARYAQYAecOF584ZRbFJ6ZI+Gqrq8Th4pcpKWWAFTg72YRpBRXOYgQYAUaAEWAEGAFGQI+AU2dZJiSnan1EREXT1FnztXvzxEfvvU4Ig8HCCDACjAAjwAgwAowAI2AdAadMlnxGpXUwOZcRYAQYAUaAEWAEGAFnEPDJyMjgE8CdQY7bMAKMACPACDACjAAj4CYEnNKQuWls7oYRYAQYAUaAEWAEGAFGQCDAhIy/BowAI8AIMAKMACPACPQxAkzI+vgB8PCMACPACDACjAAjwAgwIePvACPACDACjAAjwAgwAn2MABOyPn4APDwjwAgwAowAI8AIMAJMyPg7wAgwAowAI8AIMAKMQB8jwISsjx8AD88IMAKMACPACDACjAATMv4OMAKMACPACDACjAAj0McIMCHr4wfAwzMCjAAjwAgwAowAI8CEjL8DjAAjwAgwAowAI8AI9DECTMj6+AHw8IwAI8AIMAKMACPACDAh4+8AI8AIMAKMACPACDACfYwAE7I+fgA8PCPACDACjAAjwAgwAkzI+DvACDACjAAjwAgwAoxAHyPAhKyPHwAPzwgwAowAI8AIMAKMABMy/g4wAowAI8AIMAKMACPQxwj4u2N8f/8A2U1bW6s7uvOaPvwCg2nEwu+Qj48PFe76kKqK871mbbwQRoARYAQYAUaAEXAfAk4RspjYBMocNJTiE5MpNCxcEA6Doq29vZ3qaqroyME9VHqx2H2z9NCeAoLCKHXkHDn76pJTV4CQ+VB4wkDZf2PVJWpvbfZQpHjajAAjwAgwAozA1Y2AUybLtIGZlJE9lMLCIzUyBhj9/PwoKiaOps1eQGPzpl/dyPbC6kOiEmjGN/8qPwPGzu+FEXkIRoARYAQYAUaAEbgSCDilIcNEYJ4sKS6iitKL1NBQT0FBwZQ6IIOS0wZKkpYpCFvZpQtUXFRwJebNfTICjAAjwAgwAowAI+A1CDhFyI4d3kuHD+yyAOFc4WmKFhqyOQtukmXpmYOZkFmgxBmMACPACDACjAAjwAiYIuAUIYOvmC2pqqyg5qYmCgoOpqjoWFvVvC4fvmIJQ/IoIjGTakvP0qXjW6nq/HG76/QLCKLkYdMpftAEgvkxIDic6i9foBrhb3ZRtK8rK7JonzB4IkWn5cj8wNAorTwpdzrp71Fwbu+n1FRbodVBIig8hlJHXUMxA4ZRcGQC+fj6iXEKqfpCPl04vJFaGqpN6pvfJIi5po6eS6ExKeQvNi0011dTfcV5unBoA1WeO2peXbsPDIumgeOuk3PHuPB5qyo+Tuf2raHWxlqtnkr4+QdS5uSl8rbk2BZqELjoJTgijtJGXyuzzu1fQy1iHuaSlDuVIpOyqammXI6DtacMn0lJAnNgX1daSKe3rBSYW/d3TBwyieIyx1BEcrbANpIaq0vp8tlDVLTnY5v+egEhEWJec8U6c4V/Xzo1VZeJdZ6gwt0fWV2nmjP8MNMnLhLjjaWQ6CSZ3VJfKZ7LSTp/cL3F+lU7XENCQuiuu+7SsioqKui9997T7jnBCDACjAAj0P8R8MnIyOh05zSxo3Dx8rukP1ldbQ2tW+3dLwYQmom3/Q/FZY2xgBGkLCl3msw/vu5FOrvjA61OSFQizX7gBe3eWuLE+pepYPv7JkWT7vw1xWaMMsmzdbPn7V9R2andWvHA8dfLXZ9ahlmio62Fdr/1S7pceMisBLc+NO2+pykyZbCVMkPWwQ+eEaTuC4tykMhxX3mMfP0s+T82IuzBmEWHTdqBlMz+7j9k3tE1f6ei3R+blCcOnUTjV/xc5u3618+p4uxBk3LcTL33DxSVOlQSoQP//gNNvP2XFnU6O9ppzZPLTPJB3Cbc8l8214o2n//xTmptqjdpB7I67iuPkq8gk+YCbPesfJwqCg6YFwkynkjTv/kXQXBDLMpUxtrfr7BJAsXvMD3zzDOqKjU3N9Mdd9yh3XOCEWAEGAFGoP8jYPmGdGHOQcEhNHz0BEnG0E1JcaELvXlG09E3PaSRsbaWRio7uZP8xe5KaL0UGbO2El8/Q6gQlEHDBG1Yo9CmBEfGU1LOFKm5yrn2HuroaKXCnR9qXVwU2qLWpjp5D42aImfQINUKTZdeGi6X6G8Juz4hnZ2dQgt3UoxbLMhKHUUkZcp+QCRA+DY//x05J33j3Hn3agQF64T2D5o1kImY9BFSO+fja7lHBOUTbv2F1hU0cXXl56UmMVJonqCpyhNjbnj2bqtaLq2hCwmMMV4QLEhbc4McH3nh8QMEzzSdM0jjrP/3d0LIElUfBLW5rlLOOSp1iHw2Prrnh3rx2eNowm3/Ldvgx+WiI0IDd5bC4gbI7wewnXj7r2jjX78uNHZlWj0kJt7+PxoZgzYPmsOm2suibRrFCfKNtmons0lDvmEEGAFGgBHwGgRcJmQTpswiX/FSi4mLFyEwIjRgqoXp8sQRS22AVsELEgHBYZQ8fJZcCcxum577pqY1iU4bSpO/9pR4kfpYXWlLY400o53e8rY0qekrwex1zfdfkRqlQdNuMSFkRXs+ESazT2R1vZYNJrHCXR/pu7FI11w6Qye/eJ3O7vzAQtsSlzma8r76hGwzZPYdtP/935u0h/kOAjK36W/ftDBtxg8aL8xqpgQQ9Ydf/21cpBxb+w+TtQyeeTsNnnW7xGjY/K/TgX8/raq69ao0VsfXvSS0lP/W+vYPCtXMoiozd979GhkrO72H9q58gqARUwLt2ZhlP6HOdn3MPR8afdMPZRXgs/PVn1Ll+WOqCcUKwjrpriflOscs/SHtePVRrQzEEKQNAjL2xV/u08qQgAYWJtB2oWFjYQQYAUaAEfBeBEzVAw6uE2RjYMYgSkvPMiFjFy+co43rPpY7MR3s0qOqDxx3vUa4Tm1+UyNjWASCwFac2WdzPSBwR1b/zYKMoQHKSvO3y7aBYUY/MZud9bCgXMzn9JcrLcgYmsPkp/ywIpMHWfQIHzBIe2uTBRlDfvnpvdRQaUnIoCmEwDdNr+lDHjCDtg0CH7grKSVHNpqQMYwFbdmpTW+YDDtwwiJ5D1OqORlDATRlO1971ORZp4yYReo5nd78lgkZQxupLSs/hyRFDxgufhpJOkihkrquOuoeV5DB8/vXmpBCfTmnGQFGgBFgBLwDAZc0ZNAGFJ8rkKQkJCSMIoUTP2KRJacOFDstb6Qtn39CLS3eG6w0rCsoK74KxQfWW3wjioWjOzRH9gSmMTiawzwFjZeff5CsDkdyJdDwwAfJXYJxEnMmU2h0itxMoMxhykznF2Aw1+nHgzk1IjFDmtbGLX+Uzmx9hxDs1p5Am6Q0hJdOGAimeX34uGH9MBVCW3SlgttCO9adhMYka/MtPrCuxyQoWvipKYnLGi1x0khXF/fC2iDAIzI5i2ounpH3IHj4PUJ+XNZYGjrnLqk5xQaCnkpRURH9+Mc/1qo3NhpIrpbBCUaAEWAEGIF+j4BLhAyr27X1C1yk+ArzyvDR42lwzkiKjIqh8ZNn0vbN61Sx112x0xCCF6rS9OgX2Vh1UX9rkYaPWOakJdIsZVGoywCuHbp7Z5MgBeNX/Ey++O31Yc0X7MT6lzSneOxexAfaG2jFTm16k0qObrboMjx+oJbXWGkdCz3xAClVREVr6IYEng+IT3cSIXZkKjH3x1P51q7hgqgqiRk4QiVtXkOik03WiWO1MifdJElZ9vQVhA+IKQjvCbEZpDvii/UVFHC8P5uAcwEjwAgwAh6AgMuETL/GDvGCPrx/F+FopbiEJKkpCxQBY1uam/TVvCbtH9hlbuq0TpdgErMlg2feRllTbpbFeKFWil2GcHZvFb5lkITBeUKT0kUQbPihyYoO/Mj76q9FOAaDNgcaN5gwG3DkUpfZMH3iDTL0htKY6btG3Z2vPUYjFn1H83mCfxP8n8Yse5hyhQ8YdjvqzW7whVPS1mIdizbdTkXzsB2qravXtmbT3ZC2+oNGT0lLg+E5qHt7V4TEUHJm67sqafOKsCZ6Ob72BfEs9kp/u1BB1iAgz/A9m3rfM9L8vePVR3qssdP3zWlGgBFgBBgBz0DArYRMLRk+ZCBkkIjIKKoo805Cht1yMOOBmFiToIhYa9kyT5ExaEKwGcBcgwPtm0bIbPbS8wKEkVBkrFbE39r6wveFZs+USA4YM5/I0lqpDYLQFNiBCbKAMB/pE26Q2jaY20BmRi/5EW198SGtfoNOKxYk4oZZE8QTU4IYbJoIkqpEmT3VPa4BwUayp8+3mtb1ZbW8K1Mf9y2sS/tpr74qww5XxJ+DYJOGM2ZX+OBhswRwxAaK9ImLu0yfwu9MkOghs+6g/C9ek2PwD0aAEWAEGAHvQ+CKELKAwEANKT8rsae0Qg9P6J3YoSlC+Aq9RCYN0t9qaThyK38txO0yJ2OoGJGUpdXvScLH1/6jVOEx0Ff+hlcsyBh8uAJ1GiJ7Y4JwlObvlB9oweY+9KokpQiEqhd9wNXIROvrCe8iMmiHIKpK9FottaFAleEK86a7pVbsQlUSK3adntn2nrq1ewXBVSFOEIhWv8PSbkMrhfguIFguPojfpkKGyDh3NghZZGQk/eQnP9F6Kysro2effVa75wQjwAgwAoxA/0fAqV2W/gHGGFrmS/Tz96eMLKOTMyL3e6voA6hmTl5iscyBE663yEOGPoxCpBXihWCmev8rq52ITH0U/u7qdwgSpSQqZYhKatdBwoRqTROlVbCRwI5Qa4QS1dtbmuQHaWxuUOEncA8BMY0ZiF2Hhl2Yeo0dgq7ClAuJTs2RV/2PtFFz9bduSWNMrAeCuGKhsalW+0W4E81pX6RKRew5JTkibIY9saVNtdYGJx8oDKxttFBtYmJiaNiwYdpn8uTJqoivjAAjwAgwAh6CgMOEDLsoF998J02bvYBS0tIpJDRMvsj9/QMoISmF5sy7UR6bhPWDjHmr/xjWh52D6qghHAuE3YIQ+GCNWPRdsYvR4A8kM3U/oGECWYGAfOH4JPWihiYLwVl7IiB2yjyGWFVwtLcV7R3H9yjJmHSjMIMZSQ6OKBo0/RZVbPU696HXaOzNj8ijiFQFaPky8m6UwWyRZ20Tg/Kpwvqm3f9HScJQF5q1aV//k0YCT4lwEebSUl8ls6AdQmR+CDR58FmzZw6WFZ38cegjo2Zpxjf+TIi+rwRjg3jP/cHrWpgLlNVcPK2diADzIk5u0PvPwcQ7YOx8mvXd/6Op9zylupNXEOl5D79NufPuE30aQougAKbLUYu/r+GD0BksjAAjwAgwAt6LgH07l511JyanET62BOdd7thiGQrCVn1PzT+25v8kQcD8QRRG3fQDSa660zad2vIW5cy9Ry4bRAfkCtoQvPQh2BCgj1ElM638KNi+irBBAIQH4Sj0giOJENwUIs9hFC91OIojwv8UQQzg2I+I85grxkawU3MtlurPH0FwBXHEB3WxEcB8fkc/fV5V164w+4EAwmFfko8fvyVJJEiKEgRELdq9Wt1qV6wNRAWCY5KAkSKuILTK7Ks1cEMCplh15BWwQPR9rBcaRnvjHfrwWZr57eckEYM28Nof/ksLVaLHtKbZaBbFdLEekGiQYnw62tvEp9WEWOM5nRHx41gYAUaAEWAEvBcBhzVkHR2G2GOtrbbjYp07e4rWfvQONTb0bHebJ8OLcA8IIIoXKQSECgQHL9G97zyhLU1vjkNmwbb3ZaBSvOwheDGjLUgHtEr6iPKygo0fCDmBGFswG6KtPdlrdpYiiALmCi0bymounZXNzeeKzIqC/doa0UZPxhBQdt+7v5HBZWUHuh+Y08a/3C8Dx6psPRm7dHwbbfzbN0SR0Ylf1Svc+R9CQFcliozh2KYDHzytsiVh0m50iS5oRbnp5gVdFavJfe/9Vp4aoLSPWK8iY3heILnmO2ihKf38T3dTsTgIXD1T4KsnYziqCmvSC9phZ6rWRnwH9FpO7Mjc+tIPTczT+vZI458fFkaAEWAEGAHPRsClw8VhrkRA2OCQEPlCqauroYa62qv2BYGddjAF4ixCOHr3REBs0AbBWmFWrC0925NmLtXBeZk4kxEvfkToh4aqpwItF3yrsDsSPmz1IlSH3nnfXj8gJ9FiXGyAQJwvkA1FZO21g/kuNn2kONezTRI7RZTstXFXGSLww4cNcwChgnnSWsw50/F8KExgZDj30lfgc0GeVWpO4vRtQDZxQkKo2A0bEBIu4rtdlN8FW/55+racZgQYAUaAEfB8BFwiZJ6/fF4BI8AIMAKMACPACDACfY+AwybLvp8yz4ARYAQYAUaAEWAEGAHvQoAJmXc9T14NI8AIMAKMACPACHggAkzIPPCh8ZQZAUaAEWAEGAFGwLsQYELmXc+TV8MIMAKMACPACDACHogAEzIPfGg8ZUaAEWAEGAFGgBHwLgSYkHnX8+TVMAKMACPACDACjIAHIsCEzAMfGk+ZEWAEGAFGgBFgBLwLASZk3vU8eTWMACPACDACjAAj4IEIMCFz8qFlZWURPiyMACPACDACjAAjwAi4igATMlcR5PaMACPACDACjAAjwAi4iAATMhcB5OaMACPACDACjAAjwAi4igATMlcR5PaMACPACDACjAAjwAi4iAATMhcB5OaMACPACDACjAAjwAi4igATMlcR5PaMACPACDACjAAjwAi4iAATMhcB5OaMACPACDACjAAjwAi4ioC/qx1we0aAEWAE+iMCs0cNopEZKVReXU9vb97XH6fIc2IEGAFGQEPArYRs5Ng8SkoZKDsvLjpDx4/s1wbiBCPACDACriAQHOhP8ZHh1NnZScUV1d12NXN4Ng1PT6amllYmZN2ixRUYAUagrxFwGyGLS0iiwTkjtfVEREZraU4wAowAI+AqAnNHD6E7r5kou3ngf9+jy3UNrnbJ7RkBRoAR6DcIuMWHzNfXl/Kmzuk3i+KJMAKMACPACDACjAAj4EkIuIWQ5Y4cR8EhoVRb070ZwZPA4bkyAowAI8AIMAKMACPQGwi4bLKEaXLosNFyrnt2bKI582/sjXnzGL2IgF9AEGVP+4oc8cLhjdTe0kgpI2ZTwuAJ5B8URtUlJ+n05reoqbbC6qyCwmModdQ1FDNgGAVHJpCPrx/VlRVS9YV8Qn8tDaZE3i8wmLKnLpd9lZ7cJdMhMUlUfmoPndz4L4rLGkMZk24i9Fuav5NObXrD6rhEPpQ2ei7FpI+gyORs6mhtoariE1R8cD3Vlp610caQPWvWLMrNzdXqrF27lgoKCrR7dyWyk+NowuAB1NFJtGrrQZqck0F5Q9NpYHw0FVyqoD2nztOOE4V2h1s0cTiFBQfQifNldPDsBRog2k4flkVjs1Oppa2d8ovLaNW2g9TQ3GrSj5+vD107ZijlDEik1NhIqm9qoVMl5bTlaAGdL68yqQv/rRsnjZB5e08X000inRgdTvvPXKB3tuyXzvPXT8ylmLAQOed3vzxg0l7d+IjEzJGDKFeMmZUUS82t7XLMTYdPU1FZpaqmXa8bn0uRoUHyfoTwB1Ny05SRYr7N6pbaBYDvC/zsybjsNIntkNQEKquuo535RfTFoVP2mlBaXBRNyc2kIanxFBcRRucELsfPXaJ1+/PFMxMPzUzmjhlCkSHBdOZihXwWZsUSQz9hUcBzQh1z8fXxofnjciSeiVHhsriqvlHW3Xj4FF2srDVvwveMACPgJQi4TMgmTp0toTh7+gTVVF32Elh4GXoEAsOiadCMW2UWyFn6hEXk6x+oVQHZSRt9LW176YcWRGfg+OtpxMLvaHVVIiIxQ5C6WTT0mrtp91u/pMuFh1QRBYXFaOOpcVEYmZRNcdnjBLkaRD7ixaXyAoLD6Nhn/5D36kdoTDLlffUJColKVFnyGj0glzInL6H8Da/Sma3vmpTpb5YuXUoZGRlaVmVl5RUhZHlD0mmJIBcQ+fIXhEwJ7mcIx3QQh2c/2EiWr39DzdtmjSN/P1/adbKIRmel0qKJw1QX8goCMiIjmR575WMtP0G87P/7jusoNjxUy0MCTvAgXv/6Yi+t3n1UK4sSRGvZVMM/XuqKwozEWBqVmSLJlXomyAsNDqRX1+/S2iORFB1Bj90yjzC2XoamJcg5YyfkB9sP64sIawsKsPwztUCQFnOxR8i+vmAKgSwpAbZjBUHD3P/y4WaVbXK9edpo+sr0MSZ56hndkDecHn/rMyqvqTcpv0v4uGG+BwouWCVkt88eL+tHhRlIm74xcPndPYspODBAn00DE6LlPPE9ufdPbwoS22ZSzjeMACPgHQi4ZLLMHjKMoqJjqb29nQ4fMP3j6x3w8CrMEcicvFSSsari41RyxKjd8vXzp+HXf8u8OgUIDRoEO+OkRuzQBirc+aFGwEDsJt35awqLG2DRVrWrOHuQOjvaZXlUymBJxkDgVB60b3oBQZvxrec0MtZw+QKd27eGLh77kjraDS8zEMHUkXP0zfo8PUWQMWh6oBXbdvys9uKdJDRmX+1yZrc3yZy0RI2MVdY1Cs1YKV3q0qhA86IEqd/cfYNGxkAqNh85Q4fOlsjnBGJ15zUTpLZOtdFf8SyPFF2Uc0U+tHxoc1RojjB/CHY46iU0KJCeuu8mjYxB0/P5gZNS+9fW3iGr3jpzHE0fnqVvRhsPnZZEE2RTrQUVDheWaPko225HiwiCAzIGDSG0jVinkqlC+wWNorncfW2eRsbUM4FW7FyZQXMI8vSrOxcKHaz75JGvzNXIWEVtvVzTJ3uO0f6CYmoVmk6IIr3uG5V7YgQYgf6CgOW/nj2cWXBwCI0aN0nWPrh3O7W1thKc+1m8H4F97z1Jl45vkwuF+XHOgy9J82HMQJi08Ioy6nJqLp2hk1+8Tmd3fkDtrUYTExrHZY6WWiykh8y+g/a//3skTeTkxtfpzJfvUPrEG2j4dQbCh/v8L16ThGr0kh9SQHA4wczZ3tIk245Y9ACBIELyP3+Fzmx7T6bxIzAsimZ/9wWCpg+au4vHtmgkTavURwm8+B979SPtpQ8tyh+/vlS+pKERemvTXlLkxdoUI0OD5Yv7d++ul+RI1UmOiaDRmanqVpCTocLEadBwgpz89p112hMbNjCJfn7rfPniv3tunlVz6UphooQmC3O6Z57hbwDuoeECofruDTNk/zBzNrUYCPA3rpsitXiYxJtiHR/uOKLNB/N+9pvLpGbp/vlTTEjay+t3avWg+VO7LJ9fvdWhXZYgc4+8/KE04aLDWcJs+u2F02Tf1wuz6AufbdfGiY8Mo+u6NHA1DU3005c/IpgNldwhtFyLhRYxWmgNF08eYbIWVcfRK7RqqbFRshnI2IPPv2/SBczLM0cMEs+XtWMmwPANI+BFCDjNoMZNmin+aPtSbXUVFZ7J9yJIeCn2EKgrE5qKLjKGetBSndv3qdYkODJeSyNRfmYfnf5ypQUZQxk0Xy31Bv8xmCGtSbXw+YLUlJzSiuEHJvME2VMSGBIpk/5BoZQ8bLpMQyOnJ2PIxHjn9hrmCxIH/7L+IjvzCzUyhjlV1zfRx7uPyenBJDlN+IV1J8+t/tKEjKE+tFGf7TNghvuFwtdLyXOrt2hkDHnHhJYL2i9ITHiINEnKG92PUxfK5d0Z4eOm5OSFMpksLDX6gYUHB8m80KAATdt2Wvio6ckYKoD0rBfaMghIXO6AJJl254/nP92qkTH0C581RW7hC6cXmBWVJurJd9abkDHUe0f4xylN4DWjjGZQfR+OpkN0ZkprMdYwHvzd1LiO9s/1GQFGoP8j4JSGLCUtXQSATZOr2719Y/9fpRfN8IUXXqCAAFMfE3vLKykpoZ/+9Kf2qjhUBhJlLg2XjSag4Mg4aqoxvJz19eDLlZgzmUKjU4QpUTj2CzIPASmS1wDDVd7ofrQ1N8i7NrGRQElbs8Fvp63ZmBcQEkGN1aXSv0zVC46Ip3HLsfYuw1LXJaCLvKEetHoVBZYO6I8//jhFRxtNWcDxSsvmw0aCqcYCcVgufJkgaV0aFFVmflUmOfN883vlN1ZaVSdJn3k5zISIcA8ZEB9FhaWXTao0ikCrEKX9QlptGEAQViURIUHSxypT+JQpiRWO8Q8tma2eiPZoUFcJHP5hknSnnDhfatFdQ3OL2DAQTFGhISZlGYkx2v2yqaOMc0Vu13cIJkQ/QR7N/eG0hg4moIGDKRhEcJTAHubb9QfyLXzUHOyWqzMCjIAHIeAwIfP3D6Dxk2fKJRYWnKRqduTv1ccNkqD+e+/JwCkphhdrT+r2pE5j9SWLam0tBtKEAj+ds7+8F6bB8St+JnZGjrVop8/wsWHuVmZOZY5Em7Yu02R7a5PWhX8XscMGAyVBEbGUlGswS6k882totHVtDJz48elNuVRluYPusjBfKUkSpkd7Ul5TZ69YK1NO8rYCq16qNs4jJcagedQai4RyKldXlDULlwVIk87hPKjrH4dMsZtSCbRu8ImzJ+4iOWoMPXFUebhiByoE2ke9xIaHabfdzRWmRHzcobn6dO9xWjhhmPz9hgM/PsAYu21f37DH6q5MbaKcYAQYAY9HwGFClpE9VGhoDP4ndbXVlCnulfj6+akkRUbFyDI4/J8rPK3lc8I1BLZt20ZBQUZtQne9FRcXd1fFoXLlFN/TRnlf/TVFpxm+Ix1tLdKE2VAlnL+7NF7wDYMPmNKYmfcLrYGlWMsz1MKOUCUIiVFXXqRurV4rCvZbze+LTKV50o+tf9GH67RI+joqXWG240/l668IuaAIvV6bpa/T0GTUclkbUz0S/bNReSb2z65O9RoobFgwD6mhHxtpd2vH9D6N5mNZuw8KMPwdg9Zvrc7Ua61up1hwR9dGBmvljuS99vluOih2Z947b7IMKYK2IM8w4T5x1yIZHuSXb6wR5M+wCcKRvrkuI8AI9H8EHCZkfjrSNWL0RJsrjIiKprF504UavoMJmU2UHC94+umnHW/URy1ChPZJkbHa0kLa+sL35fdBP50BY+YLxyF9jmvp+vJzWgeXTmwVMcc+1+77eyI2ItTCXwk+VUq6I1xtPXhR42UOkgetDjYNWBPMQwnMmq5K8WWDnyD6wY5ImGH7s9Q2NktTZpv4Z9LRQ8kVMdVtatWWqvcT0zLNEgiX8dA/VskNA+NFfLrrxuXKsBeoNjglXu78dHROZkPwLSPACPRTBIx/7Xs4waamRmpsMJpR9M3wnzci9kNAxJoaG+XuS30dTl89CMRmjNIWm7/hFQsyhp2QgSK4qzul5qLRDysiMdPprlesWEFjxhhjUK1cuZIOHrT0n3N6ACsN4WtlHiw0PcFo7rtYWWOlleNZCKgK36nEKOsmUARsVVKiI1Mqz9Hr2UtGH7R0EVPLWVFkB+39zMyMzvZprR2CxgKfMLEpwVFzJEicMIKS3idOjZEqYp/1VOBThrAg+CBe2k+Wz5VNR4p4cm9v7mkvXI8RYAQ8CQGHCVmR8BvDx5og7MVNK74miy6cK6Rd276wVo3zrhIEOnRhLqJShlDZqd0mKx808zbNfGZS4MJNndCQwTSK+GYIYJsvQm7g3pogZIeKZWZePnXqVJPAsDk5OVeckC0Yn0OfHzT93Vo4IVeb2nErjulaoQMJRJtH1HuEvkCYC+ys1AsixSsp0JEplefotbiiSobjCPD3o/ljcwSh2K/F1TLvCyZVWya5Mp2PHE4yAHG6ErLvTDENEtookLElU0bZPQHAfL41jU0EM29KjCX5ul73LB2ZNzYkKId/5f/nSHuuywgwAp6BgKk3q2fMmWfpIQio8BSYbsakG4X50viiR4DZQdNvcftKQLCOr3tR9gtSNvPbz5FeUwZftXgR7X/y3U/S/Iffdvv4rnSYnhBDiHHVtZGP5owarIWLQPBWc+Lk7FhwEFfy8M1ztcCoICAP3jiTEIcLAvOZPv6WauPoFSbS1zYYyDhI2dP3LyGsVQmC1iJO2i9uv45e+v5tKtviCiKp5L4FkyVpMnfIV+WuXD/YfkgeI4U+sMMVOx6BjRJoz5D3wvdu04LHqjIV9gOmZsRxg6AlYrbhOCtbghMAsHYE5NWbkhHrDPHSlN+fu0i5rXlwPiPACPQdAg5ryPpuqjyypyGAMBSXi45QrIj1Bcf9Kfc8JbVVPn4B8gWD//o720VAYbOdma6us2jPJ/JYJoS0QLiN6d/4s9SEdbS1amE2MIYt7Zir4zvbHngg4CiO5YGfuJ4EvLR2h7PdWrRDGAs41+MMTRCH3997o6bBUpURo+vldcagrCrf2Sui3COOGkJagPD9VhwRBKKG8BF6Pzn9JgbzsRDcFSZdnAyA0B2Pi0j5ernjqdf0t06nMYc/iaOqfrpiXpeWzLDjEbs1QSj1z8V8kHe3HCBE/4dAI3ad0HpCQKhwVqgKyCszdT+gacOJAjiXFB/gD/On/hglYPXvbcYjxnTNOckIMAJegMAV05Dpd2B5AU5X9xL0zjvCN9BcOnXO5ObPfe/Kx03ifIF84eWEcBYoq7l0VnYHn0Ml1tImeWo8fRuV19XJjlcfpaOfPq+ZK2GeVDHPUAUBYgt3faSGtLiar6PDrH+LBm7IeHrVF/JFDHzUSx8v4V+/vVYc4t39bln9Y+puOk+v2kDvicO41TpBNJQgkOxD/7eK9GE49DsJO7pw1x+urdLqir70adz/6s019E9B8rAmCNaoJ2MIELtGhH6wJ8ACAVJBbtTcbdVX44PcWhPVHjslzQXBcR98/j0ZckKVYa7quaAtjqbafcq4iQT1SoSf34uf7dDmhmeJD9b26CvG75v5s0I5AsKqOUHzpydjCH3xs9dWO3Q6gZo3XxkBRsAzEPARByhb/jXyjLn36Syzsgzmh4KCgj6dh6cMjgj+UalDyD8wREbob6oxRHvvjfkHiY0DUalDxaHl0dRQdZFw2kBzXe/GGLO1Tpi+1OHi6uBoONXjgO5TIqp9dyEibPXb03yY0wYK8yG0TlU4//JCqRbktad9OFMPpjj4acE8h52cWKc7zKPOzKW7NtBeIVgsNl3Ui2Cy0NTBfGrL1w39YUclDk3HoewHxFmUOHWhJwLCl5kUJzZchEttGrApKqvst9j0ZE1chxFgBHqGABOynuFkUYsJmQUknOEEAtYImRPdcBNGgBFgBBgBD0fgipksPRwXnj4jwAgwAowAI8AIMAK9hgATsl6DmgdiBBgBRoARYAQYAUbAOgJMyKzjwrmMQK8goPdDUg7dvTIwD8IIMAKMACPQrxBgHzInHwf7kDkJHDdjBBgBRoARYAQYAQsEWENmAQlnMAKMACPACDACjAAj0LsIMCHrXbx5NEaAEWAEGAFGgBFgBCwQYEJmAQlnMAKMACPACDACjAAj0LsIMCHrXbx5NEaAEWAEGAFGgBFgBCwQYEJmAUn/zVi2bBnhw8IIMAKMACPACDAC3oUAEzLvep68GkaAEWAEGAFGgBHwQASYkHngQ+MpMwKMACPACDACjIB3IcCEzLueJ6+GEWAEGAFGgBFgBDwQASZkHvjQeMqMACPACDACjAAj4F0IMCHzrufJq2EEGAFGgBFgBBgBD0SACZkHPjSeMiPACDACjAAjwAh4FwL+3rUcXg0jwAgwAgYEZo8aRCMzUqi8up7e3ryPYWEEGAFGoF8j4BQhi4iMpknT59pdWEtLM21e/7HdOlzoeQj4BQZTSFQiUWcn1ZWf87wF8Iw9FoHgQH+KjwwXX71OKq6o7nYdM4dn0/D0ZGpqaWVC1i1aXIERYAT6GgGnCFlAQCBFREbZnXtnZ4fdci70TAQGjruOcufdLyf/xZ/vpabaCs9cCM/a4xCYO3oI3XnNRDnvB/73Pbpc1+Bxa+AJMwKMACNgCwGnCJm+swvnzlJ9Xa0+S6Zb21os8jiDEWAEGAFGgBFgBBgBRsASAZcJ2en8I1RRXmrZM+cwAowAI8AIMAKMACPACPQIAZcJWY9G4UoejUBG3mIKDDWYqGMzR2tryZ72FWptqtPuOzva6dTmt7T7pJwpFJk8iMzztQpdibQx8yg0OolaGmuocOeHMjcgJIIyJ90k0+cPrKOg8BhKGzWXogcMo6bqUqo4e4AKd38s+zbvz3jvQ2mj51JM+ggxj2zqaG2hquITVHxwPdWWnjVWs5KaNWsW5ebmaiVr166lgoIC7d5diezkOJoweAB1dBKt2nqQJudkUN7QdBoYH00Flypoz6nztONEod3hFk0cTmHBAXTifBkdPHuBBoi204dl0djsVGppa6f84jJate0gNTS3mvTj5+tD144ZSjkDEik1NpLqm1roVEk5bTlaQOfLq0zqwn/rxkkjZN7e08V0k0gnRofT/jMX6J0t+6Xz/PUTcykmLETO+d0vD5i0Vzc+IjFz5CDKFWNmJcVSc6v4zogxNx0+TUVllaqadr1ufC5FhgbJ+xHCH0zJTVNGivk2q1tqFwC+L/CzJ+Oy0yS2Q1ITqKy6jnbmF9EXh07Za0JpcVE0JTeThqTGU1xEGJ0TuBw/d4nW7c8Xz0w8NDOZO2YIRYYE05mLFfJZmBVLDP18fWUZ6piLr48PzR+XI/FMjAqXxVX1jbK/jYdP0cVKS2uEeR98zwgwAp6JABMyz3xuvTrrodd8jfwCDC9F/cDpE2/Q38q0npBFpeVQ9tTlMr/m4hkqPbnTor5/UCiNWvw9Q52SUxohA0EbNONWmR+RlEWJQyZpbSMSMyhhSB5lCMK29cUfUGuj5UsqNCaZ8r76hGEDgtaSBKHLpczJSyh/w6t0Zuu7uhLT5NKlSykjI0PLrKysvCKELG9IOi0R5AIiX/6CkCnB/QzhmA7i8OwHG8ny9W+oedusceTv50u7ThbR6KxUWjRxmOpCXkFARmQk02OvGDfZJIiX/X/fcR3Fhoea1IUTPIjXv77YS6t3H9XKogTRWjbVQMbVFYUZibE0KjNFkisfQSZUXmhwIL26fpe8Vz+SoiPosVvmEcbWy9C0BDln7IT8YPthfRFhbUEBln+mFgjSYi72CNnXF0whkCUlwHasIGiY+18+3KyyTa43TxtNX5k+xiRPPaMb8obT4299RuU19SbldwkfN8z3QMEFq4Ts9tnjZf2oMANp0zcGLr+7ZzEFBwbos2lgQrScJ74n9/7pTUFi20zK+YYRYAS8AwHLv3QOrmvsxOnk5+8nW9VUV1FlRRmdzj9KbW2m/4072C1X70cIFENDFRErZxSRmEmhMSkyXVFwgNpajI7V0ITp5eyOf2uELHPKMquELH3CIq1JwfZVWlqfUGTsctERaqgsofjscRQcESfJ1uS7f0tCfGbRAAAu4klEQVRb/v5dfXUKCA6jGd96jnz9DF/vhssXqKLwkMgPp8Shk2X+0Gvupqaacrpw+AuTtn15M0WQMWh69p8pFpqtNho/aIB8uU8SGrOvihf96xt2251eTloi5Q0JlnUq6xqFFqiWokJDKCkmgqB5UYLUb+6+QWjVAmUWSMUxofWJFqRrpCBuIFZ3XjOBKmrrrWrnsMvxqKifOyCJoGWDlg+CPMwBedjhqCdkoUGB9NR9N0niiLrQ9BwtuijnMGHwQJl/68xxkuB8KTR0SjYeOk0xESHyNj0+Rq4FN4cLS6hR7J5UAtxsCQgOyBg0hIeEBhFzARGDTBXar1XbDlloBO++No+uF9o5iHomlWITAdYHggTy9Ks7F9J3n3vXJlGWjR348chX5mpkDNifvFBOGDNFaC9HDEymAPF3VpFeB7rlqowAI+AhCLhMyCKiorWlhoZFUHLqQBqcO5J2bf2CSi8Wa2Wc8FwEjq75uzZ5aJfULstDH/7J7i7LlvpqYSLMp+i0oRQzcDhBG9bWbCRw6FQRsg6xCaTk6BZtHPPE4Y//Quf3r5XZPj6+NPXeP1BkymAKjx9IUeJaLbRrSkYsekAjY/mfv0Jntr2niigwLIpmf/cFqfEbsfA7dPHYFupo7x8aB7z4H3v1IzpXZjAXQovyx68vlS9paITe2rSX2tpt716ODA2mVmGi/N276yU5UotOFoRsdGaquhXkZKhGxg6dLaHfvrNOIxXDBibRz2+dL1/8d8/Ns0rIVgoTJTRZmNM98wyaS9xDwzV9eBZ994YZsn+YOZtaDNh+47opGhl7U6zjwx1HtPlg3s9+c5kkn/fPnyLHVOt8eb1RqwrNn9pl+fzqrQ7tsrwkCOAjL38oTbgYeJYwm3574TQ5BxCvFz7brs0nPjKMruvSwNU0NNFPX/6IYDZUcofQci0WWkQQ2MWTR5isRdVx9AqtWmqswS0AZOzB59836UKS3BGDxPPtH99Vk8nxDSPACLgFAZci9ddUV9LZM/l04ugBOld4WtOKISzG1FnzKDjE1BzilhlzJx6FwJmt78j54j97Rb7UAkCmgiPj5W3JUZiNrGs5musqNTKGygipcvjjv8p2+AFfNiUgfcnDpsvb6gv5JmQMmSCJ5/Z+KssRUw3+Zf1FduYXamQMc6qub6KPdx+T04NJcprwC+tOnlv9pQkZQ31ooz7bd0JrulD4eil5bvUWE9ShKTsiNFeQmPAQaZJUddX1lNDcQM4IHzclJy+UyWRhqdEPLDzYYOYODQqQvnGocFr4i+nJGPJAetYfOImkIJ/+UvMmb9z44/lPt2pkDN3CZ02RPvjC6QVmRaWJevKd9SZkDPXeEf5xSiN3zSijGVTfh6PpEJ2Z0lqMNYwHfzc1rqP9c31GgBHo/wg4pSEDEVv78bsW4S78/P1p4pTZlJKWLv6g+dLYidNo++Z1/R8FnuEVQ6A0fwe1tzQRyA8Imd5vK2vqzdq4p780EDctQ5ew5ntWc+mM1m9orFH7g00ESoIj4mnc8p+K2y5zXdclICRSVRGauxEE06u5PP744xQdbdT+lpSUmFdx+/3mw2cs+gRxWC58mSBpXRoUi0pdGTDJdbcBAFWV31hpVZ0kfeb9wUyICPeQAfFRVFh62aSKMhUq7RcK1YYBBGFVEhESJE2QmcLPTEmscIx/aMls9US0R4O6SuDwD5OkO+XE+VKL7hqaW8SGgWBp1tUXZiTGaLfLpo4yzhW5Xd8haCL9BHk094fTGjqYgAYOpmAQwVECe5hv1x/It/BRc7Bbrs4IMAIehIBThAz+YW11xj+8ar3tQp2+Z/smun7JreTvH0AJScYXparD16sPAexqxAYAaMPCE9KprqxIgOAjNFkzJBjwC4Ofly1prDRobMzLscMTRA87MJVgN6US+L0l5RrMUirP/IrNA9YETvz49KZcqrLcnHBZmK+UwBfMnpTX1Nkr1sqUk7ytwKqXhO+ZkpQYI3lVecqpXF2R39xq+HvQpHM4DwowOKdnit2USqB1g0+cPXEXyVFj6ImjysMVO1Ah0D7qJTY8TLvtbq4wJeLjDs3Vp3uP08IJwyQpgwM/PsAYu21f37BH7rTUJsYJRoAR8DoEnCJk9lAAWSu/VELJQkvm5+dHgYFBhGOUWK5eBODDpXZkwrx48INnhHN9nrZz8+zO/9gFp63F6L+jr9jRYfCn8QsI1rIDw4xardL8neJ4J5A/21JRsN92YS+XKM2Tflj9iz5cp0XS11HpCrMdfypff0XIBWWO02uz9HUamoz/bFkbU0V7gEZHiZY0ZqkiEw0UwniYh9TQKnYl3K0ds2UKNx9X3QcFGDYpQeu3VmfqVeX6a6cw+HbY2VCgr9td+rXPd9NBsTvz3nmTZUgR1Ad5xuaJJ+5aJMOD/PKNNYL82fYj7G4MLmcEGIH+i4DbCRmW2tzcpK04KDiYCZmGxtWZwG5GxP3CDs1kobE69J8/idATyyQY2JmpnPVtoaN2eJqX+wcadt/pw17U687XvHRiq4g59rl5s357HxsRauGvBJ8qJd0RrrYevKjxMgfJg1YHmwasCeahBGZNV6X4crXWBUJzwAzbn6W2sVmaMtva2x0+A1MRU92mVm2pej8xLdMsgXAZD/1jldwwMF7Ep7tuXK7c1Ylqg1PiZRgOPijdDDS+ZQS8BAHjX3s3LigyymhCsnaskhuH4q56GwH1xhHj+nSFlejJFAq2vU+jl/yQfP0DKW3MtXLXJdqVndpN2GFpT0DkzMXH10+GsUB+U63ByRxpxDtTYq2dKuvuumLFChozZoxWbeXKlXTw4EHt/kok4GtlHiw0PcFo7rtYWeOWYRFQFb5TiVHWTaAI2KqkREemVJ6j17OXjD5o6SJkhLOi++oJ7bupmdHZPq21Q9BY4BMmNiU4ao4EiRNGUNL7xKkxUkXss54KfMo+Fxsd8EG8tJ8snyubIizJ29j/wsIIMAJeh4BTf9XgsG9LYuMTKSYuQRY31NcKdT6r121h5Yn5jSJKvpKIhAyV7PZacmSTRrxG3vCgZjaz58yvOk0YNIFAwPSSMmKWlofQGkrqhIZMETxsIgABtCXmferrTZ06lYYNG6Z9cnJy9MVXJL1gvOUYCyfkamMdt+KYrhU6kEC0eQjikCHMhbkgUrySAh2ZUnmOXosrqmQ4DrSbPzZHxtOy1QdMqrakTOcjh5MMrpTsE3HgICBjS6aMsjuM+XxrGg3WgZQYS/J1ve5Z2u3UrBAbEpR5WPn/mVXhW0aAEfACBGz/9bOzuMXL76S8aXOE034KBQUbzEbB4po9ZBjNnLtQa3ns0D4tzQnvQKC2tFBbyPCF/4+iUodqMb+0AisJhKowjzOGEBQITdGdgDhNuecpEYDYQK4ik7Jp5KLvymZ4UZ3e8rbWBUygx9e9KO9BxmZ++zlpKlUV8M8EAstOvvtJmv+wsZ0q78trekIMIcZV10Y+mjNqsBYuQgVvdcf84CCu5OGb58qjlnAPAvLgjTMJcbggMJ/p42/JTCd+wET6WldQWwQ3ffr+JYS1KkHQWsRJ+8Xt19FL379NZVtcFZFEwX0LJtMgYcIzd8i3aORExgfbD8ljpNAUO1yx4xHYKIH2DHkvfO82i0j+KuwHTM2I4wZBS8Rsw3FWtgQnAGDtCMirNyUj1hnipSm/P3eRclvz4HxGgBHoOwScMlnCWT9tYJb82Jp6yXkRU0nEJmPxLgSwIxJBWBGMFdHyEaBVL5/++ib9rUn69Jcr5dmSKvPc/jUq2e0V481/5F2p/dJrvQrFhgC9Dxk6KtrzCUGDhpAWIVGJNP0bf5ZnXnaIDSfYlanE/GQBld9XV5BLBBzFsTzwE9eTgJfW7nDbtBDGAs71OEMTxOH3994oNVggS0oQo+vldTvVrctXnP2IOGoIaQHC91txRBCIGsJH6P3k9JsYzAdFcFeYdHEyAEJ3PC4i5evljqde0986ncYc/iSOqvrpinnyGagdj9itCYz0z8V8kHe3HJDR/5EPjdh1XVpPECqcFapORzBvB00bThTAuaT4AH+YP/XHKAGrf4tTBVgYAUbAOxFwSkNWXnbRJhrYZbl3x2ba8aXnOFPbXAwXWEVg179+Lh3xEXZCmVKsVjTLRGiL5lqjP5E6SNysmsXtifX/lAFdUaAnYye/eF3Thpk32vHqo3T00+c18yW0bHoyBu1c4a6PzJtp9+br6g3T+9OrvpAvYry81UsfL+Ffv71WHqekTc5GQu9jZaOKlv30qg30njiMW61TT8YQSPah/1tF+jAc+p2EHULbCdEfrq3S6mpejvtfvbmG/ilIHtYEwRr1ZAwBYteI0A/2BFggQCrIjZq7rfpqLiC31kS1x05Jc0Fw3Aeff0+GnFBlmKt6LmibX1xKu0+dU8XyWiL8/F78bIc2NzxLfLC2R18xft/MnxXKERBWzQmaPz0ZQ+iLn7222qHTCUwmxjeMACPQ7xHwEQcoW/416sG0fcULDscmhYho/IjM39TUQLU11dTUaHo0Tg+68sgqWVkG80NBQUGvzX/ZMsPOxFWrVvXamO4cCGdMzv3hG/IFBVPltn/+2Gb30IhNve8ZWY4wGThzEtquuKwxVF9RLI5kOiG1XjY70BUgThlMq0EiJEZD1UUZBw3R//uDwPQFDQxEHRwNp3oc2n1KRLXvLkSEq2uAOW2gMB9C61Qlzr/Mv1CqBXl1tW977WGKg8kR5jns5MQ63WEetTems2XQXiFYLDZd1ItgstDUwXxqL/wEdlTi0HQcyn6goNhqAF5r8wHhy0yKExsuwqU2DdgUlVX2W2ysrYHzGAFGwDkEnDJZYqgO4atTXVkhP84Nza2uNgQGz7pD84XRny/ZUxywoaC7EBnW+gL5wokBniJwpHeHM31P1ov/xvDCx6c3BeRrj5l2qTfHd2QsEC+YSs13wNrrAzHl4IPnqMBciuOl8GFhBBiBqwsBpwnZ1QUTr9ZZBAJCImQk/QFjF4jgsItlNzB1Xjq+zdkuuR0jwAgwAowAI+B1CDAh87pH2r8WNO3+P0pTo5oVfGQO/vtpdctXRoARYAQYAUaAERAIMCHjr8EVRUDtZAQRa7hcLJzwX6Ky08awC7YGR5gMJaoPde9NV70fknLo9qb18VoYAUaAEWAEeoaA0079Pevee2uxU7/3PlteGSPACDACjAAj0NsIOBX2orcnyeMxAowAI8AIMAKMACPgzQgwIfPmp8trYwQYAUaAEWAEGAGPQIAJmUc8Jp4kI8AIMAKMACPACHgzAkzIvPnp8toYAUaAEWAEGAFGwCMQ6Ne7LONvfV8Dsfztm7V0f0qEhIT0+nT6YsxeXyQPyAgwAowAI8AIXEUI9FsNmSeQsavoe8JLZQQYAUaAEWAEGIEriEC/JGRMxq7gE+euGQFGgBFgBBgBRqDfIdDvCBmTsX73HeEJMQKMACPACDACjMAVRqDf+pDpfcZA0vT3VxgTp7pvbGx0qp0zjXpzLGfmx20YAUaAEWAEGAFGwDEE+p2GDNPXky+9xsyxpXFtRoARYAQYAUaAEWAEPAOBfkfImIx5xheHZ8kIMAKMACPACDAC7kPArSbLmJgYamhooObmZpdnqNeM6Umayx1zBx6DQPqERZQ4dLLFfE9teoOqik9Y5Pdlxh2zx1NMRCgdLLhAm4+c6cup8NhegoCPWEdnL6+lt8eMDA2mppZWamlr77WV+vv5UqC/HzU0t3rEmL39THoNFB7IAgGXCdny5ctp3rx5FBcXR35+fnKAzs5OKi4upqeeeorOnz9vMWh3GUzGukPo6ihPGJJH8dnjLBZ76fjWfkfI5o/LoaAAfwoPDnKakOHlhE9zaxuVVddZrNtWBv5gp8VHy2K0Q3tPk/+3aDqNykyh5pY2+sEL/+7x9FNiIum/bl8g63+w/TCt2XvcatvosBC6Y854GpKSIMu3Hi+gd7YcsFpXZQLXr14zkSYOHkgJUWEy+1JVHW0/cZZWbt6vqrn1Gh4SRN9YMIVyBiTK70JbewcVlVXSx7uO0rbjZ906luqsN8ecN3YoTRuWRZmJsRQcaHz9qHX+Y812Kiy9rKbmtisI2LcWTqNx2Wli3ADZb5P4rp2vqKIXP9thd0xnvweujNmbz8RtIHNHLiPgFx0d/T/O9OLj40M/+9nPaMGCBRQWFka+vkbrJ8oiIyOpsLCQzpxxTFvgKWQM2kBIXZ3hxdnWduVfgsOGDZNjHj9u/aUjC73oR2tDDdVXFNPlswflNSp1iFxd2cldVHPxdL9a6dIpowj/eV+qqqUvjxY4Nbcf33wNfXXOBLpm1GD6YMfhHveREBVOz3x9CYEUVtc30emS8h637Q8VMX+8LPGiPCXm/uWxnuP3nRumU2YSXu4B9NLaHRZaj6ToCALZ+/p1Uyg9IYbwosOnWfy+2ntOvuJvGIje1NxMCgsOJPxNwwdtcwckUVZyHG09dtat8EWFBdPT9y2RfYPcQ3x9fSgmPJQm52RQXVOL259tb4/5w2VzaKD45wG/K3pR6wRhq21sptMXK/TFLqWxxr9+ezllJcWJcQ1KA3SIOcQKrfY1o4fQyQtlVGrlnyBnvweujNnbz8QlcLmxWxEw/oviYLc/+clPaPz48bIVNGJ79uyhQ4cOSWIG4oCyjo4OB3s1VtebKUHS9PfGWpzyZgTKz+wjfCBhsWmUPmGhNy/3ql0bzL1KXvt8t0p2e4XWa6zQeECOFF2k8pp6kzbXjc+lr12bZ5LX05v75k+WxAv1K+sa6d/bDxH+zt0yY6wkZeMHDaBbZ46jtzcbvp897ddevV/esVD2jTrHz5fS+gP5BEK5fNpoSQaxloJLlym/uNReNw6V9cWYMBUeKCimUxfKqaymjrIFuZ08NINSYiPl3LHOw4UX6cLlaofWYqvyt643kH2Uny+volfW76LqhiaaLjR1S6aMJD9Beh/5yrV075/eIGjq9OLs98CVMfvimejXzOm+Q8ApQoaje/LyDH/oWltb6dFHH6WCAuN/tf/5z38kMXOWkOnJl15j1ncw8ciMACNwJRCAxmnS0HTZNbQUJZU1PR7m9m6IXFJMhNYX+oaJ8rFb5ml5thIwUc0ckS2LW4Vv06OvfEQ14gUO2X+mmP78LcMxbtBIuouQDRBao8TocDlGcUU1Pf7mGs1/rEFoxu7uIpZLBYH4/Xufy3qu/uiLMX/84gfCZ8zUmrD75DlpAgYxXzxphCSf04dndmtS7sn64QKgSHu9wPGRf36o4YpnB23cnddMkKRs9sjBkgSrfp39HrgyZl88E7VevvY9Ak4Rsrvuukv+0mD6r732mgkZU0tiMqaQ8Pyrn38gZU5eKhdScmwLNVy+YLKo4Ig4Sht9rcw7t38NtdRb/meblDuVIpOyqammnM7tW0NB4TGUMnwmJQ2bTn4BQVRXWkint6yk+svFJn27enPrrbdSVFSU7AYajpdffpnwT8SVFPiOTB2WSdCipMZGSR+gz/adoBNC66EXmKVumjxCy0qLM8wzwN+fVswYo+UjcbGy1sQ3Db4wg1PjZR28AJRMzkkXvkdB6lZe1+8/SZfrGrQ8aCQmDB5AHZ1Eq7YelOawPEGKYEoquFRBe06dpx0nCrX61hJ4cUzuIlIoPym0HQfPmn4vrLUzz7t15ljj3xIHtGMhwkQ5Y3iW7A4+R/CzMpc68bKF5gwaEWhG0KYnMlGsK0A8Qwg2aCgyhvvFecbnFRoUQMMHJtHRc5dQ5JLcKIiIkn9t2KORBuQtEJo+JWOyUuXcQBRdlb4Y05yM6deA3xEQMsjgLl8/fblKO/Ldg6+aknX7801wRf6ne44RiD20ZAsn5poQMme/B66M2RfPROHD175HwClCprRj8JtavXr1FVmFXjOm15hdkcG4U7sIBAryNGTOnbJOa3M9FZkRssiUQVp5VfFxqqg/aNFf9tTlFJU6lFoba6mxupQm3v5LkzogaykjZtGaJ5eZ5Lt6c/PNN5O/IDhKVq1aReXlV87HCn4pT35tsWZ+wbggWvBFekE4LH9+8KSainTaXjZ1tHavEng5mOfDWV+/e/OGvOE0PD1ZNdGu8G/CRy8wDekJWd6QdGmqQR3MbUpOhlYd9zOGZ9PO/CJ69oONFi8wVRFah+XTjaQRmiNHCRkI6ZxRBr9AmKfgP9ZTwdjw6YK8LgiMNXlfkE1nJG/IQK2Z3pEe2CwYn6OVITFJmNrcQchGZBieJf5pOFRoJLYwuybrNH1Yc05aojDplZjMw5mbvhjT3jxhglZS39yikhZXR757A+IN/+SgE2gezaVD4F1V30BxEWHCPGwwmao6zn4PXBmzvz0ThQVfewcB45vKgfHgxA/BTsr09HTCS2/kyJEUFBREFRUVdODAAfrnP/8pfS4c6FarymRMg8LrEtCGjb/lv+S62pobqK78vNSQhccPIPIxdfT1xMWP6CJJpWI33smSMql1gjM55K65E+mLQ6eEZkqopoTUNzXTrpNFMo0fozJSpHM6Xsq7T53T8pEoKjXVAG0XGiz10goLCtTIGTRp58pN6yLPloCMtQtVGQhVi/gHC1o9ECWYEbHD8PUNPffpsjWGrXxoB0E+IdAK9VRAehcIcyEERBVaMHdKrHCiV3L8vFH79aNl18hsaMyUVjImwkgiVBtnrniGkMr6Rvk8kIY5907xDCD6MeMijfOThU7+6IsxbU01S2zM+P6SWVrxVgc2dmiNukl02vz3wtAQ30V8Gw2/nUTu+B44OmZ/eibdwMnFVwABpwhZYKDhjwdeHAhtocJdYH4DBgyQnxkzZhAc/x3VRjAZuwJPuR916SvMn5Dj616iszuM4Q38g0I1s2g/mq5TU9l0+DQ9/8lWre1DS2ZLggOiMzozlfYLh2YInJv/+O+NWr2f3TqfQOgQtkKfr1XQJWB+wQeCXYrPftOgWUTYB1uhH3TNtSTI2GOvfkTnyqpkHnZ4/fHrSyUxBOl5a9NeC0dnrbELCbz8Fk0cLnuA0/w+QQh7KtAOql16b23a19NmPa4X1aWpwd834AO5XqepeuLttfT7e2+U+fqXtsxw8gfM3JBGXWysBxfPlIQVvk8wuz5440xZJ15oc9whfTGmmneGMCXeJXy3sOsRZEyZiFEOczn8ytwh58uNWrEBcdEWXWIXZXSYkeDi2VcJUgxx9nvgyph9+UwswOGMXkfAYZVEcHCwZirIzMyUZKyqqoo+//xz2rBhAzU1GZxf4bfz8MMPO70gvZlST9Kc7pAb9hsESo5sNCFjmBi0ZQj46umCFzjCL+hl1bZD2m1yrNHRXMvsw8TO/EKNjGEaCJvx8e5jckYgPYgZdSVExW1D3yu39JxUQYOxZPJIOSVojfQmRZnphh8RQjMFUTvuoA2DthDyifA5gj8ayBpEacrkjZM/QNSV+RXkCzI2K03GZUP6T8J0XFFr9AGMdQMh64sxsRYlMMPC5D40LcGEjK3efZSe/c8mVc3l61ldTLNrxxjM4/pOr58wTNPSIj8u0kh2nf0eODtmXz8TPS6c7hsEHNaQgZDp5cKFC/S9731P+wP1wgsv0IsvvkioN3jwYMrKyrLq9K/vwzzNZMwcEe+6h3ast+QHP/iBNKWr8RzV2Kp2Pb2Wijhk5lHHS3Tb992lUenpfLqrt/nwGYsq0PAh1AIkTWxKsCZrhQP2Hp0WA7vVHJHl08bI6tASbjp0usdNZ4sYbSqwp57o9riDHlT064qpqEzLDyyeIV/aIIBvfGEwrUJx5ifYoZ8gra5KgC42Vkdnh9T+PdClDdsjTNcwyWIjhhKlHVT3zlz7Ykz9PC8JMzpCe0BTChKkfi+gNcVGmD+8v0Ez7evbIe3Idw/PDL6N0EzDBPzbexbTq0LbiJhu8OtE2Au9qGePPJV29Hvg7Jh9/Uz0OHC6bxBwmJBBG6aXZ555RiNjyIeG7JNPPqFlywwmlLFjxzpEyJiM6dH1vjQ0C811lb22MPzD0Juid55X4+oJmt40o8r78opAtuZyudYYz0sfOkJfD2ZVR0JU6Nsi/hOCrUI+QHwvfWE36VvErkwIxseL+UoIdmdifjAfwYF8pPDtgzwjzMvKhKl832rFC99VqRO+hEpw0gPicGEHJ3ZS/u3jL2VRZIjxH+FK3Y5Z1c7Ra1+MqZ8jtEi/EqE9lMQLUvbTFddKMgbMl00dRe/Z2JTh6Hfv/z7dRn8QAXdxMgD8OX9+2wI1rLzCXD8wwWDOxD9USlz5HjgzZl8/E7VuvvYdAk79e9fe3i5njJerPv6YWsbRo0dVkmDWdEb0Zko9SXOmL27TfxBoE7s0vVmUmctT1tgozhE0F0U6kA+tgrvl1lnjZJcgHKu7zKM9GWOCOMJI7cTDUUJKc9GTto7UQdBQCMyI3+vSVME0qgKy6o/8qRImXneICmORLI6CunbMUNklXuo45xESoQtlcllnvpSFTv7oizFtTRVBfX/x+ica4V3Y5V9oq74j+cDrO//7Lu09fd4kBho2hCAQcf6FUq075T+GDFe+B86O2Z+eiQYKJ3oNAYc1ZJgZ4jjBkd/WcUG1tcb/MtSOTEdWxGTMEbR6oW6XvwxGUr4u+lEDgh3wi9L1pe+D032DAI6O0b+EMAs94agwi37v6ixhOoI2BIK4U+0OnOaBY6UgIIz/ceBoKdnIgR96PGAehUYG5EiJ3jnclrYKvm44DkgJvvb2CCSIMbSnyhyJQLb6I6QQckOJ+YkEKt8TxlRztXaF+fqCCE0BbRU0hFiPI9pTa32qPBBbmEEh8NWC4LlCnrhrkbyqe3kjfrj6PXBmTHd8D9T8+ep5CDhFyCorKyklJYUCAgKsRuTHTksljpqMmIwp5PrPVa/VCgyz3KkUFpd2xSfb3mrURITFD+zxeD/60Y9InTuKYMVPPvkkNTYadlH1uJNeqqgcxa2RXntTUO1QR/m92KuvL0MQyzNm5wamJxiDaV60ETkfh18vEg7RSrBLEiE9uhM9qbJlkrLWx1ARe0vF49ogYrnpzcDW6ruSh3ho6vQA9PPc6i+1lzfuEfRXSX5xmUqaXB9ePleLEI8COOt/4y9vm9TR3yAOm9ogAMJpvssW2kEl5s9L5XvCmGqutq4hgogpwfnI1gi7s9891a+eeEHjqvzzCs1Cy7jje+DomO74Hqgx+ep5CDhlslyzxmj7v/322y1WjQPHlZw61f0faVVXf9WbKfUkTV+H072DQGtTveYnGJ1qiP+kHzlt1Fz97RVJN9VWaP3GZxn8iLQMO4lJkyYRzlbFZ8SIEeSMxtZO924tUqYo/AfviK+ZXkujD0rZk8mZBzpFm4UTcrWmcLy2JkNSEwjR/dVHT2Cs1UcewhsoX50vj57RzHG26uvzESIBAvK5cvN+fZHb0zKie5cmFyakvbqYcPAdgw8cBMRpi1iHNTEn1eb35m1gglVy5mK5iXYGYU1Su855xA5PveZGtcHVfAzze31dpHt7THynlXbKfC64H5QSr2lPoS2zRsZQz5nvHtqZCzRw3xUbNpS8KUK86MUd3wN9f0h3N6Y7non5mHzvOQg4RcgQnV/5kcF5f86cOdqK77jjDho61OAD0dzcTF9+aXBK1Sr0IMFkrAcg9XKVlvoqOWJc1hhKHDpJpn39/GnMsocpKMKoUbmS02qoLJHdhyek09ibf0IRiRkUEpUoj2G6kuP2Vt942Sr50bI5Mr4Y/oB3JyAG6r/+mSMGSZKkdiJ21xZOzjhDUI0zR+xinJyTIZvBNHbMDccCqTkgMK4SR+KH4agcvKwhO8QJAnrnZ9WfrSvCKmA9+EwSx0opSRQkR+Xjqj9WCaamE10HeINEPLRkjjShwYz2w6VzNE0Wgum6y2cQx1WpZwjCsWiiIRwDyNj/3HG9RrYc8blTa7V17e0xcYD4S9+/jX4itIc4+kvtrETsOxyZ9Audsz3CsbhLYJZ/8ms3yOeNTRN4pjCd/1rkqUDO8CczP9rMle+Bs2P29jNxF8bcj3sQcMpkCTL25ptv0p133in/UDz44IP0wAMPyBnp/ytDtH5F3Ho6XSZjPUWqd+sVbF9FufPuk4OOX/Fz6uxoF4H1DcEs21uayC/QuAvsSs3syOq/Ud5Xn5DdJw+bQfhAoDVZ85slMu3JP+BTtWLGWO2FoYK9Yk2I/P/QP1bZXB7+s75ZhKqABucHIhCtXn7/7udaMFp9PtLADi9DBFsVvE62V3XM46mpfGeuSdER2pFO+4RztS0tj7W+lZkTZSrshLV61vK+s2iGdmi3vhyhFb5/0ywt6zcr15kcR/S/q7fS70SIBBBbnPv5wvdu0+oiARPki59tN8lz9eavH22WhA9/QxGhX0XpV/1iUwFCkrhTentMrA27KPGxJdip7M7vXrBwrUEgWv3z1o+NZ/mbd9bps7S0s98DV8bs7WeiLZYTfY6AUxoyzBpnAv75z3/WHPvxi6bIGJz+EcF/7dq1Ti9Qb6bUkzSnO+SGLiFQuPM/hICuShQZqzp/nA588LTK1kybWkZXossCJMo7zIt6fF9x9iDtfO0xaqi6KAlhjxvqKjp76L2ui//f3r3EyHFVYQCusRXsIQRQMIkSRRlj54F5RIIdSJGQ2LBDSEhI7FiwiYBNWLAkCzZBSEgsUMRDrMIGJzFiYTY8FLEBER6WHGQ8ntgeZFuObR4JIvZ4hjplulMZusf9qG6f9v1KGqVnprruPd/pZP5UV98a+PDN+upUs8PW22/QLnFd1JM/ONLcs7L3aatB+w362eHf/Km5p2MEnThjNur2red/1ZzliX93e0s5xNjfqFejjzNAw7bNbWO0r2Mb9JzPf+Kj/R8Pu/dkf4fWgzjTEDfUji3W4xp2QXvrKW95eLN59Xbevl+cMfnqD39aL8j6/58KjjW0ok87hcrtx9v+fW/c9j/j7MjTh3/xlk8Cxu/jufG7p579+Y4fDNg+xvbv22P1Hs9zzLP1GeBYYmLYvOLnR+s7TTz5/SM7nnkc97X3ev1OTZzt2r7FeHEN4Feeea6Kng7aJn0dTDPmtD0ZVIefLYbA0srKyuj/9R5S0759+6reDcePHTtWra+vD9lztB8vQhh7X73gbWznz59v/jmPC8V7a7tFGL5V2576RuN3P/ihanNzo3p19aXq+rU311C6VXMy7ngCn3v8I/0FMb/w7R83b5XF9V1xFiEuZG6/dTrekQfvHRerf/eJzzb/wxZ/AL/+7NHBOw746Zfq2wd9/ND+5jdf+9HPqjMXrwzYa7Y/irczH6tDYVzTFDf1/s/VjdkOWB89PokaN5q+cKW+J2q9LMM4IXvSyc1rzLhdUbwNHeNF4I5FheM1Fx8gmWWdcVY0rmGMNeZWz12q7w97uRrnj98kr4Npx5xXTyZ9zXhetwITvWW5fQqx+nksBtvFtghhrIs6F/UYsajrueMvLur0zXuIwNqFy1V8zWKLANg7ez7Ozcrjmq2PvX+lmdLp+o/nrQhjMXgsRRD3V5znFmcCfz3GHQy6mNu8xozlP6KX8+5nfIIxvibdJnkdTDvmvHoyqYnndSvQSSDrdko3jtZ+mzJCWvv7WYznmAQIzEbg6EsvV7+rL8a/urHRnIEbdZRr1zerbx7+ZbP7vP94jzpH+xEgQKArgZSBrB2+2mfMuiracQgQmJ9AXDcUX+NucS3bH9eGX8c27vHsT4AAgcwCE1/UP6uihLFZyTougRsC7fWdhl1gzYoAAQIE5iuQ8gxZELTPjLVD2nx5jEbg9hP4Sf2JzPiyESBAgEAegZSBbBHD2PLy8ty6Os+x5lbUgg70nS9+ulk0dEGnb9oECCy4wBPPvNBfVHjBSyl++uneslzEMFb8qwgAAQIECBAgMJVAyjNkUVH7bcoIae3vp6rYkwl0KPDl7x3p8GgORYAAAQKlCqQ7QxaNaIev9hmzUpukbgIECBAgQOD2Fuhkpf7bm0h1BAgQIECAAIHZCqQ8Qzbbkh2dAAECBAgQIJBLQCDL1Q+zIUCAAAECBAoUEMgKbLqSCRAgQIAAgVwCAlmufpgNAQIECBAgUKCAQFZg05VMgAABAgQI5BIQyHL1w2wIECBAgACBAgUEsgKbrmQCBAgQIEAgl8BEK/V/8lOfqaqlpZEq+cNvX6wuX7o40r52IkCAAAECBAiUKDB2IFuqg9hd73r3yFa7du0eeV87EiBAgAABAgRKFBg7kG1tbVUnjv+5PkE2/AzZw4c+3FhubFyrLr16oURXNRMgQIAAAQIERhYYO5DFkY8f+/3QAd5x1zurXiA7s3ayigBnI0CAAAECBAgQGC7Q+UX9Bx7+QH+0tZMv9x97QIAAAQIECBAgMFig00C2tLSrWjnwSDPSv/75jyq+bAQIECBAgAABAjsLdBrI7n/gwWr37hsX8Z/66/GdR/ZbAgQIECBAgACBRqDTQHbw0Q/2Wc++stp/7AEBAgQIECBAgMBwgc4C2fLb76zufs89zUjn1k9X8QlLGwECBAgQIECAwM0FOgtkBx461B/tlIv5+xYeECBAgAABAgRuJtBJIIs1yfY/9Ggz1tWrb1QXL5y72bh+T4AAAQIECBAg8D+BTgLZvfc9UN1xx9uaQ55ePQGXAAECBAgQIEBgDIFOAtnBR1prj63+ZYzh7UqAAAECBAgQIDB1INuzd7l67733N5J/v3Kp+vfrr1ElQIAAAQIECBAYQ2DqQLb/4I1rx2LMUyesPTaGvV0JECBAgAABAo3A1IGs9+nKra3N6m9nX8FKgAABAgQIECAwpsBUgWzfPfdVe/bubYZcP7NWXb++MebwdidAgAABAgQIEJgqkLXfrlw76WJ+LycCBAgQIECAwCQCSysrK1uTPNFzCBAgQIAAAQIEuhGY6gxZN1NwFAIECBAgQIBA2QICWdn9Vz0BAgQIECCQQEAgS9AEUyBAgAABAgTKFhDIyu6/6gkQIECAAIEEAgJZgiaYAgECBAgQIFC2gEBWdv9VT4AAAQIECCQQEMgSNMEUCBAgQIAAgbIFBLKy+696AgQIECBAIIGAQJagCaZAgAABAgQIlC0gkJXdf9UTIECAAAECCQQEsgRNMAUCBAgQIECgbAGBrOz+q54AAQIECBBIICCQJWiCKRAgQIAAAQJlCwhkZfdf9QQIECBAgEACAYEsQRNMgQABAgQIEChbQCAru/+qJ0CAAAECBBIICGQJmmAKBAgQIECAQNkCAlnZ/Vc9AQIECBAgkEBAIEvQBFMgQIAAAQIEyhYQyMruv+oJECBAgACBBAICWYImmAIBAgQIECBQtoBAVnb/VU+AAAECBAgkEBDIEjTBFAgQIECAAIGyBQSysvuvegIECBAgQCCBgECWoAmmQIAAAQIECJQtIJCV3X/VEyBAgAABAgkEBLIETTAFAgQIECBAoGwBgazs/queAAECBAgQSCAgkCVogikQIECAAAECZQsIZGX3X/UECBAgQIBAAgGBLEETTIEAAQIECBAoW0AgK7v/qidAgAABAgQSCAhkCZpgCgQIECBAgEDZAgJZ2f1XPQECBAgQIJBAQCBL0ARTIECAAAECBMoWEMjK7r/qCRAgQIAAgQQCAlmCJpgCAQIECBAgULaAQFZ2/1VPgAABAgQIJBAQyBI0wRQIECBAgACBsgUEsrL7r3oCBAgQIEAggYBAlqAJpkCAAAECBAiULSCQld1/1RMgQIAAAQIJBASyBE0wBQIECBAgQKBsAYGs7P6rngABAgQIEEggIJAlaIIpECBAgAABAmULCGRl91/1BAgQIECAQAIBgSxBE0yBAAECBAgQKFtAICu7/6onQIAAAQIEEggIZAmaYAoECBAgQIBA2QICWdn9Vz0BAgQIECCQQEAgS9AEUyBAgAABAgTKFhDIyu6/6gkQIECAAIEEAgJZgiaYAgECBAgQIFC2gEBWdv9VT4AAAQIECCQQEMgSNMEUCBAgQIAAgbIFBLKy+696AgQIECBAIIGAQJagCaZAgAABAgQIlC0gkJXdf9UTIECAAAECCQQEsgRNMAUCBAgQIECgbAGBrOz+q54AAQIECBBIICCQJWiCKRAgQIAAAQJlC/wXaC91udUx8/oAAAAASUVORK5CYII=;" vertex="1" parent="1">
          <mxGeometry x="1170" y="320" width="256.65" height="130" as="geometry" />
        </mxCell>
        <mxCell id="N-A8A7CQzxQLr3MDPCDJ-45" value="https://grafana.com/docs/grafana/latest/administration/provisioning/#data-sources" style="text;html=1;strokeColor=none;fillColor=none;align=center;verticalAlign=middle;whiteSpace=wrap;rounded=0;" vertex="1" parent="1">
          <mxGeometry x="1250" y="480" width="60" height="30" as="geometry" />
        </mxCell>
        <UserObject label="https://github.com/prometheus/prometheus/blob/main/documentation/examples/prometheus.yml" link="https://github.com/prometheus/prometheus/blob/main/documentation/examples/prometheus.yml" id="N-A8A7CQzxQLr3MDPCDJ-47">
          <mxCell style="text;html=1;strokeColor=none;fillColor=none;align=center;verticalAlign=middle;whiteSpace=wrap;rounded=0;" vertex="1" parent="1">
            <mxGeometry x="789.32" y="410" width="60" height="30" as="geometry" />
          </mxCell>
        </UserObject>
      </root>
    </mxGraphModel>
  </diagram>
</mxfile>
